<?xml version="1.0" standalone="no"?>
<!DOCTYPE svg PUBLIC "-//W3C//DTD SVG 20010904//EN"
 "http://www.w3.org/TR/2001/REC-SVG-20010904/DTD/svg10.dtd">
<svg version="1.0" xmlns="http://www.w3.org/2000/svg"
 width="225.000000pt" height="225.000000pt" viewBox="0 0 225.000000 225.000000"
 preserveAspectRatio="xMidYMid meet">
<metadata>
Created by potrace 1.11, written by Peter Selinger 2001-2013
</metadata>
<g transform="translate(0.000000,225.000000) scale(0.100000,-0.100000)"
fill="#000000" stroke="none">
<path d="M1030 2244 c-326 -64 -558 -270 -643 -571 -21 -77 -22 -89 -25 -875
l-3 -798 408 0 c224 0 439 5 477 10 174 25 317 99 446 229 93 93 148 184 191
316 22 68 23 83 27 494 4 466 -2 545 -47 678 -79 231 -286 426 -521 493 -73
20 -255 35 -310 24z m266 -109 c112 -28 221 -92 309 -180 137 -137 195 -264
203 -446 12 -288 -132 -530 -392 -655 -143 -69 -335 -84 -438 -35 -107 52
-170 149 -176 271 -7 138 53 242 175 302 61 30 75 32 187 36 66 2 127 9 134
14 6 6 12 21 12 34 0 12 -6 26 -12 31 -7 4 -71 10 -143 13 -155 6 -199 23
-275 107 -64 69 -84 130 -78 232 9 145 93 247 237 288 54 15 170 10 257 -12z"/>
<path d="M1090 1948 c-32 -17 -70 -74 -70 -105 0 -14 7 -40 16 -58 47 -99 194
-89 225 15 14 48 6 81 -29 121 -32 36 -100 49 -142 27z"/>
<path d="M1082 1210 c-89 -55 -72 -191 27 -221 138 -41 221 146 99 221 -42 25
-84 25 -126 0z"/>
</g>
</svg>
