<svg xmlns="http://www.w3.org/2000/svg" viewBox="0 0 585.34 454.97"><defs><style>.cls-1,.cls-8{fill:#222221;}.cls-1,.cls-2,.cls-3,.cls-4,.cls-5,.cls-6,.cls-7{stroke:#222221;stroke-width:2px;}.cls-1,.cls-2,.cls-3,.cls-4,.cls-5,.cls-6{stroke-linecap:round;stroke-linejoin:round;}.cls-2{fill:#eabd7c;}.cls-3,.cls-7{fill:none;}.cls-4{fill:#b7d9e4;}.cls-5{fill:#68a8de;}.cls-6{fill:#fff;}.cls-7{stroke-miterlimit:10;}</style></defs><title>Element 81</title><g id="Ebene_2" data-name="Ebene 2"><g id="Ebene_27" data-name="Ebene 27"><polygon class="cls-1" points="78.82 89.93 78.82 134.86 39.91 157.33 39.91 112.39 78.82 89.93"/><polygon class="cls-2" points="39.91 112.39 39.91 157.33 1 134.86 1 89.93 39.91 112.39"/><polygon class="cls-2" points="78.82 89.93 39.91 112.39 1 89.93 39.91 67.46 78.82 89.93"/><polygon class="cls-1" points="575.93 153.48 580.13 160.77 584.34 168.05 575.93 168.05 567.51 168.05 571.72 160.77 575.93 153.48"/><line class="cls-3" x1="575.93" y1="187.15" x2="575.93" y2="220.72"/><line class="cls-3" x1="575.93" y1="231.37" x2="575.93" y2="244.44"/><circle class="cls-3" cx="224.3" cy="126.72" r="6.69"/><path class="cls-4" d="M404.82,279.92a47.54,47.54,0,1,0,47.53,47.54A47.54,47.54,0,0,0,404.82,279.92ZM399,343.15l-7.28-4.2-7.29-4.21,7.29-4.2,7.28-4.21Zm19-18.77-7.29,4.21V311.76L418,316l7.29,4.2Z"/><polygon class="cls-3" points="391.68 330.54 398.96 326.33 398.96 343.15 391.68 338.95 384.39 334.74 391.68 330.54"/><polygon class="cls-1" points="398.96 326.33 398.96 343.15 391.68 338.95 384.39 334.74 391.68 330.54 398.96 326.33"/><line class="cls-3" x1="391.68" y1="334.75" x2="425.25" y2="334.75"/><polygon class="cls-1" points="425.25 320.17 417.96 324.38 410.67 328.59 410.67 311.76 417.96 315.97 425.25 320.17"/><line class="cls-3" x1="417.96" y1="320.18" x2="384.39" y2="320.18"/><polygon class="cls-3" points="425.25 320.17 417.96 324.38 410.67 328.59 410.67 311.76 417.96 315.97 425.25 320.17"/><path class="cls-1" d="M207.53,112.39V143.1H404.81V112.39Zm16.77,21a6.69,6.69,0,1,1,6.7-6.69A6.69,6.69,0,0,1,224.3,133.41Z"/><polyline class="cls-3" points="503.48 112.4 503.48 327.46 452.35 327.46"/><polyline class="cls-3" points="357.28 327.46 306.18 327.46 306.18 288.8"/><polyline class="cls-3" points="306.18 51.3 306.18 7.63 385.97 7.63"/><path class="cls-5" d="M207.53,414.69V454H404.81V414.69ZM306.17,447a10.32,10.32,0,1,1,10.31-10.32A10.32,10.32,0,0,1,306.17,447Z"/><path class="cls-3" d="M316.48,436.69a10.31,10.31,0,1,1-10.31-10.31A10.32,10.32,0,0,1,316.48,436.69Z"/><rect class="cls-6" x="120.44" y="252.22" width="120.36" height="52.27"/><polyline class="cls-3" points="240.79 219.93 240.79 173.2 271.01 173.2"/><line class="cls-3" x1="457.34" y1="196.56" x2="394.71" y2="196.56"/><line class="cls-3" x1="421.15" y1="222.01" x2="306.18" y2="222.01"/><line class="cls-3" x1="421.15" y1="252.22" x2="306.18" y2="252.22"/><path class="cls-1" d="M316.48,436.69a10.31,10.31,0,1,1-10.31-10.31A10.32,10.32,0,0,1,316.48,436.69Z"/><circle class="cls-1" cx="306.17" cy="286.28" r="6.63"/><circle class="cls-1" cx="389.29" cy="7.63" r="6.63"/><line class="cls-3" x1="207.53" y1="252.22" x2="207.53" y2="143.1"/><line class="cls-3" x1="207.53" y1="377.35" x2="207.53" y2="304.49"/><polyline class="cls-7" points="39.91 173.2 39.91 275.96 120.44 275.96"/><rect class="cls-3" x="471.99" y="51.3" width="63" height="48.1"/><polyline class="cls-3" points="492.79 63.83 479.85 75.35 492.79 87.48"/><polyline class="cls-3" points="511.09 63.83 525.81 75.65 511.09 87.48"/><circle class="cls-3" cx="224.3" cy="126.72" r="6.69"/><path class="cls-8" d="M147.73,265v26.77h-6.12V265Z"/><path class="cls-8" d="M165.7,265v3.83h-6.11V265Zm0,6.5v20.27h-6.11V271.47Z"/><path class="cls-8" d="M183.68,265v26.77h-6.12V265Z"/><path class="cls-8" d="M201.65,265v26.77h-6.12V265Z"/><path class="cls-8" d="M219.63,265v3.83h-6.12V265Zm0,6.5v20.27h-6.12V271.47Z"/></g></g></svg>