<svg xmlns="http://www.w3.org/2000/svg" viewBox="0 0 382.08 372.63"><defs><style>.cls-1{fill:#222221;}.cls-1,.cls-2,.cls-3,.cls-4{stroke:#222221;stroke-width:2px;}.cls-1,.cls-2{stroke-linecap:round;stroke-linejoin:round;}.cls-2{fill:none;}.cls-3{fill:#b7d9e4;}.cls-3,.cls-4{stroke-miterlimit:10;}.cls-4{fill:#eabd7c;}</style></defs><title>Element 79</title><g id="Ebene_2" data-name="Ebene 2"><g id="Ebene_1-2" data-name="Ebene 1"><polygon class="cls-1" points="189 333.12 155.65 352.38 122.3 371.63 122.3 333.12 122.3 294.61 155.65 313.86 189 333.12"/><polygon class="cls-1" points="381.08 248.35 347.72 267.61 314.37 286.86 314.37 248.35 314.37 209.84 347.72 229.09 381.08 248.35"/><polygon class="cls-1" points="167.54 122.8 134.19 142.06 100.83 161.31 100.83 122.8 100.83 84.29 134.19 103.55 167.54 122.8"/><polyline class="cls-2" points="83.63 188.78 1 333.12 155.65 333.12"/><polyline class="cls-2" points="224.19 333.12 381.08 333.12 334.72 248.35"/><polyline class="cls-2" points="298.23 188.78 194.15 1 126.55 122.8"/><circle class="cls-3" cx="207.02" cy="226.02" r="64.71"/><path d="M210.21,160.53c2.6.41,5.23.49,7.83.93a64.75,64.75,0,0,1,34.17,16.93,62.93,62.93,0,0,1,19.52,35.51c3.87,21.88-1.69,41.22-16.85,57.54A62.22,62.22,0,0,1,218.47,291c-20.52,3.31-38.88-1.76-54.61-15.43a62.24,62.24,0,0,1-21.17-37.45c-3.86-23,2.6-43,19.3-59.34a63.25,63.25,0,0,1,35.21-17.38c2.4-.38,4.83-.55,7.25-.82ZM143.65,230h-.06c.16,1.59.36,3.17.47,4.77.06.88.47,1.27,1.29,1a37.68,37.68,0,0,0,4.15-1,21,21,0,0,1,7.92-1.41,5.25,5.25,0,0,0,1.24-.25,6.79,6.79,0,0,1,2.46-.65c.51.06.76.5,1.28.5,2.57,0,5.13.16,7.69.31s5.13.71,7.7,1a22.29,22.29,0,0,1,2.65.39c2,.47,3.65,1.62,5.67,2.14,3.74,1,7.14,3,10.64,4.62.64.3,1,.92,1.66,1.24,2,1,3.92,2,6,2.82,1.19.45,2.15,1.48,3.33,1.82,1.7.51,3.15,1.5,4.92,1.94a37,37,0,0,0,8.45,1.41,4.5,4.5,0,0,1,2.46.61c2.21,1.57,4.52,1,6.8.51a7.65,7.65,0,0,1,4,0c.88.28,1.84.81,2.74.39a4.65,4.65,0,0,1,2.09-.3,19.08,19.08,0,0,0,5.08-1.06c2.06-.54,4.06-1.3,6.14-1.72a32.29,32.29,0,0,0,6.52-2.2,31.29,31.29,0,0,0,3.48-2.26c2.16-1.35,4.65-2,6.85-3.28.87-.5,2.15-.55,2.38-2,.37-2.25.81-4.49,1-6.76.18-2-.14-2.15-2-1.35a2.19,2.19,0,0,0-.79.67c-1.83,2.13-4.57,2.77-6.86,4.1a49.55,49.55,0,0,1-6.4,2.8c-2.48,1-4.84,2.3-7.64,2.09a1.28,1.28,0,0,0-.7.1,9,9,0,0,1-4.65,1.11,6.56,6.56,0,0,0-2.84.11,10.22,10.22,0,0,1-3.48.65c-2.54.11-5.12,0-7.68-.15-3-.14-5.81-1.19-8.78-1.19a9.43,9.43,0,0,1-3.42-.72c-.8-.31-1.63,0-2.32-.29-2.26-1-4.7-1.57-6.92-2.72a4.92,4.92,0,0,0-1.86-.89c-2-.13-3.39-1.29-4.76-2.61a5.55,5.55,0,0,0-3.34-2,4.24,4.24,0,0,1-2-.56c-2.47-1.67-5.3-2.68-7.91-4.1-3.29-1.79-7-2.3-10.61-2.85-1.35-.2-2.67-.53-4-.67-1.16-.13-2.21-.71-3.43-.59-.93.1-1.86.36-2.74.41-3.47.19-7-.12-10.39.55-.74.14-1.37-.38-2.07-.13-1.76.61-3.68.81-5.33,1.75a6,6,0,0,1-1.93.69c-2.43.46-2.44.4-2.22,2.82A2,2,0,0,0,143.65,230Zm92.81,10.32c1.51-.23,2.91-.21,4.31-.37,2-.23,4-.62,6-1a10.86,10.86,0,0,0,3.45-.89c1-.55,2-1.51,3.24-1.4a5.76,5.76,0,0,0,3.49-1.09,120.51,120.51,0,0,0,10.53-6.3,8.87,8.87,0,0,1,2.85-1c.51-.15.64-.36.64-.8a61.81,61.81,0,0,0-.27-7.07c-.07-.63-.13-.8-.86-.43a69.39,69.39,0,0,1-6.58,3.41,21,21,0,0,0-4,2.23c-1,.63-1.58,1.59-2.58,2.14a9.25,9.25,0,0,1-5,1.15,17.74,17.74,0,0,0-6.57,1.07c-2.73.85-5.5.64-8.21,1.17-1.57.31-3.14-.24-4.73-.19-1.07,0-2,.55-3.15.44a6.14,6.14,0,0,0-1.4-.2,13.14,13.14,0,0,1-4.15.09,22.53,22.53,0,0,0-4.62-.7,2.29,2.29,0,0,1-1,0c-1.7-.87-3.65-.87-5.36-1.62-1-.44-2.14-.41-3-1.08a13,13,0,0,0-4.48-2,5,5,0,0,1-2.45-1.32,10.31,10.31,0,0,0-3.91-2.4,41.11,41.11,0,0,1-5.76-2.34,7,7,0,0,0-1.92-.85,3.59,3.59,0,0,1-2-1.12,3.77,3.77,0,0,0-2-1.33c-2.06-.37-3.93-1.32-6-1.84-1.8-.46-3.51-1.29-5.44-1a1.45,1.45,0,0,1-.83-.07,9.18,9.18,0,0,0-4.6-.67,2.28,2.28,0,0,1-.83,0c-1.95-.8-4-.37-6-.7-1.5-.25-3,.47-4.45.61a53.65,53.65,0,0,1-6,.62,8.08,8.08,0,0,0-4.82,1.07,3.2,3.2,0,0,1-2.26.83c-1-.13-1.5.46-1.63,1.43-.32,2.3-.52,4.61-.66,6.92-.06.93,0,1.29,1,.66a11.25,11.25,0,0,1,1.49-.51c2.86-1.11,6-.58,8.9-1.62,1-.37,2.11-.23,3.08-.56a3.86,3.86,0,0,1,2.13,0,14.71,14.71,0,0,0,5.65,0,10.15,10.15,0,0,1,4.32,0c1.4.32,2.89,1,4.19.81,1.93-.36,3.57.34,5.34.55.91.11,1.52.86,2.4.83,2.22-.08,3.84,1.4,5.73,2.17,1,.41,1.75,1.27,2.93,1.54a6.13,6.13,0,0,1,2.79,1.32,10,10,0,0,0,4.15,1.83c1.53.43,3.1.73,4.16,2.05a4.23,4.23,0,0,0,1.62,1.15c1.05.49,2.39.64,3.16,1.39,1.65,1.6,3.84,1.82,5.77,2.59,2.54,1,5.38,1.05,8,1.69,2.17.53,4.34.24,6.51.36a3.85,3.85,0,0,1,1.06.1,10.09,10.09,0,0,0,3.32.76C233.09,240.62,234.79,239.88,236.46,240.29ZM145,212.72c.41,0,.68-.25,1-.32a37.57,37.57,0,0,0,3.83-.88,14.89,14.89,0,0,1,4.74-.67,7.71,7.71,0,0,0,1.67-.07,16.71,16.71,0,0,1,4.81-.75,7.72,7.72,0,0,0,2-.05,15.31,15.31,0,0,1,7.06,0,7.63,7.63,0,0,0,2,.52,35,35,0,0,1,8.76,1.19c.69.16,1.23.61,1.92.8a17.24,17.24,0,0,1,4.83,1.72,26.75,26.75,0,0,0,4.34,2.27c1.92.82,3.82,1.75,5.7,2.67,2.73,1.34,5.08,3.33,8,4.29,2.27.73,4.1,2.6,6.77,2.46a4,4,0,0,1,2.66,1.19,3.61,3.61,0,0,0,3.08.93c1.85-.59,3.22.16,4.71.84a1.44,1.44,0,0,0,1.38,0,2.35,2.35,0,0,1,1.59-.33c2.35-.13,4.69.13,7,.06,1.83-.07,3.63-.54,5.45-.36s3.55-.77,5.38-.48a.86.86,0,0,0,.44-.15,4.21,4.21,0,0,1,2.46-.58c2.36.35,4.4-.9,6.58-1.39a6.08,6.08,0,0,0,1.94-.53c1.53-.89,3-1.93,4.46-2.87,1.23-.77,2.7-.93,3.95-1.61a46,46,0,0,1,5.57-3.11,1.33,1.33,0,0,0,.93-1.83c-.4-1.76-.74-3.52-1.14-5.27-.3-1.34-.81-1.57-1.81-.62a23.57,23.57,0,0,1-4.55,2.94,41.37,41.37,0,0,1-6.95,3c-1.54.57-3.27.58-4.67,1.56-.4.27-.94.23-1.33.41a14.44,14.44,0,0,1-2.81.63,19,19,0,0,1-5.39.95c-2.38-.09-4.71.68-7.11.41-.18,0-.37.13-.56.14a11.36,11.36,0,0,1-4.75,0,6.55,6.55,0,0,0-3.11-.44,13.06,13.06,0,0,1-3.64,0,48.47,48.47,0,0,1-7.22-1.27c-.8-.18-1.41-.83-2.27-.82-1.13,0-2.22.11-3.2-.8-1.41-1.32-3.35-1.68-5.09-2.38-1.48-.59-2.66-1.68-4.15-2.24-1.09-.41-2.39-.51-3.23-1.31-2-1.92-4.57-2.84-6.92-4.09a59.52,59.52,0,0,0-8.8-3.29,35.12,35.12,0,0,0-11.41-1.6,3.27,3.27,0,0,1-1.42-.12,4.26,4.26,0,0,0-3.26-.14c-1.34.53-2.37-.13-3.52-.29a12,12,0,0,0-5,.06c-1.43.39-2.9.66-4.36.92a13.89,13.89,0,0,1-3.86.41c-.46,0-.6.33-.73.67A59.48,59.48,0,0,0,145,212.72Zm123.58,31a5.54,5.54,0,0,0-2.41.84c-1,.45-1.8,1.2-2.77,1.7a22.35,22.35,0,0,0-4.67,2.88,5.81,5.81,0,0,1-3.49,1.43c-1.95.1-3.52,1.3-5.4,1.54a28.61,28.61,0,0,0-3.7.93,17,17,0,0,1-6.42.88c-.13,0-.28.13-.41.21a4.24,4.24,0,0,1-3.64.29,14.35,14.35,0,0,0-6.83-.29c-1.06.17-2.23.57-3.25.12a17.29,17.29,0,0,0-6.3-1.21,5.11,5.11,0,0,1-1.27-.21,15.51,15.51,0,0,0-4.13-.93c-2.66,0-4.85-1.38-7.07-2.39-2.74-1.26-5.67-2.21-8.12-4.08a4.05,4.05,0,0,0-.79-.45,49.67,49.67,0,0,1-5.46-2.85,29.44,29.44,0,0,0-8.31-3.53,42.9,42.9,0,0,1-5.1-1.44,14.76,14.76,0,0,0-3.9-1.33c-3.08-.19-6.17-.1-9.26-.42a39.08,39.08,0,0,0-5.18.26c-2.53.08-5,.77-7.55.51a.74.74,0,0,0-.47.07,9.23,9.23,0,0,1-5.2,1.12,7.89,7.89,0,0,0-2.31.69c-.41.11-.5.41-.4.84a69.17,69.17,0,0,0,1.86,7.06c.08.25.29.73.4.63.71-.68,1.6-.29,2.37-.47,1.53-.36,3.08-.79,4.61-1a18.14,18.14,0,0,1,4.6-.43,1.22,1.22,0,0,0,.67-.15,2.34,2.34,0,0,1,2.14,0,3.75,3.75,0,0,0,2.68,0,6.69,6.69,0,0,1,4.21-.12c2.43.81,4.95.91,7.41,1.41,1.8.36,3.67.53,5.51.79a24.61,24.61,0,0,1,6.82,2.18,42.55,42.55,0,0,0,6.75,2.94,8.34,8.34,0,0,1,2.92,1.33,49.77,49.77,0,0,0,6,3.74c1.61.89,3.48.9,5.1,1.73a16.63,16.63,0,0,0,2.29,1.39c1.44.49,2.89.93,4.37,1.31a65.55,65.55,0,0,0,7,1.74c1.72.24,3.46.3,5.17.49a53.06,53.06,0,0,0,12-.37c1-.13,2.1-.17,3.12-.38,2.36-.49,4.72-1,7.06-1.64.57-.15,1.26-.1,1.72-.58,1-1,2.39-1.27,3.6-1.69,1.86-.65,3.75-1.2,5.55-2a10,10,0,0,0,1.4-1c.93-.58,2.13-1,2.64-2A55.78,55.78,0,0,0,268.57,243.7ZM159.34,189.39c-.83-.21-2.39.49-4,.51-.49,0-.68.36-.9.69a62,62,0,0,0-4.39,7.56c-.26.53-.89,1.16-.62,1.61.38.62,1-.09,1.61-.11a7.79,7.79,0,0,0,.84,0,15.41,15.41,0,0,0,3.05-.61,8.8,8.8,0,0,1,3.19-.49c2.09,0,4.21,0,6.27-.18a11.72,11.72,0,0,1,4.24.69c1.12.29,2.2,1.1,3.54.24.5-.33,1.5-.16,2.29-.14,1.18,0,2.31.34,3.45.44a14.91,14.91,0,0,1,3.81,1c1.34.51,2.7,1,4.07,1.44a58.45,58.45,0,0,1,6.93,2.88,53.73,53.73,0,0,1,5.21,3c1.19.7,2.28,1.78,3.56,2.07,2.31.52,4.2,1.9,6.36,2.7,1.88.71,3.63,1.71,5.7,1.94a4.12,4.12,0,0,1,2,.79,5.29,5.29,0,0,0,3.33,1.12c.61,0,1.28.28,1.78.28,1.2,0,2.3.63,3.59.36a4.84,4.84,0,0,1,2.89,0,6.15,6.15,0,0,0,3.81.45,9.47,9.47,0,0,1,2.57-.28c1.4,0,2.91.31,4.18-.1,1.76-.57,3.54-.2,5.32-.66,2.52-.67,5.16-.88,7.58-2,.54-.25.74-1,1.43-.91a8.47,8.47,0,0,0,4-.73,31.65,31.65,0,0,0,5.71-2.84,19.88,19.88,0,0,1,5.17-2.79c.82-.25,1-.54.76-1.34-.61-1.82-1.34-3.59-2.05-5.37-.28-.69-.83-.89-1.3-.61s-1.23.35-1.79.72c-1.61,1.06-3.31,2-4.93,3a6.75,6.75,0,0,1-1.94.66c-2.22.56-4.64.47-6.57,2-.82.66-1.9.13-2.72.51A23,23,0,0,1,242,208c-1.7.39-3.52.11-5.31.31a23.51,23.51,0,0,1-5.3-.07c-1-.12-1.87.38-2.79.15-2.94-.75-6,0-8.95-.72-1.45-.37-2.92-.73-4.4-1s-3.08-1.08-4.69-1.46a6.86,6.86,0,0,1-2.71-1,9,9,0,0,0-3.7-1.89,12.36,12.36,0,0,1-3.46-1.43,32.19,32.19,0,0,1-4.08-2.52c-1.08-.79-2.47-.8-3.49-1.69a19.93,19.93,0,0,0-5.73-3.11,66.91,66.91,0,0,0-6.93-2.15,34.06,34.06,0,0,0-9.13-1.69c-1.62,0-3.15-.59-4.75-.61C164.45,189,162.33,189.73,159.34,189.39ZM262,258.58a20.24,20.24,0,0,1-4,2.33c-.64.26-1.29,0-1.87.21-2.89,1.18-5.78,2.35-8.62,3.62a4.27,4.27,0,0,1-1.9.42,27.31,27.31,0,0,0-3.84,0,44.93,44.93,0,0,1-6.65.72c-2.68,0-5.36-.05-8,0a11.7,11.7,0,0,1-2-.19,53.1,53.1,0,0,0-7.84-1,1.43,1.43,0,0,1-.59-.08,24.13,24.13,0,0,0-4.11-1.42c-4-.9-7.34-3.33-11.13-4.71-1.55-.56-2.9-1.74-4.52-2.4-2.86-1.16-5.36-3-8.21-4.29-2-.87-4-1.65-6-2.31A32.13,32.13,0,0,0,172,247.83a2.2,2.2,0,0,1-.82-.1,15.67,15.67,0,0,0-5.55-1.14c-2.28-.08-4.5.43-6.75.44-1.72,0-3.38.58-5.11.42a.91.91,0,0,0-.35.07c-1.6.4-3.1,1.26-4.83,1.11-.83-.07-.94.25-.65,1a62.61,62.61,0,0,0,3.25,6.94c.12.23.18.55.54.57a19.4,19.4,0,0,0,6.89-1.05,5.36,5.36,0,0,1,3.3-.55,1.4,1.4,0,0,0,1.47-.21,1,1,0,0,1,1.12-.16c1,.39,2.06.47,3,.84a8,8,0,0,0,5.29.52,4.3,4.3,0,0,1,1.86,0,45.06,45.06,0,0,0,4.87,1,8.76,8.76,0,0,1,2.64.7c1.93.94,4,1.51,5.93,2.48a11.15,11.15,0,0,0,2.36.89c2.55.57,4.61,2.15,6.88,3.27,1.26.62,2.31,1.86,3.61,2.19,2.63.67,4.69,2.4,7.15,3.36,2.12.83,4.19,1.82,6.38,2.46a43.26,43.26,0,0,0,6.14,1.12c2.08.28,4.21.34,6.32.48,1.31.09,2.61.12,3.91.33a24.33,24.33,0,0,0,3.34.36,39.21,39.21,0,0,0,4.53-.35c1.37-.13,2.77-.18,4.11-.4a7.73,7.73,0,0,0,2.6-.53c1.21-.67,2.6-.86,3.84-1.44,1.52-.71,3.2-1,4.44-2.4a80.26,80.26,0,0,0,7.64-10A2.85,2.85,0,0,0,262,258.58ZM157,187.11a3.69,3.69,0,0,0,1,0c2-.67,4.14-.37,6.22-.42a3,3,0,0,1,1.33.29,6.41,6.41,0,0,0,3,.73,17.92,17.92,0,0,1,5.89.15c.56.13,1,.57,1.65.5a10.07,10.07,0,0,1,3.33.59c2.06.46,4.08,1.07,6.17,1.39a19.12,19.12,0,0,1,2.34.6,11.55,11.55,0,0,1,3.84,2.1c2.14,1.7,4.72,2.72,7.1,4a26.45,26.45,0,0,0,5.56,2.7,21.69,21.69,0,0,1,6,2.57,6.92,6.92,0,0,0,4.58,1.49,5.28,5.28,0,0,1,2.17.28,7.8,7.8,0,0,0,3.39.69,3.64,3.64,0,0,1,2.17.47,3.9,3.9,0,0,0,3,.14c.18,0,.35-.28.54-.18,1.43.76,3-.05,4.41.43,1.75.61,3.5-.23,5.19.33a.45.45,0,0,0,.36,0c1.14-.72,2.41-.25,3.61-.38a4.6,4.6,0,0,0,1.06-.09,8.31,8.31,0,0,1,3.4-.69c1.87.09,3.53-.73,5.26-1.25.91-.27,1.78-.65,2.72-.88a12.11,12.11,0,0,0,2.94-.94c1.4-.72,2.73-1.56,4.16-2.21,1.19-.53,2.4-1,3.53-1.64.44-.25,1.29-.48.8-1.4-1-1.83-2-3.63-3.19-5.35-.45-.66-.92-.6-1.51-.17a10.47,10.47,0,0,1-3.92,2.32c-1.68.36-3.17,1.29-4.95,1.42a23,23,0,0,0-2.52.45,38.13,38.13,0,0,1-5.17,1c-1.54.07-3.09,1.25-4.65.11-.05,0-.22.05-.31.12-.76.55-1.57.24-2.38.18s-1.69-.51-2.76,0a5,5,0,0,1-3.53.53,5.06,5.06,0,0,0-2.15-.39c-1.32.16-2.54-.4-3.8-.57a26.31,26.31,0,0,0-4.51-.62,4.44,4.44,0,0,1-2.65-.63,4.32,4.32,0,0,0-2.12-.59,12.39,12.39,0,0,1-4.7-1.1c-2.32-1.08-4.56-2.32-6.8-3.55-1.82-1-3.77-1.68-5.37-3.16a7.74,7.74,0,0,0-3.32-1.79,10.39,10.39,0,0,1-3.56-1.54,10.48,10.48,0,0,0-4-1.9,17.37,17.37,0,0,1-3.77-.95,11.64,11.64,0,0,0-5.86-1.33,1.1,1.1,0,0,1-.48,0,12,12,0,0,0-5.06-.77,2.79,2.79,0,0,1-1,0c-2.1-.75-4-.68-5.57,1.17a17.11,17.11,0,0,1-1.31,1.24A59.49,59.49,0,0,0,157,187.11Zm90.23,88.61a6.48,6.48,0,0,0-4.14.46,26.78,26.78,0,0,1-4.17,1c-1.88.31-3.82.31-5.73.45a1.16,1.16,0,0,0-.57.1c-.48.36-.85.23-1.4,0a8.91,8.91,0,0,0-5.1-.91,7.47,7.47,0,0,1-2.63.06c-2.26-.32-4.56-.08-6.85-.39a23.68,23.68,0,0,1-5.43-1.55c-1.25-.48-2.09-1.6-3.28-2.13-2.56-1.15-5.17-2.21-7.75-3.31a11.91,11.91,0,0,1-4.8-3.07,6.6,6.6,0,0,0-2.73-1.65,10.9,10.9,0,0,1-3.1-1.51,5.22,5.22,0,0,0-3.16-1.17c-2.84-.05-5.25-1.65-8-1.94-1.29-.14-2.65-.87-3.9-.93-2.52-.12-5-.84-7.54-.55a1.37,1.37,0,0,1-1.14-.15,1.65,1.65,0,0,0-1.61-.16c-1.81.67-3.72.15-5.58.68-1.5.42-3.2.05-4.81.44-.69.16-.82.24-.43.85a68.5,68.5,0,0,0,4.49,6.21,4.63,4.63,0,0,0,5,1.3,5.25,5.25,0,0,1,2.54-.3c3.26.25,6.54-.26,9.79.4a14.13,14.13,0,0,1,3.68.95A19.83,19.83,0,0,0,182.6,270c1.37.4,2.89.48,4.17.92,2.67.92,5,2.57,7.57,3.85,1.51.77,3,1.68,4.49,2.53,1.34.76,3,1,4.12,2.07a8.27,8.27,0,0,0,3,1.45c2.59,1,5.17,2.08,7.72,3.19a12.39,12.39,0,0,0,5.45,1.37,12.15,12.15,0,0,1,4.37.68,8.86,8.86,0,0,0,6.23-.08,64.39,64.39,0,0,0,16.35-9.15A3.34,3.34,0,0,0,247.24,275.72ZM168.87,175.44c2.27.12,4.23-.26,6,.82a1.92,1.92,0,0,0,1.18.43c1.55-.13,2.89.82,4.45.92s3,.85,4.46,1a9.06,9.06,0,0,1,3.18,1.28c1.55.83,2.95,2,4.85,2a2.18,2.18,0,0,1,1.37.61,34.25,34.25,0,0,0,4.84,3c2.22,1.38,4.67,2.32,6.86,3.81a18.49,18.49,0,0,0,5.4,2.28c1.59.45,3.27.08,4.81.77a14.44,14.44,0,0,0,2.88,1.11,32.21,32.21,0,0,0,7.91.8c1.66-.09,3.35-.14,5-.34,1.08-.14,1.95.5,3,.49,2.73,0,5.41-.77,8.15-.47a1.54,1.54,0,0,0,.57-.14,27.5,27.5,0,0,1,6.42-1.49,9.37,9.37,0,0,0,2.66-.67c1.84-.74,3.37-2,5.18-2.77.54-.23.55-.41.22-.84-1.34-1.75-2.75-3.43-4.23-5.06-.37-.41-.87-.54-1.13-.28-.56.57-1.19.29-1.78.38a7.23,7.23,0,0,0-1.29.13,29,29,0,0,1-4,1c-1.23.2-2.48.17-3.72.43a40.85,40.85,0,0,0-6,1.2,1.94,1.94,0,0,1-1.3-.06,10.65,10.65,0,0,0-5.35-.5,33.89,33.89,0,0,1-9.29-.64c-.64-.11-1.23-.78-1.85-.8a18.1,18.1,0,0,1-5.31-.77,10.28,10.28,0,0,1-3.38-1.41,5.58,5.58,0,0,0-2.58-1,11,11,0,0,1-4.73-2,33.23,33.23,0,0,0-6.23-3.55,25.72,25.72,0,0,1-4.94-2.71,12.39,12.39,0,0,0-3.8-1.8c-1.46-.44-2.89-.9-4.33-1.43-1.16-.43-2.47-1.13-3.88-.19s-3.16,1.7-4.71,2.62A45.79,45.79,0,0,0,168.87,175.44Zm82.62,5.24c-.09-.24-.1-.37-.17-.44a59.41,59.41,0,0,0-8.78-7,1.71,1.71,0,0,0-1.59,0,10.33,10.33,0,0,1-3.69.78,47.27,47.27,0,0,1-5.17-.46,9.69,9.69,0,0,0-3.15.23,14.54,14.54,0,0,1-4.59-.19,65.24,65.24,0,0,1-7.93-1.22c-2.45-.64-5-1-7.11-2.47-1.26-.9-2.82-.9-4.19-1.51s-2.77-1.65-4.31-2.19a9.32,9.32,0,0,1-2.13-1.09c-1.42-1-2.82-1.65-4.66-1.17a70.5,70.5,0,0,0-9.93,3c2.87.86,5.56,1.68,7.79,3.49.8.64,1.86.69,2.75,1.16,2.78,1.46,5.26,3.49,8.23,4.58,1.42.52,2.68,1.35,4.13,1.81a22.29,22.29,0,0,1,3.33,1.29c2.55,1.31,5.34,1.65,8.07,2.17,1.78.34,3.61.59,5.37,1,2.7.6,5.41-.1,8.07.48,1.28.28,2.53-.29,3.83-.22,1.79.11,3.6,0,5.39,0s3.72,0,5.4-1.21C247.87,180.44,249.69,180.76,251.49,180.68Zm-30,107.56c-1.38-.31-2.8-.1-4.17-.53a29.26,29.26,0,0,1-3.66-1c-.48-.22-.94-.49-1.44-.68-1.7-.67-3.6-.75-5.21-1.66s-3.16-1.29-4.57-2.2-2.85-2-4.32-2.85a46,46,0,0,0-7-3.71,14.4,14.4,0,0,0-1.77-.84,29.89,29.89,0,0,1-6.16-2c-2.13-1-4.48-1.25-6.68-2-2.77-.94-5.79-.06-8.66-.78-2.14-.53-4.36.65-6.55,0,0,0-.08.1-.15.21.29.3.57.63.88.94a66.45,66.45,0,0,0,10.68,8.68,3.34,3.34,0,0,0,2.13.63,27.12,27.12,0,0,1,4.2-.15c3.39.35,6.43,2,9.53,3.34a35.63,35.63,0,0,0,3.89,1.64,17.63,17.63,0,0,1,5.93,3.45,3.47,3.47,0,0,0,2,.91,69.63,69.63,0,0,0,13.77,0A35.18,35.18,0,0,0,221.48,288.24ZM200.69,162.85c.52.73.52.72,1,1a35.86,35.86,0,0,0,7.15,2.87c2,.56,3.87,1.71,5.86,2.49,1.57.61,3,1.74,4.81,1.43a.83.83,0,0,1,.46.09,6.07,6.07,0,0,0,2.92.66c3.78-.07,7.57.21,11.35,0,1.66-.1,3.34.75,5.09-.19A63.84,63.84,0,0,0,200.69,162.85ZM179.24,283.26a43.16,43.16,0,0,0,13.66,4.86C188.18,287,184.05,284.17,179.24,283.26Z"/><circle class="cls-4" cx="191.03" cy="226.02" r="64.71"/><path d="M257,228.93c-.24,2.14-.42,4.28-.71,6.41a64,64,0,0,1-16.64,35.32c-11,11.89-24.54,19-40.61,20.78-20.71,2.27-38.79-3.83-53.8-18.38a64,64,0,0,1-19-37.11,56,56,0,0,1-.66-7.76,2.17,2.17,0,0,0-.15-1.18v-1.44a2.21,2.21,0,0,0,.15-1.17,61,61,0,0,1,1.21-10.94,65.79,65.79,0,0,1,53.57-52c2.64-.45,5.31-.53,8-.94h5.76c2.41.28,4.84.45,7.24.83a65.72,65.72,0,0,1,54.93,55.76c.29,2.09.47,4.2.71,6.29ZM159.3,281.21c-1.26-1.22-.41-2.32.08-3.36a3.24,3.24,0,0,1,3.18-1.8c1.35.32,3.14,2.35,3.2,3.54.07,1.53-1,2.41-1.9,3.32-.5.49-.52.68.12,1a69.53,69.53,0,0,0,7,2.81c.27.09.56.31.86,0a4.27,4.27,0,0,1,4.34-1.36c1.25.21,2.73,1,2.71,2.17,0,1.71,1.09,1.52,2.08,1.71.31.06.63.1.95.14a65.32,65.32,0,0,0,21.83-.53c.8-.16,1.12-.47,1-1.24a2.92,2.92,0,0,1,.45-2c.35-.6,2.56-2.07,2.94-1.84,1,.63,2.29,1.16,2.87,2.1s1,.73,1.69.49a63.11,63.11,0,0,0,12.68-6.2c.74-.47,1.72-.79,1.15-2-.11-.25.05-.59.19-.9a7.83,7.83,0,0,1,1.8-2.16c1.14-1.23,1.64-1.35,3-.44.7.45,1,.26,1.49-.17a64.75,64.75,0,0,0,8.49-8.95c.74-.95.64-1.38-.48-1.93-2-1-2.44-4.54-.75-6a1.41,1.41,0,0,1,1-.39c.88,0,1.77-.06,2.64,0a1.51,1.51,0,0,1,1.51,1.5c0,.25-.11.54.22.76.16-.24.29-.43.41-.63a61.94,61.94,0,0,0,7.35-18.38c.19-.83,1-2.08-.94-1.95-.06,0-.13-.08-.2-.12a4.41,4.41,0,0,1-1.55-4.64,4.7,4.7,0,0,1,3.41-2.36c.6,0,.74-.2.74-.74,0-2.16.12-4.32.12-6.47,0-1.09-.14-2.18-.22-3.37a7.6,7.6,0,0,0-.88.48c-2,1.52-4.51.54-5.35-1.84-.5-1.4.73-4,2.22-4.13a11.16,11.16,0,0,1,3.31.1c-.08-.48-.13-1-.22-1.42a64,64,0,0,0-49.08-50,3.11,3.11,0,0,0-2.14.23c-2.13,1.07-2.6,1-4.31-.68a2.79,2.79,0,0,0-1.93-.78,71.12,71.12,0,0,0-12.21.21c-1.3.15-1.32.15-.76,1.32a3.18,3.18,0,0,1-.71,4,10,10,0,0,1-2.53,1.34c-.56.22-.91-.47-1.29-.73-1.7-1.17-2.91-2.72-1.94-4.59a3,3,0,0,0-1.4.21c-2.59.67-5.1,1.6-7.64,2.44a44.69,44.69,0,0,0-7.16,3.48A62.61,62.61,0,0,0,131.91,203c-.27.68-.64,1.32,0,2.09.21.26,0,.84-.13,1.33-.35,1-1.45,1.31-1.74,2.25a58.26,58.26,0,0,0-1.94,9.25c-.09.63.08,1,.64,1.15,1.22.28,1.47,1.41,2,2.26.16.25.69.48.43.88-.69,1.05-1.24,2.3-2.64,2.61a1.16,1.16,0,0,0-1,1.26c0,.52.07,1,.08,1.55A62.75,62.75,0,0,0,133.37,253c.31.68.42,1,1.14.23.87-.93,1.73-2.22,3.37-1.61,1,.37,1.59,1.28,2.37,1.94a2.18,2.18,0,0,1,.42,2.7,5.82,5.82,0,0,1-3.89,3.09,62.45,62.45,0,0,0,9.37,12c.17.16.32.5.67.2,1.35-1.17,2.55-.68,3.84.2,1.57,1.07,2.05,2.44,1.15,4-.17.29-.18.51.08.72A43.19,43.19,0,0,0,159.3,281.21Z"/><path d="M192.27,227a1.53,1.53,0,0,1-.64,1.59c-.54.44-.95,1.08-1.51,1.49-1.33,1-2,1.36-3.43-.07-2.95-2.9-2.42-3.6.27-6.3a10.08,10.08,0,0,1,2.95-1.54c.26-.12.76-.1.75.33a5,5,0,0,0,1.19,2.75A2,2,0,0,1,192.27,227Z"/><path d="M247.39,205.71c0,1.71-2.37,4.2-3.92,4.28-.23,0-.56,0-.69-.07a23.61,23.61,0,0,1-3-3,1.67,1.67,0,0,1,0-2.06,6.75,6.75,0,0,1,3.71-2.78,1.41,1.41,0,0,1,1.47.54c.6.67,1.25,1.31,1.91,1.92A1.19,1.19,0,0,1,247.39,205.71Z"/><path d="M152.13,209.83a1.34,1.34,0,0,1,.53-1.35c.84-.77,1.61-1.62,2.44-2.41a1.26,1.26,0,0,1,2,0c.71.74,1.43,1.45,2.2,2.12a1.77,1.77,0,0,1,.44,2.5,7.25,7.25,0,0,1-2.58,2.58,2.27,2.27,0,0,1-2.87-.46c-.55-.5-1-1.13-1.57-1.58A1.33,1.33,0,0,1,152.13,209.83Z"/><path d="M193.31,211.22a3.63,3.63,0,0,1,3.42,2.16c.28.56,1.25,1.06.67,1.69-1,1-1,2.91-2.92,3-.84,0-1.43.72-2.19,1-.37.14-.67.34-.78-.23a10.58,10.58,0,0,0-1.24-2.58A3.49,3.49,0,0,1,193.31,211.22Z"/><path d="M209.22,253.31a1.42,1.42,0,0,1,.54-1.37c.68-.61,1.29-1.29,1.93-1.92a1.85,1.85,0,0,1,2.61,0c.63.57,1.43,1,2,1.58,1.18,1.25,1.08,2.06.15,3.27a15.36,15.36,0,0,1-2.64,2.19,1.39,1.39,0,0,1-1.9,0C210.77,256,209.32,255.12,209.22,253.31Z"/><path d="M199.56,236.4c0-1.35,2.52-4.22,3.63-4.15,1.3.08,3.67,2.72,3.57,4.11-.11,1.69-1.45,3.94-3.45,3.85C201.69,240.14,199.56,238,199.56,236.4Z"/><path d="M182.53,257.17c1.35,0,3.56,1.93,3.69,3.22a3.83,3.83,0,0,1-2.23,3.12,3.83,3.83,0,0,0-2.05,1.29c-.27.32-.64.57-.84.15-.49-1.06-1.5-1.67-2.07-2.63C177.72,260.13,180.09,256.68,182.53,257.17Z"/><path d="M179.54,276.43c-2.14.37-2.77-1.63-4-2.6-.21-.16-.16-.63,0-.91.83-1.41,1.62-2.88,3.57-2.94,0,0,.09,0,.11,0,.5-.47,1.43-1.18,1.66-1a7.26,7.26,0,0,1,1.77,2.36c.92,1.83.28,4.19-1.32,4.94A5.06,5.06,0,0,1,179.54,276.43Z"/><path d="M156.5,184.73c0,1.52-1.07,2.13-2,2.74-2.75,1.86-5.26-.38-6-2.72a.72.72,0,0,1,0-.58c1-1.1,1.82-2.48,3.19-3s2.82.31,3.67,1.51C155.86,183.32,156.67,183.91,156.5,184.73Z"/><path d="M215.23,180.53c.24,2.26-1.79,3.19-3.85,3.29-1.59.07-3.8-2-3.79-3.37s2.62-3.37,4.61-3.37S215.23,178.44,215.23,180.53Z"/><path d="M167.36,236.64c-.29-1.69,2.09-3.82,3.3-4a3.06,3.06,0,0,1,2.92,1.6,4.18,4.18,0,0,1-.35,5.16,2.56,2.56,0,0,1-3.18.45C168.75,239.11,167.58,238.26,167.36,236.64Z"/><path d="M217.17,270.6a1.41,1.41,0,0,1-.59,1.44c-.58.47-1,1.07-1.61,1.54-1.37,1.15-2.36,1.1-3.67-.17a12,12,0,0,1-1.51-2.31.54.54,0,0,1-.1-.2c-.21-1.58,2-4.07,3.61-4.13a1.63,1.63,0,0,1,1.47.57,13,13,0,0,0,1.81,1.82A1.4,1.4,0,0,1,217.17,270.6Z"/><path d="M233.69,224.92a3.62,3.62,0,0,1,3.58,3.52,4.19,4.19,0,0,1-2.32,3.29c-1.66,1-1.72.94-3-.45-.77-.82-1.9-1.36-1.8-2.85A3.71,3.71,0,0,1,233.69,224.92Z"/><path d="M167.74,195.38c0,2.39-1.48,4.3-3.4,4.18C163,199.48,160.81,198,161,196s.81-3.75,3.55-3.62C166.91,192.46,167.74,193.16,167.74,195.38Z"/><path d="M175.39,219.73c0,1.46-2.11,3.53-3.6,3.53a3.81,3.81,0,0,1-3.6-3.58c0-1.54,2.22-3.88,3.73-4S175.39,218.1,175.39,219.73Z"/><path d="M169.73,266.27a3.56,3.56,0,0,1-3.58,3.24c-1.71,0-3.92-2-4-3.57,0-.82.66-1.11,1-1.63a3.72,3.72,0,0,1,3.66-1.59C168.64,262.88,169.74,264.1,169.73,266.27Z"/><path d="M190.35,241.88a1.75,1.75,0,0,1,1.77.76c.41.47.93.85,1.33,1.33a1.9,1.9,0,0,1,.42,2.41,6,6,0,0,1-3.64,2.6c-1,.32-3.82-1.88-3.94-2.89a1.83,1.83,0,0,1,.47-1.75c.72-.66,1.41-1.36,2.07-2.08C189.25,241.81,189.75,241.88,190.35,241.88Z"/><path d="M198.35,255.13a2.64,2.64,0,0,1,3.18,1.44,3.57,3.57,0,0,1,0,3.64c-.08.13-.07.33-.17.42-1.73,1.53-5,.92-6.36-.92-.89-1.19-.9-2,.21-2.85.36-.28.29-.7.53-1C196.46,254.86,197.45,255.17,198.35,255.13Z"/><path d="M224.11,261c.1-.69-.25-1.54.54-2.23a6,6,0,0,1,2.71-1.48c.45-.08,1.06.34,1.48.78.93,1,2,1.81,1.75,3.49s-1.9,3.6-3.45,3.64S224.11,263.06,224.11,261Z"/><path d="M173.42,251.85a3.41,3.41,0,0,1-5.15,3.24,2.91,2.91,0,0,1-1.24-2.22c-.39-3.17.1-3.41,2.82-4.88.5-.27.72.11,1,.28C172.63,249.2,173.42,250.33,173.42,251.85Z"/><path d="M154.48,258.85c0,1.29-2,3.74-3.21,4a3.89,3.89,0,0,1-3.09-1.8,4.83,4.83,0,0,1,.67-4.89c.9-1.1,1.52-1.61,3.2-.59C153.25,256.31,154.57,257.11,154.48,258.85Z"/><path d="M241.31,239.83a2.46,2.46,0,0,1,2.84,1.68,1,1,0,0,0,.17.3c.58.51,1.44,1,1.06,1.88a8.34,8.34,0,0,1-1.64,2.36c-.5.54-1.34.14-2,.33a3.33,3.33,0,0,1-3.69-1.71,3.3,3.3,0,0,1,.92-3.83C239.66,240.18,240.3,239.49,241.31,239.83Z"/><path d="M196.3,177.75c0,2.42-1.11,3.68-3.17,3.68s-3.26-1.31-3.26-3.65c0-1.93,1.69-4,3.29-3.86,1.07.1,1.8,1,2.62,1.6S196.17,177.07,196.3,177.75Z"/><path d="M219.07,198.39c-1.55,0-4.06-1.66-4.12-3a3.59,3.59,0,0,1,1.57-2.84c2-1.52,5.69-.26,6.31,2.17.2.76-.42,1.28-.77,1.84a12.06,12.06,0,0,0-.94,1.3C220.7,198.73,219.73,198.3,219.07,198.39Z"/><path d="M143.08,217.33a3.75,3.75,0,0,1,3.75,4.28,2.49,2.49,0,0,1-1,1.28,4.5,4.5,0,0,1-5.39.18,2.6,2.6,0,0,1-.24-4.12C141.08,218.15,141.72,216.86,143.08,217.33Z"/><path d="M196,197.53c0-2.38.73-3.14,3-3.14s3.28,1.09,3.33,3.26c.09,3.19-.73,2.79-3.16,4.13-.28.15-.31,0-.46-.1A4.15,4.15,0,0,1,196,197.53Z"/><path d="M153.29,245.82c-2.5,0-3.17-.6-3.17-2.85,0-1.84,1.93-4.46,3.36-4.33a5.21,5.21,0,0,1,2.36,1.33,3.17,3.17,0,0,1,1.12,2.89C156.78,244.8,155.68,245.82,153.29,245.82Z"/><path d="M212.43,224.71c0-2.33,1.09-3.78,2.82-3.78a3.64,3.64,0,0,1,3.58,3.73c0,1.41-2,3.86-3.14,3.88C214.08,228.56,212.43,226.62,212.43,224.71Z"/><path d="M188.35,285.37c0-2.32,1.16-3.83,2.93-3.69,2.37.19,3.25.84,3.39,3.76.1,1.93-1.57,3.87-3.18,3.8-1.14,0-1.71-1.12-2.6-1.63S188.51,286,188.35,285.37Z"/><path d="M226.46,242.64c.15,1.1.11,2.36-1.56,3a4.26,4.26,0,0,1-4.2-1,1.05,1.05,0,0,1-.19-.68v-1.43c0-2.41.71-3.43,3-4.22.89-.31,2.94,1.19,3,2.22C226.49,241.13,226.46,241.73,226.46,242.64Z"/><path d="M143.76,196.36c2.23-.23,3.27.71,3.09,3.26-.12,1.79-1.63,3.58-3.26,3.57-2,0-3.16-1.42-3.16-3.77S141.27,196.36,143.76,196.36Z"/><path d="M196.29,274.38a1.45,1.45,0,0,0-.36,0c-1.63.45-2.45-.64-3.15-1.77-.48-.79-.3-1.46.23-2.42,1.07-1.94,2.6-1.92,4.35-1.84a2.28,2.28,0,0,1,2.49,1.94,5,5,0,0,1-.15,2.56C199.06,274.59,197.69,274.47,196.29,274.38Z"/><path d="M231.79,188c0-1-.09-2.25,1-2.82a5,5,0,0,1,4.25,0,1.78,1.78,0,0,1,.89,1.31c.41,1.69.27,3.69-1.4,4.72-1.08.66-1.95,1-3.08.31A3.86,3.86,0,0,1,231.79,188Z"/><path d="M169.46,177.38c-.8-1.8.88-2.47,2-3.29s1.95.31,2.76.86a2.31,2.31,0,0,1,1.18,2.48,2.76,2.76,0,0,0,0,.95,2.3,2.3,0,0,1-1.62,2.85,3.54,3.54,0,0,1-3.4-.56C169.24,179.86,169.38,178.71,169.46,177.38Z"/><path d="M230.87,215.67c-2.45,0-3.34-.62-4.15-2.81,0-.07-.12-.12-.13-.18,0-.69,2.13-3,2.85-3s1.19,0,1.79,0c1.63,0,2.49.58,2.89,1.93a4.22,4.22,0,0,1-1.25,3.9C232.22,215.89,231.47,215.57,230.87,215.67Z"/><path d="M183.56,192.71a2,2,0,0,1-2.48-1.18,4.37,4.37,0,0,1,0-3.94c.34-.68,1.07-.83,1.69-1.06a3.29,3.29,0,0,1,4.31,1.52c.36.57,1.09,1.09,1,1.7-.08.91-1,1.4-1.56,2.12C185.81,192.9,184.76,192.71,183.56,192.71Z"/><path d="M160.07,227.79c0,.91.15,1.81-.75,2.58-1.09.95-2.29.66-3.37.44a2.17,2.17,0,0,1-1.9-2.18c0-.85-.52-1.65-.08-2.59a3.2,3.2,0,0,1,3.75-1.87,3,3,0,0,1,2.34,3.14C160.06,227.47,160.06,227.63,160.07,227.79Z"/><path d="M137.9,240.2c-1.94,0-3.15-.84-3.05-2.24.19-2.68.6-4.2,3.37-4.17a3.17,3.17,0,0,1,3.36,3.24C141.57,239.11,140.31,240.2,137.9,240.2Z"/><path d="M210.08,213.59c-1.86.31-3-.94-2.87-3s1.23-3.31,3.13-3.32,3.21,1.26,3.26,3.43C213.64,212.66,212.67,213.85,210.08,213.59Z"/><path d="M180,210c-2.67,0-4.24-2.15-3.25-4.47a2.1,2.1,0,0,1,2.05-1.49c.68.05,1.36,0,2,0a2.31,2.31,0,0,1,2.24,2.24c0,1.43.09,2.85-1.59,3.55C180.87,210.07,180.34,209.87,180,210Z"/></g></g></svg>