<svg xmlns="http://www.w3.org/2000/svg" viewBox="0 0 768.17 569.03"><defs><style>.cls-1{fill:none;}.cls-1,.cls-2,.cls-3,.cls-4,.cls-5,.cls-6{stroke:#222221;stroke-linecap:round;stroke-linejoin:round;stroke-width:2px;}.cls-2{fill:#222221;}.cls-3{fill:#b7d9e4;}.cls-4{fill:#68a8de;}.cls-5{fill:#eabd7c;}.cls-6{fill:#fff;}</style></defs><title>Element 77</title><g id="Ebene_2" data-name="Ebene 2"><g id="Ebene_1-2" data-name="Ebene 1"><circle class="cls-1" cx="88.29" cy="496.41" r="16.34"/><circle class="cls-1" cx="88.29" cy="496.41" r="16.34"/><circle class="cls-2" cx="88.29" cy="496.41" r="16.34"/></g><g id="squiggle"><path class="cls-1" d="M469.13,378c41.73-40,88.52-76,142.19-97.51,11.09-4.46,26-7.34,33.18,2.2,3.7,4.89,3.9,11.52,3.57,17.65a152,152,0,0,1-4.35,28.85c-1.84,7.32-4.24,14.68-3.79,22.21s4.58,15.47,11.79,17.69c6.22,1.91,12.82-.8,18.76-3.46L696.54,354c9.73-4.35,21.15-9.28,31.81-9s14.76,1.33,16.76,11.8c1.59,8.38-6.11,29.5-3.77,37.7,2,7.2,16.33,12.41,25.83,6.75"/></g><g id="hand"><path class="cls-3" d="M384.41,568H327s-3.54-33.61-5-44.79c-1.31-10.27,1.79-21.85-13.81-22.3S285,500.39,272.55,485s-17.34-15.39-24.67-15.84c-9.75-.65-30.95,1-39-1.25s-5.35-13.15,10.71-16,39.44-.68,42.93-.91,16.83-3.56,17.51-20.09-10.47-21.34-17.51-22.73c-11.69-2.32-41.83-2.45-47.64-2.9s-14.49-4.46-14.49-9.37,3.35-5.12,3.35-5.12,23.27,1,42,1.49c6.51.17,12.46.29,16.74.29,1.54,0,3.06.05,4.53.16h0a71.92,71.92,0,0,1,20.25,4.3s.08,0,.09.06c1.58.65,2.67,1.14,3.19,1.35l.34.13s8.64,5.33,20.07,13.52c10.94,7.86,24.48,18.33,35.33,29.2,22.19,22.19,19.32,32.46,22.19,46.6C372.64,507.88,384.41,568,384.41,568Z"/><path class="cls-1" d="M290.63,398.42c-.52-.21-1.61-.7-3.19-1.35A27,27,0,0,1,290.63,398.42Z"/><path class="cls-3" d="M287.35,397a71.92,71.92,0,0,0-20.25-4.3h0c-1.47-.11-3-.16-4.53-.16-4.28,0-10.23-.12-16.74-.29C237.41,388,224.54,381.48,219,378.5a15.21,15.21,0,0,1-7.22-10.09c-1.09-6.61,4.47-3.79,6.85-2.53,7.77,4.07,21.85,10.51,35.54,16.63h0C267.89,388.6,281.19,394.36,287.35,397Z"/><path class="cls-3" d="M311,412.07C299.61,403.88,291,398.55,291,398.55l-.34-.13a27,27,0,0,0-3.19-1.35s0,0-.09-.06c-6.16-2.65-19.46-8.41-33.16-14.5,9.29-.09,25.06-.17,33.77.06,12.83.33,14,9.86,17,15.36C306.91,401.63,309.51,408.17,311,412.07Z"/><path class="cls-1" d="M290.63,398.42c-.52-.21-1.61-.7-3.19-1.35A27,27,0,0,1,290.63,398.42Z"/></g><g id="pfeil"><polygon class="cls-2" points="295.75 16.91 281.97 24.87 268.19 32.83 268.19 16.91 268.19 1 281.97 8.96 295.75 16.91"/><line class="cls-1" x1="232.05" y1="16.91" x2="168.55" y2="16.91"/><line class="cls-1" x1="148.4" y1="16.91" x2="123.66" y2="16.91"/></g><g id="triangle"><polygon class="cls-2" points="604.76 129.67 592.08 137 579.39 144.32 579.39 129.67 579.39 115.02 592.08 122.35 604.76 129.67"/><polygon class="cls-2" points="677.82 97.43 665.13 104.75 652.45 112.08 652.45 97.43 652.45 82.78 665.13 90.11 677.82 97.43"/><polygon class="cls-2" points="596.6 49.68 583.91 57.01 571.23 64.33 571.23 49.68 571.23 35.03 583.91 42.36 596.6 49.68"/><polyline class="cls-1" points="564.68 74.78 533.26 129.67 592.08 129.67"/><polyline class="cls-1" points="618.15 129.67 677.82 129.67 660.18 97.43"/><polyline class="cls-1" points="646.31 74.78 606.72 3.36 581.01 49.68"/></g><g id="desktop"><path class="cls-1" d="M432.78,69.48V287.87h11.4V69.48Z"/><path class="cls-4" d="M98.62,69.46V287.87H432.78V69.48Z"/><rect class="cls-2" x="432.78" y="69.48" width="11.4" height="218.4"/><rect class="cls-5" x="233.55" y="127.54" width="98.74" height="20.54"/><rect class="cls-5" x="291" y="168.4" width="98.75" height="20.56"/><rect class="cls-5" x="233.55" y="209.27" width="98.74" height="20.56"/><line class="cls-1" x1="466.6" y1="215.48" x2="387.38" y2="215.48"/></g><g id="mobile"><path class="cls-6" d="M1,467.87V525H175.55V467.87Zm87.29,44.88a16.35,16.35,0,1,1,16.34-16.34A16.34,16.34,0,0,1,88.29,512.75Z"/><path class="cls-6" d="M1,184.34V467.87H175.55V184.34a5.67,5.67,0,0,0-5.67-5.67H6.67A5.67,5.67,0,0,0,1,184.34ZM156.34,391H21V202.91H156.34Z"/><path class="cls-3" d="M21,202.91V391H156.34V202.91ZM125.1,318.19,88.28,339.45,51.47,318.19V275.7l36.81-21.26L125.1,275.7Z"/><path d="M156.63,376.12l-5.75.08a32.36,32.36,0,0,0-12.61,3.05c-2,.9-3.82,2.18-5.9,3-1.62.64-3,1.77-4.72,2.39a61.67,61.67,0,0,1-8,2.21,49.91,49.91,0,0,1-10.34.63,22.92,22.92,0,0,1-7.91-1.51c-2.86-1-5.82-2-8.35-3.92a5.73,5.73,0,0,0-2.5-1.09,4.5,4.5,0,0,1-1.79-.89,15.22,15.22,0,0,0-7-2.67c-1.56-.25-3-.84-4.64-1s-3,.07-4.48-.1c-1.13-.13-2.35.06-3.52-.08-2.1-.25-3.93.86-5.94,1.09-2.72.31-5,1.74-7.31,3-1.33.71-2.88.91-4.14,1.78-.72.5-1.45,1-2.19,1.45a29.56,29.56,0,0,1-7.38,2.94,29.79,29.79,0,0,1-6.81,1,42.35,42.35,0,0,1-12.39-1c-.72-.16-1.92-.05-1.71-1.45,0-.27,0-.54.46-.46a9.23,9.23,0,0,1,3,.65,3.6,3.6,0,0,0,1.6.43c2.89.07,5.78.09,8.67.26,1.83.1,3.52-.49,5.27-.7a42.21,42.21,0,0,0,6-1.68,17.32,17.32,0,0,0,4.34-2.18,42.56,42.56,0,0,1,9.58-4.75c2.83-.9,5.75-1.81,8.85-1.54a38.28,38.28,0,0,0,5.12-.27,41.73,41.73,0,0,1,6.14.59c1.26.13,2.44.73,3.73.68a.89.89,0,0,1,.46.1c3.86,2.3,8.11,3.83,12,6.09a27.3,27.3,0,0,0,9,2.91,8.77,8.77,0,0,1,1.15.28,6.31,6.31,0,0,0,3.4.27,7.71,7.71,0,0,1,3.1,0c2.91.59,5.72-.11,8.49-.66a28,28,0,0,0,10.89-4.53c4-2.85,8.51-3.66,12.95-5,2.53-.79,5.13-.3,7.63-1.06,1.16-.35,2.34.24,3.5.53Z"/><path d="M156.63,245.8c-1.82-.08-3.59.36-5.45.17a26.49,26.49,0,0,0-5.43.52c-4.22.47-7.79,2.5-11.4,4.55-1.88,1.07-4,1.76-5.92,2.8-3.85,2.07-8,2.77-12.33,3.12a33.35,33.35,0,0,1-5.29.21,24.66,24.66,0,0,1-6.15-1,4.29,4.29,0,0,0-1.41-.17,5.77,5.77,0,0,1-3.25-1,11.49,11.49,0,0,0-2.88-1.41,19.67,19.67,0,0,1-3.41-1.69,56.46,56.46,0,0,0-9.08-4.26c-1.7-.6-3.43-1.48-5.25-1.4-2.35.11-4.65-.33-7-.26-2.52.07-5.07-.32-7.55.43a13.33,13.33,0,0,0-2.07.52c-2.63,1.3-5.55,1.85-8.07,3.47-2.07,1.32-4.39,2.25-6.56,3.41a33.63,33.63,0,0,1-9.24,2.94,19.37,19.37,0,0,1-8.77.12,10.77,10.77,0,0,0-2.72-.05c-1.83,0-3.57-.73-5.41-.67a.74.74,0,0,1-.8-.83c0-.67.12-.84.87-.71,2.38.4,4.8.51,7.18.93,1.34.24,2.8-.31,4.16-.13a21.48,21.48,0,0,0,8.69-.87c2.69-.76,5.56-1.26,7.86-3.2a26.24,26.24,0,0,1,6.8-3.61,42.78,42.78,0,0,1,8-2.75,36.91,36.91,0,0,1,10.07-.51c2.58.17,5.12.58,7.68.8a6.16,6.16,0,0,1,2.71.85,63.39,63.39,0,0,0,6.23,3c1.73.81,3.1,2.21,4.92,2.89a7.84,7.84,0,0,0,2,.8c2.19.2,3.91,1.75,6,2.09,3.59.58,7.15,1.41,10.85.6,1.85-.41,3.78-.06,5.68-.53a37.55,37.55,0,0,0,7.75-2.66c3.35-1.66,6.54-3.66,9.92-5.21a14.6,14.6,0,0,1,6.1-1.82,8.08,8.08,0,0,0,2.55-.5,16.39,16.39,0,0,1,9.41-.1Z"/><path d="M156.63,211.48c-1.4,0-2.79.09-4.19.08a33.13,33.13,0,0,0-13,2.48,63.28,63.28,0,0,0-6.47,3c-1.54.83-3,1.82-4.6,2.69a18.25,18.25,0,0,1-8,2.45c-2.94.12-5.82.81-8.77.7-2.07-.08-4.08-.54-6.09-.79-3-.39-5.64-1.93-8.58-2.37a1.3,1.3,0,0,1-.53-.25c-2.49-1.93-5.41-3.14-8.1-4.72a17.52,17.52,0,0,0-5-1.81c-2.6-.6-5.21-1-7.82-1.44a22.53,22.53,0,0,0-6.66.12c-.63.08-1.25.18-1.89.22-2.94.18-5.64,1.35-8.28,2.45a72.15,72.15,0,0,0-9.53,4.82A33.17,33.17,0,0,1,43,221.5,35.29,35.29,0,0,1,33.83,223a27.45,27.45,0,0,1-8.7-.94c-1-.25-2.06,0-3.07-.36a1,1,0,0,1-.82-1.23c0-.5.18-.59.66-.44,3,1,6.25.85,9.35,1.44a5.47,5.47,0,0,0,2.36-.25,13,13,0,0,1,3.57-.17,19.81,19.81,0,0,0,6.32-1.18c4-1.22,7.32-3.8,11.18-5.26,1-.37,1.68-1.23,2.62-1.65a34.68,34.68,0,0,1,7.16-2,25,25,0,0,1,6.46-.77c3.65.21,7.46-.72,11,1.11a3.66,3.66,0,0,0,1.25.36c2.58.26,4.81,1.41,7.12,2.46s4.57,2.75,6.92,4a22.12,22.12,0,0,0,9.45,2.9,80.49,80.49,0,0,0,8.07.27c3.63-.24,7.28-.39,10.69-1.95a38.9,38.9,0,0,1,4.13-1.47,4,4,0,0,0,1.35-.72,28.31,28.31,0,0,1,12.67-5.75,23.65,23.65,0,0,0,4.33-1.17A2,2,0,0,1,149,210a17.48,17.48,0,0,0,5.3-.23,5.5,5.5,0,0,1,2.3.54Z"/><path d="M156.63,238.84c-1.53.29-3.06-.06-4.61,0a36,36,0,0,0-13.7,3.17,29.8,29.8,0,0,0-2.83,1.55c-1.92,1.26-4.11,2-6.13,3.06-2.74,1.5-5.73,2.86-8.94,2.93-2.59.06-5.13.51-7.69.71-3.07.25-5.92-.51-8.75-1.18a60.69,60.69,0,0,1-12.63-5.05c-3.41-1.67-6.67-3.76-10.59-4.34A48.34,48.34,0,0,0,68.53,239a44.07,44.07,0,0,0-6.59,1.42,41.15,41.15,0,0,0-10.08,4.68,40.2,40.2,0,0,1-6.12,2.79,27.57,27.57,0,0,1-6.23,1.93,2.66,2.66,0,0,1-.58.13c-3.23-.48-6.43.74-9.7.08-1.46-.3-3,.21-4.57-.23-.95-.27-1.89-.59-2.84-.86-.75-.22-.68-.89-.52-1.39.22-.7.78-.17,1.05,0a7.44,7.44,0,0,0,3,.65,51.61,51.61,0,0,1,5.66.76c2.13.34,4.27-.23,6.38-.45A37,37,0,0,0,45,246.71a16.89,16.89,0,0,0,2.42-1.28,39.1,39.1,0,0,1,6.49-2.94c1.44-.47,2.57-1.67,4-2.22,3.79-1.42,7.56-2.86,11.71-2.72,3.68.12,7.39,0,11,.76,1.85.39,3.64,1.1,5.47,1.59,3.67,1,6.7,3.25,10,4.87,4.3,2.08,8.7,3.73,13.63,3.92,2.68.1,5.32-.19,8-.13a12.9,12.9,0,0,0,2.92-.48,32.36,32.36,0,0,0,10.86-4.34A30.88,30.88,0,0,1,142.31,239c2.67-.55,5.22-1.66,8-1.5a32.31,32.31,0,0,1,6.29.43Z"/><path d="M156.63,369.16a14.75,14.75,0,0,1-4.4-.11,1.38,1.38,0,0,0-.83,0c-2,.85-4.13.8-6.19,1.12a30.1,30.1,0,0,0-6.65,2.09,33,33,0,0,0-4.68,2.5c-1.82,1.12-3.9,1.8-5.82,2.76-4.61,2.29-9.6,2.71-14.59,3a34.92,34.92,0,0,1-13.68-2.06A41.49,41.49,0,0,1,92,374.6c-1.92-1.19-4-2.15-5.93-3.27a8.86,8.86,0,0,0-3.85-1.08,25.27,25.27,0,0,1-5.15-.83c-1.21-.31-2.29.1-3.43.09-2.08,0-4.19-.47-6.22.38-.24.1-.46,0-.69-.07A6,6,0,0,0,64,370c-4.07,1.13-7.79,3.14-11.62,4.85A37.31,37.31,0,0,0,48.55,377a13.87,13.87,0,0,1-3.06,1.3,56.39,56.39,0,0,1-8.38,2.18,4,4,0,0,1-.59,0c-1.78,0-3.56-.29-5.3.24H31.1c-2.7-.77-5.52-.55-8.25-1-.72-.11-1.65-.27-1.6-1.41,0-.48.14-.71.63-.42a7.43,7.43,0,0,0,3.79.71,15.34,15.34,0,0,1,4.47.64,2.31,2.31,0,0,0,1.53,0,10.65,10.65,0,0,1,4.11-.58c2.95.06,5.6-1,8.36-1.68a25.21,25.21,0,0,0,6.26-2.77c2-1.14,4.12-2.05,6.18-3.08a25.55,25.55,0,0,1,7.24-2.52c2.07-.34,4.05-1.13,6.27-.89,3.2.34,6.47-.29,9.68.3a44.37,44.37,0,0,1,8.36,2.72,54,54,0,0,1,5.9,3.31c1.77,1,3.43,2.4,5.73,2.49,1.36.06,2.7.87,4.06,1.29,3.92,1.24,7.93,1.24,12,1.08a29.43,29.43,0,0,0,9.15-1.89c3.19-1.19,6.52-2.23,9.31-4.42,1.65-1.3,3.82-1.71,5.69-2.65,3.93-2,8.19-2,12.41-2.09a31.58,31.58,0,0,1,4.24,0Z"/><path d="M156.63,341.8a1.47,1.47,0,0,0-1.16-.08,16.84,16.84,0,0,1-4,.24,25.82,25.82,0,0,0-7.11.89c-2.36.8-4.75,1.5-7.09,2.39a22.27,22.27,0,0,0-2.48,1.4,64,64,0,0,1-8.27,4.16,29.6,29.6,0,0,1-8.58,2.19,66.4,66.4,0,0,1-7.05.13,31.11,31.11,0,0,1-11.24-2.28c-3-1.32-5.83-2.86-8.69-4.41l-3.44-1.88c-1-.58-2.36-.44-3.52-.92s-2.19-.69-3.26-1.13a3.46,3.46,0,0,0-1.49-.38c-3.13.14-6.23-.61-9.39-.27A43.78,43.78,0,0,0,59.77,344c-3.42,1.24-6.38,3.36-9.79,4.62-1.42.52-2.7,1.58-4.22,2.11a43.35,43.35,0,0,1-12.54,2.42,28.5,28.5,0,0,1-8.91-.83c-.76-.2-1.55-.24-2.31-.52-.56-.2-.85-.47-.72-1s.69-.45,1-.31c4.87,1.85,9.94,1,14.92,1A16.3,16.3,0,0,0,43,350a11,11,0,0,1,3.32-.89c.16,0,.36,0,.47-.08,1.18-1,2.78-1.37,4-2.2a45,45,0,0,1,7.13-3.75A20.71,20.71,0,0,1,66.58,341a9.42,9.42,0,0,0,3.51-.53,6.36,6.36,0,0,1,4-.11,27.85,27.85,0,0,0,4.26.37,27,27,0,0,1,9.36,2.58,32.63,32.63,0,0,1,5,2.38c2.35,1.63,5,2.53,7.49,3.86a14.26,14.26,0,0,0,3.3.9,42.56,42.56,0,0,0,5.11,1,17.49,17.49,0,0,0,5.3.15c1.86-.35,3.72-.09,5.59-.39a41.71,41.71,0,0,0,8.06-2.31,43.19,43.19,0,0,0,6.33-3.49,43.31,43.31,0,0,1,9-3.62,22.26,22.26,0,0,1,7.61-1.18c1.61.08,3.17-.34,4.77-.26a1.92,1.92,0,0,1,1.36.33Z"/><path d="M156.63,362.68a9.79,9.79,0,0,1-2.36-.1,28.13,28.13,0,0,0-8.3.44,48.65,48.65,0,0,0-8.15,2.53c-1.59.73-2.92,1.89-4.51,2.67a39.44,39.44,0,0,1-5.9,2.54,3.45,3.45,0,0,0-1,.38c-2.91,2.06-6.35,1.76-9.63,2.17-3,.37-6,0-8.94,0a13.18,13.18,0,0,1-2.33-.47c-2.25-.42-4.53-.75-6.75-1.29a8,8,0,0,1-2.24-1.32,11.88,11.88,0,0,0-3.9-2c-1-.2-1.63-1.12-2.53-1.54a41.22,41.22,0,0,0-10.22-3.82,14.57,14.57,0,0,0-5.4-.44,12.46,12.46,0,0,1-3-.05c-2.38-.13-4.59.78-7,.78a14.75,14.75,0,0,0-5.9,1.73c-2.19,1-4.31,2.19-6.48,3.26a30.08,30.08,0,0,0-5,2.78c-1.09.84-2.58.94-3.9,1.36-2.9.94-6,.7-8.95,1.07a34.55,34.55,0,0,1-9-.32,15.39,15.39,0,0,1-3.28-.54,1,1,0,0,1-.74-1.24c.15-.74.74-.31,1-.26,2,.33,4,.85,6.08,1.07,1.42.15,2.89-.15,4.33-.14a64.52,64.52,0,0,0,7.86-.47c1.46-.18,2.57-1.19,4-1.43a24,24,0,0,0,3.07-.91,2.57,2.57,0,0,0,1-.39c2.3-2.15,5.43-2.75,8-4.33a24.75,24.75,0,0,1,9.23-2.91,35.5,35.5,0,0,1,8-.75c3.43.26,7,.37,10.2,2.06a3.43,3.43,0,0,0,1,.29c3.15.51,5.7,2.36,8.41,3.82a43.6,43.6,0,0,0,9.43,4.18,20.25,20.25,0,0,0,7.38,1c2.21-.24,4.39.08,6.61-.2,1.53-.19,3.1-.44,4.67-.54a17.41,17.41,0,0,0,5-1.54,32,32,0,0,0,6.85-3.29c3-2,6.27-3.09,9.56-4.36,2.85-1.11,5.78-.9,8.65-1.42a13.17,13.17,0,0,1,4.95.49Z"/><path d="M156.63,232.36c-.57.26-1.09-.13-1.64-.16a33.16,33.16,0,0,0-14.1,2c-2.4,1-4.83,1.74-6.86,3.45a5.65,5.65,0,0,1-2.49,1.1,12.37,12.37,0,0,0-4,2c-1.75,1.15-3.72,1.29-5.64,1.72-3.93.89-7.92.64-11.9.77-1.7.06-3.16-.75-4.8-.81-2.24-.07-4.18-1.48-6.46-1.48-.45,0-.89-.48-1.35-.72-3.74-1.86-7.42-3.83-11.1-5.8-2.5-1.34-5-1.46-7.62-1.8a1.42,1.42,0,0,1-.36,0c-2.78-1.22-5.61-.2-8.42-.26a21,21,0,0,0-5.64.59c-2.16.56-4.44.8-6.47,1.89-1.76.94-3.6,1.74-5.32,2.75-1.23.72-2.5,1.34-3.75,2-5.75,3.06-11.85,3.82-18.25,3.55a68.71,68.71,0,0,1-7.87-.94c-1.08-.17-1.63-.77-1.13-2.08,2.05,1.19,4.34,1.39,6.62,1.61a4.47,4.47,0,0,0,1.31.06,16.47,16.47,0,0,1,4.38,0A25.66,25.66,0,0,0,44.34,240a39.33,39.33,0,0,0,5.32-2.33,37.55,37.55,0,0,1,4.54-2.57c2.08-.78,3.84-2.3,6.09-2.69a10.15,10.15,0,0,0,2.56-.91,7,7,0,0,1,3.12-.69,55.85,55.85,0,0,0,7.76-.22c2.23-.28,4.31.61,6.47.9a23.3,23.3,0,0,1,4,.7,23.91,23.91,0,0,1,5.13,2.18c1.75,1.06,3.85,1.54,5.3,3.13a1.26,1.26,0,0,0,1,.29,1.29,1.29,0,0,1,.91.23c2.63,1.9,5.78,2.28,8.8,3.07a13.69,13.69,0,0,0,6.57.56,10.54,10.54,0,0,1,3.44.21c2.06.26,4-.69,6-.8,3.64-.21,6.56-2.22,9.68-3.74,2.65-1.28,4.94-3.28,7.94-3.89a6.77,6.77,0,0,0,1.83-.86,4.7,4.7,0,0,1,2.82-.79,1.77,1.77,0,0,0,.83,0c2.29-1.09,4.85-.72,7.23-1.33a.83.83,0,0,1,.35-.06l4.63.55Z"/><path d="M156.63,225.16c-1.23.11-2.45.3-3.68.3a49.48,49.48,0,0,0-8.14.91,30.84,30.84,0,0,0-9.26,3.29c-1.82,1-3.56,2.08-5.44,3-3.57,1.7-7.22,3.28-11.16,3.5a24.3,24.3,0,0,0-5.33.85,1.15,1.15,0,0,1-.71,0c-2.27-.94-4.69-.68-7.06-.93a16.59,16.59,0,0,1-3.56-.9A39.54,39.54,0,0,1,93,231a30.79,30.79,0,0,0-6.63-3.13,30.06,30.06,0,0,0-6.09-2,20.82,20.82,0,0,0-5.41-.41c-1.62.19-3.24-.39-4.88-.22-4.34.46-8.66,1-12.61,3.09-3.32,1.76-6.59,3.66-10,5.15A25.78,25.78,0,0,1,37,236.07c-1.9,0-3.76.6-5.69.5a18.77,18.77,0,0,1-4.37-.3c-1.57-.45-3.2-.56-4.75-1.11-.88-.31-1.15-.72-.84-1.58a28.71,28.71,0,0,0,9.73,1.35c4.49-.27,9-.33,13.35-1.67a6.74,6.74,0,0,0,1.85-.84c1.09-.75,2.31-1.23,3.45-1.86a96.55,96.55,0,0,1,11.58-5.27,17.81,17.81,0,0,1,5.33-1.08c4.08-.26,8.19-.69,12.29-.11a20.61,20.61,0,0,1,3.22.85,38.63,38.63,0,0,0,4.57,1.36c1.18.22,2,1.08,3,1.62,1.92,1,3.85,2.17,5.79,3,3.59,1.45,7.06,3.34,11.13,3.63,3.41.24,6.81.33,10.21.5a13.58,13.58,0,0,0,5.21-1.05,11.9,11.9,0,0,1,2.86-.73,4.53,4.53,0,0,0,1.69-.54c3-1.68,6.3-2.89,9.15-4.91,1-.68,2.24-.7,3.32-1.24a27.93,27.93,0,0,1,14.65-2.64c.94.06,1.9.14,2.84.29Z"/><path d="M156.63,218.2a26.17,26.17,0,0,0-4.6.09,42.91,42.91,0,0,0-5.54.64,28.1,28.1,0,0,0-9.33,3.08c-.8.42-1.55,1-2.36,1.39-2.29,1.21-4.59,2.38-6.88,3.57a5.66,5.66,0,0,1-2.63.68,1.49,1.49,0,0,0-.6,0c-3.7,1.67-7.75,1.72-11.63,1.94a29.66,29.66,0,0,1-10.43-1.38,49.83,49.83,0,0,1-9.44-4.05c-2.16-1.19-4.46-2.07-6.57-3.32a6.66,6.66,0,0,0-3.42-.9,2.51,2.51,0,0,1-1.45-.47,6.55,6.55,0,0,0-3.74-1,56.75,56.75,0,0,1-7.26-.21,8.57,8.57,0,0,0-2.72.28A51.42,51.42,0,0,0,57,221.73a85.45,85.45,0,0,0-7.57,4c-1.34.75-2.85,1.2-4.27,1.83-5,2.25-10.4,2.07-15.74,2a9.06,9.06,0,0,1-2.68-.49,13,13,0,0,0-4-.47,2.57,2.57,0,0,1-1.14-.32c-.48-.26-.38-.8-.27-1.19s.55-.11.8,0A43.59,43.59,0,0,0,35,228.14c4.23-.38,8.46-1,12.34-2.95,2.31-1.15,4.53-2.51,6.84-3.67a41.46,41.46,0,0,1,5.13-2.2c1.23-.42,2.24-1.41,3.65-1.36a8.44,8.44,0,0,0,3.9-.92,1.58,1.58,0,0,1,1-.1c2.63.68,5.28-.11,8,.1a39.5,39.5,0,0,1,7.66,1.25c3.81,1.11,7.17,3.13,10.6,5.06A34.09,34.09,0,0,0,103.9,227c3.57.76,7.17,1.54,10.84,1.19a44.3,44.3,0,0,0,9.21-1.64c1.92-.6,3.64-1.72,5.66-2a3.31,3.31,0,0,0,1.48-.75,9.85,9.85,0,0,1,2.79-1.53c1.3-.53,2.39-1.49,3.71-2.09a36.79,36.79,0,0,1,19-3.12Z"/><path d="M156.63,355.48a32,32,0,0,1-5,.07,34,34,0,0,0-6.82.87c-4.72,1.05-8.88,3.33-13,5.71a40,40,0,0,1-11.06,4.21c-2.4.53-4.81,0-7.14.7a2.54,2.54,0,0,1-1.51-.23,13.63,13.63,0,0,0-4.49-.45,24,24,0,0,1-8.42-1.95A70.56,70.56,0,0,1,90,359.53a18.44,18.44,0,0,0-3-1.16c-2.23-.81-4.46-1.6-6.69-2.39a1.54,1.54,0,0,0-.68-.16,20.39,20.39,0,0,1-5.89-.27c-3.08-.52-6.09.12-9.09.55a25.41,25.41,0,0,0-6.32,2.11,31.65,31.65,0,0,0-6.87,3.54c-2.36,1.8-5.16,2.39-7.76,3.52-2.32,1-4.87,1-7.34,1.35-4.52.67-9,.12-13.44-.55-.67-.1-1.71-.11-1.71-1.29,0-.45,0-.73.65-.54a22.34,22.34,0,0,0,7.75.95,16.81,16.81,0,0,1,2.47.26c1.64.13,3.27-.47,4.87-.26,2.5.32,4.53-1.24,6.88-1.43a3.31,3.31,0,0,0,1.34-.47,4.88,4.88,0,0,1,2.63-1,1.75,1.75,0,0,0,1.07-.5,19.23,19.23,0,0,1,5.36-3.31,36.73,36.73,0,0,1,9.2-3.45c3.2-.57,6.38-1.48,9.68-1.07,2.47.31,5,.23,7.44.79a45.38,45.38,0,0,1,11.52,4.64A59.43,59.43,0,0,0,103,364.28c2.09.64,4.41.5,6.56,1,2.6.6,5.14,0,7.67-.11a30,30,0,0,0,8.73-1.6,1.45,1.45,0,0,0,.44-.18c2.13-2,5-2.61,7.41-4.16a31.11,31.11,0,0,1,9.44-3.84,24.26,24.26,0,0,1,8.43-1,12.35,12.35,0,0,0,5-.36Z"/><path d="M156.63,348.76a23.59,23.59,0,0,0-5.69-.12,74.42,74.42,0,0,0-9.83,1.65,10.8,10.8,0,0,0-1.79.92c-2.34,1.19-4.6,2.5-6.95,3.67-2,1-3.94,2-6,2.87a25.6,25.6,0,0,1-6.63,1.67,27.12,27.12,0,0,1-4.85.48c-2.29-.12-4.58-.36-6.86-.42a21.74,21.74,0,0,1-7-1.29,55.85,55.85,0,0,1-10.92-5.29A12.54,12.54,0,0,0,86,351.11c-2.25-.49-4.22-1.87-6.54-2.17a7.61,7.61,0,0,0-.82-.09c-1.48,0-2.94-.11-4.41-.19a52.07,52.07,0,0,0-7.58.49,42,42,0,0,0-6.93,1.63c-2.11.55-3.83,1.89-5.74,2.86-4.38,2.24-8.66,4.78-13.59,5.58-2.77.46-5.6,1.19-8.48.48-.5-.13-1.09.15-1.64.17-2.64.14-5.21-.54-7.81-.74a2.6,2.6,0,0,1-.87-.39c-.54-.26-.41-.77-.3-1.15s.53-.15.81-.09a32.57,32.57,0,0,0,8.85,1c2.84-.15,5.73,0,8.51-.55a33.45,33.45,0,0,0,8.86-3c2.86-1.48,5.57-3.25,8.48-4.61a48.36,48.36,0,0,1,7.44-2.45c2.13-.59,4.28-.26,6.41-.48a48.28,48.28,0,0,1,8.67.33c4.46.35,8.4,2.28,12.28,4.43,3.57,2,7.13,4.22,11.18,5,3.12.58,6.21,1.45,9.5,1.47a42,42,0,0,0,7-.75c1.36-.21,2.7-.38,4.06-.67a20.18,20.18,0,0,0,4.93-2c2.36-1.21,4.72-2.52,7.11-3.6,3.51-1.58,6.86-3.95,11-3.7a1.52,1.52,0,0,0,.67-.2c3.18-1.57,6.34-.51,9.5.06Z"/><path d="M76.71,203.08a29.62,29.62,0,0,0,5.31,1.2,20.8,20.8,0,0,1,4.85,1.57,55.87,55.87,0,0,1,8,4.15,40.06,40.06,0,0,0,5.43,2.42c2.75,1.14,5.68,1.38,8.49,2.2a2.12,2.12,0,0,0,1,.11c2.57-.69,5.19,0,7.79-.41A43.07,43.07,0,0,0,125.1,213a16.15,16.15,0,0,0,3.72-1.8c1.16-.78,2.57-1.19,3.64-2,1.71-1.31,3.76-1.85,5.54-2.92,2.17-1.31,4.62-1.62,7-2.26a15.76,15.76,0,0,1,4.45-.69c2.4.06,4.82-.22,7.21.27v1.2a15.81,15.81,0,0,1-2.84-.09,33.8,33.8,0,0,0-5.95.28,48.37,48.37,0,0,0-6.62,1.29,8,8,0,0,0-1.76.7c-3.91,2.27-8.07,4.09-11.91,6.49a6.44,6.44,0,0,1-3.12,1.1,12.52,12.52,0,0,0-4,1,9.65,9.65,0,0,1-6.32.24,4.77,4.77,0,0,0-2-.08c-3.35.54-6.54-.33-9.74-1a29.08,29.08,0,0,1-6-2.5c-2.92-1.42-5.82-2.89-8.74-4.34a25,25,0,0,0-5.41-2,31.24,31.24,0,0,0-6.56-1c-2,0-4.14-.38-6.21.42-1.46.56-3.15.06-4.74.36a19.15,19.15,0,0,0-7.25,2.5,9.46,9.46,0,0,1-2.26,1.06c-1.68.57-3.14,1.56-4.73,2.27-2.62,1.15-5,2.86-8,3.23s-5.87,1.54-8.92,1.26c-3.7-.34-7.47.16-11.11-1.09-1-.34-1.3-.72-1-1.83,1.08,1.08,2.47,1,3.77,1.28.72.17,1.32-.25,2-.18l5.81.6a2.82,2.82,0,0,0,.94.1c2.29-.65,4.69-.65,7-1.19a53.28,53.28,0,0,0,5.77-1.72,17.07,17.07,0,0,0,2.86-1.45,98.67,98.67,0,0,1,9-4.55,31,31,0,0,1,12.11-2.44c1.78,0,3.55-.17,5.32-.3Z"/><path d="M156.63,334.84a2.94,2.94,0,0,0-.82-.14c-3.06.37-6.21,0-9.19,1-1.05.37-2.13,0-3.19.34a40.69,40.69,0,0,0-4.74,1.95c-2.81,1.38-5.61,2.81-8.37,4.32a33.1,33.1,0,0,1-12.38,3.72c-2,.21-4-.12-5.85,0-3.77.33-7.21-.81-10.79-1.38A9.26,9.26,0,0,1,99,343.58a55.18,55.18,0,0,1-6.34-3.06c-.53-.33-1.19-.47-1.73-.79-.35-.2-1.17-.24-.83-.84a1.14,1.14,0,0,1,1.54-.51c1.34.7,2.76,1.27,4,2.07a32.42,32.42,0,0,0,10.2,3.84c2.11.5,4.33.25,6.5.52a21.32,21.32,0,0,0,9.23-1c1.38-.44,2.88-.32,4.24-1,3.55-1.89,7.38-3.22,10.81-5.36a15.94,15.94,0,0,1,6.25-2.68c2.11-.27,4.15-.86,6.31-1,2.51-.17,5-.05,7.47-.05Z"/><path d="M156.63,252.52c-1.45.06-2.9.07-4.35.12a36.18,36.18,0,0,0-13.41,2.77c-2.41,1-4.76,2.26-7,3.49q-3,1.62-6.15,3c-2.41,1.08-5,1.3-7.61,1.74s-5,.13-7.51.4c-1.25.14-2.57-.48-3.86-.48-3.45,0-6.09-1.89-8.87-3.49-2.18-1.25-4.35-2.52-6.59-3.81.4-.33.67-.06.88.07,2.88,1.79,6.14,2.8,9.11,4.41,1.52.82,3.3.83,4.94,1.21a25.67,25.67,0,0,0,8.43.52,62.06,62.06,0,0,0,7.38-1c3.85-.86,7.14-2.72,10.53-4.5,2.48-1.3,4.81-2.89,7.61-3.59,3.65-.91,7.18-2.17,11.07-2,1.78.1,3.62-.29,5.44-.07Z"/><path d="M97.35,391.24a2.45,2.45,0,0,0-1.3-.79c-1.4-.51-2.51-1.54-3.84-2.17-2.94-1.38-5.85-2.81-8.76-4.24a8.36,8.36,0,0,0-3-.59c-2.49-.23-5-.29-7.48-.4a39.94,39.94,0,0,0-11.49,1.53,28.19,28.19,0,0,0-9.5,4.67c-1.19.83-2.72.94-3.87,1.84l-.18.15H43.59a7.61,7.61,0,0,1,3-1.31A12.86,12.86,0,0,0,50.8,388c1.32-.84,2.71-1.5,4.05-2.24a21,21,0,0,1,5.28-2.45c2.3-.5,4.45-1.68,6.92-1.55a36,36,0,0,0,4.52-.21A36,36,0,0,1,84,383c1.74.51,3.25,1.43,4.9,2.06,2.5.95,4.66,2.58,7.18,3.47a1.88,1.88,0,0,1,.83.43,6.83,6.83,0,0,0,3.41,1.88c.24.09.58.05.68.4Z"/><path d="M156.63,328.12c-1.53,0-3.07.15-4.6.07a29.46,29.46,0,0,0-12.85,2.56A39.17,39.17,0,0,0,135,333a51.46,51.46,0,0,1-14.53,5.83,22.83,22.83,0,0,1-4,.35c-4.47.17-9,.24-13.31-1.13-1.5-.47-3.13-.52-4.58-1.22a3.54,3.54,0,0,1-1.52-.9c-.21-.27-1-.24-.59-.77a1.24,1.24,0,0,1,1.47-.48c2,.79,4,1.69,6.09,2.41a12.86,12.86,0,0,0,3.82.74c3.13.11,6.27-.13,9.39-.18a32.74,32.74,0,0,0,7.81-1.24,9.91,9.91,0,0,0,2.84-1.25c2.68-1.7,5.68-2.84,8.23-4.76a1.26,1.26,0,0,1,.41-.25c2.22-.6,4.28-1.67,6.46-2.28,1.88-.53,3.84-1.25,5.92-.83a5.31,5.31,0,0,0,2.35-.28,10.9,10.9,0,0,1,5.4.39Z"/><path d="M156.63,321.4a34,34,0,0,1-4.28-.08,14,14,0,0,0-6,.51c-2.12.8-4.52.88-6.6,1.86-2.43,1.14-4.79,2.42-7.15,3.7a38.25,38.25,0,0,1-9.33,3.76,32.86,32.86,0,0,1-9.27,1.32c-2.93-.15-5.95.34-8.79-.85-.57-.24-1.26.11-2-.27.79-.73,1.53-1.32,2.62-1,2.19.62,4.48.43,6.71.73s4.56-.2,6.83-.5c3.7-.5,7-2.06,10.47-3.4,3-1.18,5.49-3.35,8.49-4.55a13.35,13.35,0,0,1,2.46-.88,44.45,44.45,0,0,0,5.16-1.34,15.75,15.75,0,0,1,7.54-.31,2.86,2.86,0,0,0,1.42-.09,1.71,1.71,0,0,1,1.7.21Z"/><path d="M156.63,314.44c-1.28,0-2.55.09-3.83.08a56.28,56.28,0,0,0-7.77.84c-3,.39-5.62,1.83-8.4,2.79a15.93,15.93,0,0,0-3.53,2.14,24.76,24.76,0,0,1-5.44,2.61c-2.35.86-4.7,1.74-7.12,2.36s-4.67.26-7.05.18c.93-.66,1.72-1.48,3.07-1.28,1.61.24,3.06-.72,4.67-.8,3.44-.16,6.22-2.08,9.21-3.52,3.49-1.68,6.74-3.91,10.48-5.07a70.92,70.92,0,0,1,8.19-1.87,9.39,9.39,0,0,1,4.59.19c.94.3,2-.14,2.93.15Z"/><path d="M95.19,203.08A27.79,27.79,0,0,0,105.83,207c2.87.54,5.87,1.07,8.88.41a7.83,7.83,0,0,1,2,.18,18.12,18.12,0,0,0,7.94-1.72c2-.84,4.24-1.38,6.05-2.75h2.88a40.36,40.36,0,0,1-7.48,3.85,36.44,36.44,0,0,1-21,1.44A24.68,24.68,0,0,1,96,205c-1.24-.82-2.88-1-4.16-1.92Z"/><path d="M156.63,259.48a5.66,5.66,0,0,0-2.59,0,5.57,5.57,0,0,1-2.12.12,20.18,20.18,0,0,0-6,.49,45.15,45.15,0,0,0-6.78,2.13c-3.15,1.11-5.74,3.14-8.69,4.53a39.76,39.76,0,0,1-10.12,3.37c-.47.08-.94.16-1.4.28a4.59,4.59,0,0,1-4.65-1,32.51,32.51,0,0,1,4.46-.39,39.93,39.93,0,0,0,8.13-2.37c2.38-.81,4.21-2.75,6.79-3a.14.14,0,0,0,.11,0c1.13-1.55,3-1.64,4.56-2.42a24.79,24.79,0,0,1,7.69-2.6c3-.44,6,.11,9-.62a5.83,5.83,0,0,1,1.66.06Z"/><path d="M156.63,279.88c-1.81.22-3.67-.13-5.44.54a2.62,2.62,0,0,1-1.06-.08,6,6,0,0,0-3.95.35,3.79,3.79,0,0,1-1.48.44,13.46,13.46,0,0,0-6.39,2.27,7.27,7.27,0,0,1-1.69.55c-1.77.56-3.14,1.84-4.76,2.68a45.63,45.63,0,0,1-5.54,2.47c-.31.12-.73.44-.91-.08a1,1,0,0,1,.37-1.26c.7-.38,1.5-.57,2.18-.91,1.88-1,3.82-1.76,5.65-2.82a53.16,53.16,0,0,1,10.94-4.58c4-1.24,8-.72,12.08-.77Z"/><path d="M156.63,266.44c-.81.3-1.56-.18-2.35-.17a43.29,43.29,0,0,0-11.9,1.54,42,42,0,0,0-8.23,3.74c-2.26,1.24-4.56,2.42-6.76,3.79a2.73,2.73,0,0,1-3.67-.42,1.78,1.78,0,0,1,.86-.42,17.67,17.67,0,0,0,4-1.92c2-1.22,4.28-2.08,6.41-3.15a58,58,0,0,1,9.66-3.62c1.82-.53,3.74-.28,5.62-.58a47.24,47.24,0,0,1,6.31-.23Z"/><path d="M156.63,300.76a18.75,18.75,0,0,0-6.43-.06,27.91,27.91,0,0,1-4.33.68c-1.53.05-2.91,1-4.45,1.2a13.85,13.85,0,0,0-5.92,2.67,19.2,19.2,0,0,1-3,1.38c-2,1-3.91,2.32-6.07,3.06-.33.11-.76.56-1-.05a.82.82,0,0,1,.35-1.13c.46-.24.82-.75,1.29-.85,2.22-.46,4-1.85,6-2.84,1.75-.9,3.47-1.87,5.27-2.69a43.14,43.14,0,0,1,8.16-2.4,13.11,13.11,0,0,1,5.78-.33,3.29,3.29,0,0,0,1.38-.25,4.54,4.54,0,0,1,3,.17Z"/><path d="M156.63,307.24a23.36,23.36,0,0,1-7.18.39,17.62,17.62,0,0,0-6.17,1.13c-2.56.85-5,1.94-7.46,3-3.13,1.4-5.94,3.38-9.06,4.78-.38.17-.84.5-1.23.22s-.2-.75-.14-1.14.43-.47.7-.57c2.93-1.05,5.5-2.84,8.37-4a19.9,19.9,0,0,0,4.61-2.46c1-.77,2.3-.83,3.46-1.14,2.39-.65,4.76-1.67,7.34-1.25,2.25.38,4.51-.29,6.76.08Z"/><path d="M156.63,293.8c-2.39.42-4.83-.17-7.17.15-4.19.58-8.52.83-12.18,3.46a28.77,28.77,0,0,1-3.91,2c-1.92,1-3.82,2-5.73,2.93a9.38,9.38,0,0,1-1.32.54c-.33.12-.76.29-.91-.19s-.2-.88.36-1.12c1.06-.45,2.09-1,3.18-1.35a4,4,0,0,0,1.4-.63,17.07,17.07,0,0,1,5.35-3c1.32-.5,2.35-1.45,3.69-1.91a50.94,50.94,0,0,1,10.16-2.17,24.29,24.29,0,0,1,7.08.3Z"/><path d="M156.63,287.08a19.36,19.36,0,0,0-6.83-.06c-2.87.54-5.81.71-8.63,1.55a12.46,12.46,0,0,0-2.18.94c-1.9,1-3.55,2.41-5.54,3.19-2.31.89-4.37,2.3-6.66,3.2-.39.16-1,.81-1.39,0s.23-1.16.89-1.43c4.39-1.78,8.37-4.35,12.59-6.45a25.63,25.63,0,0,1,6.27-1.74c2.82-.57,5.69-.51,8.52-.9a12.52,12.52,0,0,1,3,.28Z"/><path d="M156.63,383.08a45.39,45.39,0,0,0-11.22.61,27.83,27.83,0,0,0-9.84,3.74c-2.34,1.49-5,2.29-7.26,3.81h-3.6a9.41,9.41,0,0,1,3.47-1.75A62.76,62.76,0,0,0,134,386.7c3.11-1.6,6.17-3.43,9.63-4,3.89-.64,7.78-1.58,11.78-1.17a6.49,6.49,0,0,1,1.26.34Z"/><path d="M52.71,203.08a9.93,9.93,0,0,1-4,2.27c-1.64.45-3,1.56-4.69,2a37.12,37.12,0,0,1-8.75,1.56c-1.41,0-2.75.68-4.22.48-3-.41-6.11-.29-8.95-1.66-.5-.24-1.05-.38-.83-1s.71-.24,1.1-.16c3.11.61,6.2,1.3,9.41,1a15.57,15.57,0,0,1,3.33.17,9.18,9.18,0,0,0,4.1-.42,57,57,0,0,0,10.84-4.24Z"/><path d="M156.63,273.16c-1.22,0-2.45-.17-3.65-.11-4.21.18-8.39.59-12.33,2.27-2.55,1.09-5,2.45-7.43,3.7-2.25,1.14-4.51,2.34-6.87,3.28-.25.1-.79.6-1-.11-.11-.47-.23-1.1.47-1.3,3-.84,5.64-2.56,8.34-4a55.77,55.77,0,0,1,7.74-3.56,13.77,13.77,0,0,1,4.52-.94,2,2,0,0,0,.6,0c2.71-.89,5.51-.29,8.27-.47.43,0,.87-.1,1.3-.15Z"/><path d="M58.23,391.24c2.11-1.1,4.27-2.2,6.69-2.19,1.58,0,3-.47,4.59-.58,4.4-.33,8.64.55,12.94,1.19,1.68.25,3.42.19,4.85,1.31a1.39,1.39,0,0,1,.21.27H82c-3-1.21-6.23-1.2-9.33-1.44a37.45,37.45,0,0,0-7.77.64c-1,.14-2.18,0-3.06.8Z"/><path d="M139.11,391.24a20.14,20.14,0,0,1,6.62-2.31,35.73,35.73,0,0,1,9.79-.42,1.75,1.75,0,0,1,1.11.33v1a13,13,0,0,1-3.3.07A17.34,17.34,0,0,0,143,391.24Z"/><path d="M88.53,254.57c-.71.62-1.24,1-2.07.35a4.3,4.3,0,0,0-1.58-.48A41.37,41.37,0,0,0,75,252.75c-1.92,0-3.89-.27-5.8-.09a30.67,30.67,0,0,0-9.55,2.14c-3.9,1.72-7.48,4-11.34,5.76a23.79,23.79,0,0,1-7.17,2.35c-2.47.28-5,1-7.47,1-2.17,0-4.4.48-6.53-.41-1.61-.66-3.37-.47-5.05-.74-.82-.14-.84-.53-.79-1.12.07-.9.67-.31,1-.29,3.19.31,6.37.73,9.58,1A28.88,28.88,0,0,0,43,261c2.81-.88,5.75-1.69,8.14-3.53a30.77,30.77,0,0,1,6.12-3.32,37.36,37.36,0,0,1,9.3-2.79,15.09,15.09,0,0,1,4.26-.18,40.16,40.16,0,0,0,5,.07,6.49,6.49,0,0,1,3.24.63c1.29.69,2.74.18,4.11.53A22.27,22.27,0,0,1,88.53,254.57Z"/><path d="M80.73,259.11a2.69,2.69,0,0,1-2.06.72,95.45,95.45,0,0,0-10-.28,8.28,8.28,0,0,0-2.66.53,4,4,0,0,1-1.13.39c-4.29.33-8,2.33-11.57,4.42a49.23,49.23,0,0,1-11.46,4.84,26.2,26.2,0,0,1-5.51.83c-1.59.09-3.17.31-4.77.31a21.22,21.22,0,0,1-7.18-.85c-.8-.27-1.66-.06-2.47-.38a1,1,0,0,1-.62-1.34c.18-.65.71-.23,1.06-.17,2.1.36,4.09,1.56,6.25,1.31,4.4-.51,8.94.26,13.18-1.22,2.48-.87,5.11-1.35,7.4-2.84a44.38,44.38,0,0,1,9-4.48c3.71-1.34,7.37-2.79,11.55-2.85A35.61,35.61,0,0,1,80,259.11,3.12,3.12,0,0,0,80.73,259.11Z"/><path d="M81.86,336c-2.94-1.2-6.06-1-9.07-1s-5.91-.22-8.8,1c-1.6.65-3.43.82-5.09,1.49a18.48,18.48,0,0,0-2.35,1.08,79.05,79.05,0,0,1-12.08,5.84,26,26,0,0,1-7.94,1.41c-3,.12-6,.07-8.94.33-1.93.17-3.8-.66-5.62-1.36-.48-.18-.91-.48-.67-1.06s.73-.31,1.12-.2a29.92,29.92,0,0,0,9.76,1.31,54.28,54.28,0,0,0,10.33-1.22,23.76,23.76,0,0,0,4.55-1.69c2.69-1.27,5.12-3.05,7.95-4a30.19,30.19,0,0,0,3.65-2c2-1,4.1-1.07,6.15-1.59.87-.22,1.8-.22,2.69-.45a9.85,9.85,0,0,1,4.94-.33,31.45,31.45,0,0,0,5.22.46C79.41,334.09,80.48,335.26,81.86,336Z"/><path d="M70.38,265c-1.39,1.38-3.11,1.62-4.77,1.95a37.87,37.87,0,0,0-9.52,3.2c-3,1.46-5.66,3.48-8.83,4.49S41,277,37.54,277.44c-2.86.38-5.6-.05-8.39-.06a29.54,29.54,0,0,1-5.93-.54,11.38,11.38,0,0,1-1.46-.49c-.71-.24-.58-.85-.45-1.3s.6-.15.9-.06a23.91,23.91,0,0,0,6.46,1c1.18,0,2.35.31,3.54.39s2.54.32,3.75-.34c.88-.47,1.88-.25,2.82-.37,2.17-.27,4.15-1.33,6.36-1.49a4.07,4.07,0,0,0,2-1c1.86-1.36,4.24-1.79,5.94-3.42a3.09,3.09,0,0,1,1.78-.65c1.89-.25,3.22-1.69,5-2.25s3.73-1.13,5.6-1.57C66.93,264.93,68.63,265.19,70.38,265Z"/><path d="M34.56,339.41a92,92,0,0,1-9.85-.43,17.47,17.47,0,0,1-3-.82c-.71-.21-.56-.86-.44-1.31.18-.71.6-.09.91,0,1.72.26,3.43.64,5.15.8a54.46,54.46,0,0,0,8,.11,28.35,28.35,0,0,0,6.4-.84,40,40,0,0,0,6.18-2.46c3.14-1.51,6.09-3.42,9.44-4.48a1.93,1.93,0,0,0,.76-.33c1.85-1.72,4.36-1.63,6.55-2.4a3.28,3.28,0,0,1,3.18.52c.15.12.36.26.38.4,0,.3-.31.3-.49.44a.14.14,0,0,1-.11,0,15.3,15.3,0,0,0-5.79,1,5.53,5.53,0,0,0-1.58.45c-1.66,1.1-3.6,1.48-5.39,2.23a10.86,10.86,0,0,0-1.77,1,10.06,10.06,0,0,1-4,2,1.22,1.22,0,0,0-.53.27c-3.16,2.3-7,2.65-10.59,3.63C36.79,339.5,35.5,339.06,34.56,339.41Z"/><path d="M60,323.24c-3.24,1.46-6.23,3.19-9.29,4.75-1.79.9-3.56,2.1-5.69,2.26-1.38.11-2.41,1.2-3.78,1.41-2.22.34-4.44.74-6.67,1.09a2.1,2.1,0,0,1-1.18-.14,2.91,2.91,0,0,0-2.54-.08c-1.27.63-2.4-.22-3.6-.3a34,34,0,0,1-4.66-.84,4.5,4.5,0,0,1-.78-.27A.79.79,0,0,1,21.3,330c.15-.5.56-.27.89-.19A42.54,42.54,0,0,0,33,331.16a40,40,0,0,0,14.9-3.4c1.91-.8,3.42-2.1,5.19-3.05s3.52-1.19,5.13-2.18C58.86,322.15,59.35,322.89,60,323.24Z"/><path d="M32.55,318.86a84.43,84.43,0,0,1-10.26-1.21,2.7,2.7,0,0,1-.79-.25c-.4-.23-.28-.65-.2-1s.47-.14.68-.1a56.4,56.4,0,0,0,8.51.95,38.26,38.26,0,0,0,9.64-.85,29.47,29.47,0,0,0,10.18-3.85c.34-.22,1-.75,1.33-.18a1.23,1.23,0,0,1-.63,1.78,40,40,0,0,1-7.49,3.32,18,18,0,0,1-4.68.79C36.71,318.24,34.69,319.2,32.55,318.86Z"/><path d="M51.63,277.79c.15,1.39-.49,2-1.92,2.84-3.88,2.2-8.21,2.93-12.45,3.77a15.72,15.72,0,0,1-8.35-.27,9.9,9.9,0,0,0-3.32-.3,19.29,19.29,0,0,1-2.95-.32c-1.48-.21-1.52-.36-1.28-1.94C31.93,284.28,42.07,283.54,51.63,277.79Z"/><path d="M51.61,291.25a1.8,1.8,0,0,1-.83,2.26c-3,2.17-6.5,2.9-10,3.78a25.9,25.9,0,0,1-8.92,1.09c-3.26-.35-6.56-.43-9.79-1.09-1.16-.23-.92-1-.78-1.63s.79-.23,1.15-.11c4,1.42,8.07,1.42,12.22,1.08,2.37-.2,4.8-.11,7.06-.81a20,20,0,0,0,6.42-2.73C49.21,292.29,50.62,292.27,51.61,291.25Z"/><path d="M53.46,319.56a14.79,14.79,0,0,0-2.76,1.81c-1,.84-2.31.79-3.42,1.29-.29.13-.63.15-.91.29a24.72,24.72,0,0,1-10.3,2.43c-2.07.08-4.14.26-6.21.15a37.79,37.79,0,0,1-7.61-1.12,2.7,2.7,0,0,1-.77-.31c-.38-.24-.27-.67-.18-1s.51-.14.7-.06c2.27,1,4.77,1,7.11,1.22a35.41,35.41,0,0,0,7.11-.21,26.16,26.16,0,0,0,5.6-1c3.13-1,6.31-2,9.07-3.83A1.74,1.74,0,0,1,53.46,319.56Z"/><path d="M51.65,305.34c.34,1-.22,1.46-.95,2-2.21,1.73-4.91,2.41-7.44,3.34a15.07,15.07,0,0,1-6.41.75,27.33,27.33,0,0,0-5.1.29,14.45,14.45,0,0,1-6.47-.57,6.12,6.12,0,0,0-2.12-.26,7.89,7.89,0,0,1-1.19,0c-.76-.12-.77-.69-.71-1.28.08-.9.7-.32,1-.26,3.38.67,6.77,1.5,10.22,1.11,2.94-.34,5.91-.3,8.84-1a26,26,0,0,0,6.09-1.89A45.54,45.54,0,0,1,51.65,305.34Z"/><path d="M51.61,298.35c.38,1.24-.11,1.77-1.11,2.29a48.32,48.32,0,0,1-6.33,2.73,27.32,27.32,0,0,1-7.94,1.46c-1.38.06-2.77.57-4.14.31-3.12-.6-6.34-.37-9.43-1.15a4.33,4.33,0,0,1-1-.32c-.61-.32-.49-1-.32-1.39s.59,0,.86.09a11.09,11.09,0,0,0,4.05.91c3.55.1,7.1.42,10.66.28a8.34,8.34,0,0,0,2.32-.48,5,5,0,0,1,1.83-.45,7.2,7.2,0,0,0,3.85-1.06C47.14,300.52,49.55,299.82,51.61,298.35Z"/><path d="M51.65,284.6c.18,2.06.15,2-1.6,2.69-3.26,1.36-6.74,2-10,3.48a7.2,7.2,0,0,1-2.82.32c-2.28,0-4.56.94-6.84,0a1.06,1.06,0,0,0-.7-.06c-2.7.85-5.09-.82-7.65-.94-.85,0-.91-.5-.8-1.09.15-.74.69-.27,1-.23,2.92.27,5.73,1.38,8.68,1.32,2.7-.06,5.42-.25,8.09-.55a22.35,22.35,0,0,0,5.86-1.87C47.16,286.74,49.59,286.26,51.65,284.6Z"/><polygon class="cls-5" points="125.1 275.7 88.28 296.96 51.47 275.7 88.28 254.44 125.1 275.7"/><polygon class="cls-5" points="88.28 296.96 88.28 339.45 51.47 318.19 51.47 275.7 88.28 296.96"/><polygon class="cls-2" points="125.1 275.7 125.1 318.19 88.28 339.45 88.28 296.96 125.1 275.7"/></g></g></svg>