<svg xmlns="http://www.w3.org/2000/svg" viewBox="0 0 472.98 436.29"><defs><style>.cls-1{fill:none;}.cls-1,.cls-2,.cls-3,.cls-4,.cls-5,.cls-6{stroke:#222221;stroke-linecap:round;stroke-linejoin:round;stroke-width:2px;}.cls-2{fill:#fff;}.cls-3{fill:#b7d9e4;}.cls-4{fill:#eabd7c;}.cls-5{fill:#222221;}.cls-6{fill:#68a8de;}</style></defs><title>Element 80</title><g id="Ebene_2" data-name="Ebene 2"><g id="Ebene_26" data-name="Ebene 26"><circle class="cls-1" cx="88.29" cy="406.74" r="16.34"/><path class="cls-2" d="M1,378.21v57.08H175.55V378.21Zm87.29,44.88a16.35,16.35,0,1,1,16.34-16.35A16.34,16.34,0,0,1,88.29,423.09Z"/><circle class="cls-1" cx="88.29" cy="406.74" r="16.34"/><path class="cls-2" d="M1,89v289.2H175.55V89ZM156.34,301.32H21V113.25H156.34Z"/><path class="cls-3" d="M21,113.25V301.32H156.34V113.25ZM125.1,228.53,88.28,249.79,51.47,228.53V186l36.81-21.26L125.1,186Z"/><path d="M20.21,302.08q0-94.23,0-188.45c0-.95.16-1.18,1.15-1.18q67.84,0,135.67,0a2.2,2.2,0,0,1,.5,1.76V300.71c0,1.71-.1,1.83-1.59,1.83h-134A2.89,2.89,0,0,1,20.21,302.08Zm104.18-94.53c0-6.56,0-13.12,0-19.68a1.5,1.5,0,0,0-.86-1.51q-17.14-9.86-34.25-19.78a1.32,1.32,0,0,0-1.52,0Q70.62,176.5,53.42,186.4a1.41,1.41,0,0,0-.81,1.42q0,19.68,0,39.36a1.53,1.53,0,0,0,.87,1.51q17.1,9.83,34.15,19.71a1.47,1.47,0,0,0,1.73,0q17.06-9.88,34.15-19.71a1.6,1.6,0,0,0,.9-1.61C124.38,220.59,124.39,214.07,124.39,207.55ZM71.18,264.2c3.12.38,6,.28,8.89.79a37.79,37.79,0,0,1,10.08,3.67c2.18,1.08,4.3,2.34,6.53,3.35A35,35,0,0,0,103,274.7a32.75,32.75,0,0,0,5.73.85c1.42.07,2.82.73,4.21.37a23.72,23.72,0,0,1,4-.34c1.69-.14,3.36-.42,5-.6,2.91-.31,5.18-2.14,7.78-3.19a50.8,50.8,0,0,0,5.15-2.87A45.53,45.53,0,0,1,147,264.85a10.34,10.34,0,0,1,3.67-.22c1.32.19,2.62.08,3.93.16.71,0,1-.25,1-1,0-1.32,0-2.64,0-4,0-.68-.21-.91-.89-.9a34.5,34.5,0,0,0-5.56.24c-2.24.42-4.52.71-6.77,1.1-2.44.42-4.4,2-6.49,3.09-3,1.61-6.07,3-9,4.58-1.2.64-2.56.57-3.73,1.06a20,20,0,0,1-6,1.16,59,59,0,0,1-10.62-.42c-4.89-.43-9.21-2.63-13.5-4.84-2-1.05-3.86-2.5-6.08-3.21a27,27,0,0,1-3.93-1.3c-3.39-1.7-7-1.3-10.59-1.36a38.66,38.66,0,0,0-6.49.58A26.66,26.66,0,0,0,57.74,262c-4.89,2.47-9.59,5.29-14.83,7-2.58.86-5.27.94-7.92,1.29-1.63.22-3.35-.25-5.05-.08-2.27.23-4.48-.49-6.73-.66-.76-.06-1.12.07-1.07.92a28.8,28.8,0,0,1,0,3.35c-.07.87.39,1.16,1.07,1.26a53.81,53.81,0,0,0,9.55.65c3.08-.12,6.34.35,9.24-1.29a1.08,1.08,0,0,1,.48-.06c2.21-.16,4-1.67,6.1-2.08a1.34,1.34,0,0,0,.68-.45,6.62,6.62,0,0,1,2-1.33c2.1-1.17,4.24-2.22,6.45-3.19A46.36,46.36,0,0,1,71.18,264.2Zm84.35-132.68h.06c0-.12,0-.24,0-.36-.06-.87.35-1.94-.18-2.56s-1.57.09-2.39,0h-.48a25.58,25.58,0,0,0-6.35.73c-2.33.57-4.73.72-6.91,2-3.42,2-7,3.69-10.48,5.53A7.39,7.39,0,0,1,125,138a.78.78,0,0,0-.56.12c-1,1-2.24,1-3.52.84a3,3,0,0,0-1.17.14,26.17,26.17,0,0,1-6.79.94c-1.7,0-3.47-.2-5.21-.32a28.61,28.61,0,0,1-8.54-2.23c-4.48-1.81-8.68-4.28-13-6.47a8.66,8.66,0,0,0-1.56-.52c-1-.29-2.17,0-3.1-.71a5,5,0,0,0-3.22-.92c-2.21,0-4.44,0-6.64-.16a12.73,12.73,0,0,0-4.11.31,58.45,58.45,0,0,0-7.11,1.73,55.87,55.87,0,0,0-6.24,2.55c-2.37,1.24-4.6,2.79-7.08,3.81a32.33,32.33,0,0,1-7.88,2.52,55.38,55.38,0,0,1-8.35.29,17.06,17.06,0,0,1-3.41-.39,13.89,13.89,0,0,0-4.46-.6c-.65.07-.92.24-.89.92a31.38,31.38,0,0,1,0,3.36c-.08,1,.46,1.29,1.25,1.31a9.92,9.92,0,0,1,2.1.36,27,27,0,0,0,8.12.33c.84-.05,1.68-.27,2.54-.29a29.33,29.33,0,0,0,8.37-1.32c1.43-.46,2.49-1.57,3.85-2.09,3.44-1.31,6.47-3.42,9.93-4.7a30.81,30.81,0,0,1,11-2.35,6.13,6.13,0,0,0,1,0,26.78,26.78,0,0,1,9.24.12,49.6,49.6,0,0,1,13.72,5.32,57.86,57.86,0,0,0,5.49,2.67,24.71,24.71,0,0,0,8.27,2.32c1.2.07,2.42.06,3.62.24a45.86,45.86,0,0,0,6.63.19c2.4,0,4.63-1.07,6.95-1.58a18.57,18.57,0,0,0,3.67-1.29c3.88-1.74,7.39-4.18,11.41-5.68,1.12-.41,2.18-.95,3.36-1.27a33.19,33.19,0,0,1,10.34-1.3c.84,0,2,.82,2.46,0S155.53,132.43,155.53,131.52ZM155.59,255h-.07v-2.74c-.77,0-1.54.14-2.3.11l-.93-.05a40.9,40.9,0,0,0-4.57.24,7.67,7.67,0,0,0-2.86.51,5.49,5.49,0,0,1-1.22.42,27.94,27.94,0,0,0-8.26,3.14c-1.84,1.06-3.73,2.06-5.61,3a54.61,54.61,0,0,1-6.68,2.65,26.73,26.73,0,0,1-7,1.19,61,61,0,0,1-7.52-.11A30.53,30.53,0,0,1,96.83,260a90.2,90.2,0,0,1-9.23-5.09,1.12,1.12,0,0,0-.63-.29,13.24,13.24,0,0,1-5.44-1.51c-2.6-1.13-5.34-.66-8-1a27.84,27.84,0,0,0-7.57.51,36.82,36.82,0,0,0-9.21,3c-2.26,1-4.26,2.56-6.7,3.19a1.68,1.68,0,0,0-.71.43c-2.07,1.95-4.91,2.09-7.39,3a18.84,18.84,0,0,1-5.33,1c-1.82.12-3.69.72-5.42.44-2.76-.45-5.63-.2-8.3-1.2-.66-.25-.78,0-.78.59,0,1.36,0,2.72,0,4.08,0,.48.16.68.65.8a23.57,23.57,0,0,0,5.84.93c2.4,0,4.8-.17,7.19-.2a28.7,28.7,0,0,0,7.12-1.14,42.21,42.21,0,0,0,9.27-4.19c2.49-1.36,4.82-2.94,7.61-3.76,3.12-.92,6.18-1.86,9.51-1.8,2,0,4-.11,6,.09,3.61.35,7.2.43,10.69,2,2.85,1.29,5.59,2.78,8.36,4.18a35.42,35.42,0,0,0,10.14,3.81c2.65.43,5.23,1.37,8,1a1.74,1.74,0,0,1,.6,0,6.4,6.4,0,0,0,4-.23,6.4,6.4,0,0,1,2.66-.49,11.35,11.35,0,0,0,5.48-1.18c4.4-1.79,8.44-4.4,12.9-6.11a4,4,0,0,0,.81-.49,11.51,11.51,0,0,1,4.15-1.65c1.24-.32,2.69-.08,3.71-.61,2.13-1.12,4.22-.86,6.37-.57,2.41.34,2.41.35,2.41-2.14Zm0,27.29v-1.92c0-.31,0-.68-.42-.71-1.31-.09-2.73-.53-3.9-.16a36.43,36.43,0,0,1-5.81,1,27.69,27.69,0,0,0-7.39,2.33c-2.66,1.22-5.14,2.88-7.86,4-2.52,1.07-4.9,2.42-7.71,2.9-4.73.81-9.43,1.51-14.24.9a38.6,38.6,0,0,1-5.38-.83,46.4,46.4,0,0,1-11-4.87c-2.94-1.7-5.79-3.84-9.26-4.19-2.77-.28-5.42-1.43-8.3-.95-1.51.24-3.15-.26-4.62-.06a27.23,27.23,0,0,1-4.41.36c-1.66,0-3.08.93-4.63,1.36a39.68,39.68,0,0,0-8.8,4.06,59.72,59.72,0,0,1-10.41,4.4c-3.41,1.16-7,.56-10.41,1.2a.69.69,0,0,1-.35,0c-2.48-.93-5.11-.5-7.65-.93-.52-.08-.91-.06-.88.69.06,1.11,0,2.24,0,3.36,0,.26-.07.7.26.71,1.39,0,2.51,1,3.88,1.05,2.88.09,5.76.12,8.64.26a24.62,24.62,0,0,0,5.14-.67,34.15,34.15,0,0,0,6.43-1.81c2.59-.95,4.92-2.63,7.39-3.93a36.46,36.46,0,0,1,6.78-3.12,47,47,0,0,1,12-1.55,23.88,23.88,0,0,1,5.86.3c2.5.57,5.21.41,7.43,2a2.53,2.53,0,0,0,.77.33,33,33,0,0,1,6.42,3,37.05,37.05,0,0,0,11.83,4.6c1.47.27,2.87,1.12,4.39.77a9.38,9.38,0,0,1,3.68-.15c3.48.62,6.79-.3,10.09-1a30.58,30.58,0,0,0,6.23-2.46,16,16,0,0,0,3.69-2.13,10.61,10.61,0,0,1,3.35-2c2.39-.8,4.8-1.54,7.2-2.31,3.19-1,6.54-.83,9.78-1.48.7-.14,1.64.51,2,0s.13-1.45.16-2.21ZM22.15,285.84c0,.6,0,1.2,0,1.8-.07.9.36,1.05,1.19,1.2,1.65.31,3.33,0,5,.41s3.39.77,5.1.05a1.43,1.43,0,0,1,.36,0,61.21,61.21,0,0,0,8.63-1.3c3.81-1,7.07-3,10.53-4.63A68.8,68.8,0,0,1,60.11,280c2.55-.88,5.31-1.11,7.89-2a.93.93,0,0,1,.47,0c2.1.47,4.22.12,6.32.22a40,40,0,0,1,5.13.21c1.23.22,2.3.83,3.49,1.13a27.29,27.29,0,0,1,8,3.27c1.93,1.21,4,2.27,5.87,3.52a3,3,0,0,0,1.68.51,6.48,6.48,0,0,1,2.65.62,24.41,24.41,0,0,0,9.44,2,40.39,40.39,0,0,0,10.25-.95,64.26,64.26,0,0,0,8.76-3.15,9.58,9.58,0,0,0,2.86-1.38c2.69-2.25,6.12-3,9.18-4.53,1.81-.9,4-.58,5.93-1a17.93,17.93,0,0,1,5.94-.07c1.42.19,1.67-.14,1.67-1.55a15.87,15.87,0,0,1,0-2.39c.19-1.21-.49-1.5-1.43-1.61a3.47,3.47,0,0,0-.72,0c-3.19.21-6.34.06-9.53,1.06a35.22,35.22,0,0,0-9.11,3.75,32.61,32.61,0,0,1-3.75,2c-1.66.78-3.53,1.08-5,2.05a13.05,13.05,0,0,1-6.22,1.67,55.17,55.17,0,0,1-10.44.31c-1.22-.13-2.43-.16-3.66-.4s-2.39-.5-3.6-.67c-1.41-.2-3-.23-4.18-1.11-2.63-2-5.8-3-8.57-4.73-1.61-1-3.59-1.42-5.33-2.27-2.7-1.32-5.64-1.51-8.51-1.82a50.53,50.53,0,0,0-6.84.17,1.79,1.79,0,0,0-.91.23,4.07,4.07,0,0,1-2.37.41,13.41,13.41,0,0,0-6.83,1.8c-3.13,1.59-6.33,3-9.39,4.74a20.17,20.17,0,0,1-2.62,1.57,27.31,27.31,0,0,1-5.32,1.53,68,68,0,0,1-11.32.75,27.08,27.08,0,0,1-5.52-.63c-2.15-.54-2.25-.44-2.25,1.72ZM155.59,145.26a15.68,15.68,0,0,1,0-1.68c.09-.79-.27-.88-1-1.06-2.62-.65-5.12.36-7.7.38-3,0-5.7,1.5-8.45,2.54-3.26,1.24-6,3.57-9.33,4.79-1.86.68-3.41,2.06-5.51,2.34-3,.39-6,1.13-9.07,1.05a50.43,50.43,0,0,1-9.24-.67c-2.26-.48-4.37-1.62-6.75-1.59-.18,0-.36-.16-.53-.25-1.57-.85-3.16-1.66-4.68-2.57-2.92-1.75-6.13-2.94-9-4.74a2.32,2.32,0,0,0-1-.29c-2.26-.33-4.62-.13-6.78-1.15a1.89,1.89,0,0,0-1,0c-2.51.28-5,.39-7.56.47-2.77.08-5.4,1-8.06,1.61-3,.73-5.49,2.48-8.1,3.93-1.68.94-3.42,1.81-5.15,2.59a29.49,29.49,0,0,1-11.52,2.65c-2.25.06-4.5.12-6.74,0a44.54,44.54,0,0,1-5.38-.83c-.72-.14-1,0-.95.73,0,1,0,1.92,0,2.88,0,1.52.36,2,1.9,2.1a54.17,54.17,0,0,1,6.21.72c2.61.51,5.21-.16,7.79-.48s5.39-.65,7.62-2c3.39-2.05,7.2-3.17,10.56-5.25,2.48-1.55,5.44-2,8.16-3a6.46,6.46,0,0,1,1.16-.24c2.82-.52,5.66-.12,8.49-.17a31.74,31.74,0,0,1,9.42,1.49,35.55,35.55,0,0,1,9.28,3.74,51.49,51.49,0,0,0,9.07,4.37c3.24,1.25,6.71,1.38,10.15,1.62,1.41.09,2.77-.34,4.16-.24,2.83.2,5.52-.71,8.15-1.4a23.16,23.16,0,0,0,7.15-3.37,36.62,36.62,0,0,1,3.36-2,40.73,40.73,0,0,1,9.55-3.41,28.34,28.34,0,0,1,8.92-.9c2.34.14,2.34.08,2.34-2.28Zm0,123.45a9.68,9.68,0,0,1,0-1.32c.16-1.18-.34-1.55-1.49-1.49-1.89.11-3.78,0-5.68.23a37.8,37.8,0,0,0-9.23,2.41c-3.66,1.42-6.87,3.75-10.41,5.45a23.21,23.21,0,0,1-4.27,1.68c-2.7.66-5.36,1.92-8.28,1.3a.63.63,0,0,0-.24,0,8.56,8.56,0,0,1-5.34-.16,2.08,2.08,0,0,0-.7-.1,23.27,23.27,0,0,1-7-.71,28,28,0,0,1-7.46-3,68.05,68.05,0,0,0-6-3.37c-2.94-1.39-6.12-2.24-9.18-3.36a7.16,7.16,0,0,0-1.77-.16c-.73-.08-1.39.4-2.13.22a23.7,23.7,0,0,0-8.35-.44c-.66.07-1.3.42-2,.44-4,.14-7.38,2.17-10.94,3.63-3,1.22-5.38,3.46-8.52,4.55A35.93,35.93,0,0,1,36.19,277c-1,0-1.91.62-2.92.48-3.46-.47-7-.14-10.42-1-.57-.14-.71,0-.7.52,0,1.24,0,2.48,0,3.72a.72.72,0,0,0,.56.81,40.06,40.06,0,0,0,6.19,1c2.07,0,4.16-.16,6.24-.17,1.71,0,3.39-.35,5.08-.41,1.48,0,2.59-.93,3.89-1.34,2-.66,4.38-.81,6-2.6a3.32,3.32,0,0,1,1.37-.67c.84-.33,1.64-.75,2.46-1.12,2.79-1.28,5.33-3.13,8.45-3.66,1.25-.22,2.55-.29,3.73-.62a34.63,34.63,0,0,1,7.22-.79,21.51,21.51,0,0,1,7.82,1.09c3.11,1,6.36,1.65,9.26,3.44,2.09,1.29,4.43,2.26,6.58,3.48a28.14,28.14,0,0,0,9.6,3.1,33.69,33.69,0,0,0,9.41.08c1.51-.19,3,.08,4.55-.34a53.76,53.76,0,0,0,5.2-1.48,76,76,0,0,0,7.93-3.67c1.14-.6,2.09-1.62,3.27-2.1,2.51-1,5.16-1.72,7.68-2.73,1.85-.74,3.79-.17,5.64-.68a8.23,8.23,0,0,1,3.53-.06c1.81.3,1.83.19,1.83-1.68ZM151,127.27c1.61,0,2.69,0,3.77,0,.61,0,.86-.18.84-.82,0-1.16-.06-2.33,0-3.48,0-.86-.26-1.11-1.09-1.07-2.36.13-4.71-.09-7.09.41a54.28,54.28,0,0,0-6,1.35c-2.89,1-5.46,2.63-8.36,3.55a1.86,1.86,0,0,0-.59.38,21.93,21.93,0,0,1-7.84,4.07c-4,1.27-8.26,1.2-12.42,1.52-2.6.2-5.09-.54-7.62-.9-2.82-.4-5.35-1.61-8-2.45-1.83-.58-3.55-2-5.31-3a26.42,26.42,0,0,0-8.51-3.66c-3.5-.66-6.95-1.5-10.54-1.49a34.12,34.12,0,0,0-5.44.55,10.84,10.84,0,0,0-3.26.56c-2.73,1.32-5.76,1.82-8.39,3.51-1.52,1-3.31,1.59-4.91,2.53a21.48,21.48,0,0,1-3.49,1.75,34.31,34.31,0,0,1-9.38,2.33c-1.36.08-2.67.62-4,.5a54.58,54.58,0,0,1-8.17-1c-.88-.22-1.76,0-2.6-.27-.43-.13-.48.13-.48.44q0,2.16,0,4.32c0,.41.25.62.68.68,3.1.43,6.19.84,9.32,1,2.39.14,4.66-.52,7-.63a22.37,22.37,0,0,0,9.06-2.93,104.73,104.73,0,0,1,10.39-5.18c1.34-.52,2.55-1.44,4.06-1.52a9.89,9.89,0,0,0,4.23-1,2.15,2.15,0,0,1,1.52,0,7.4,7.4,0,0,0,3.21,0,7.24,7.24,0,0,1,2.49-.11c1.86.32,3.74,0,5.61.4a34.74,34.74,0,0,1,9.92,3.43c2.68,1.49,5.31,3.06,8.13,4.29a45.68,45.68,0,0,0,12.24,3,30.41,30.41,0,0,0,11.23-.84,64.41,64.41,0,0,0,6.92-2.29c2.06-.78,3.67-2.3,5.81-2.83,1-.23,1.51-1.25,2.48-1.59,2.51-.9,5-1.94,7.56-2.66A22.78,22.78,0,0,1,151,127.27Zm4.6,11a9.88,9.88,0,0,1,0-1.44c.19-1.18-.45-1.38-1.38-1.2-2.18.43-4.41.39-6.61.6a32.89,32.89,0,0,0-9.87,2.73c-3.84,1.65-7.26,4.16-11.25,5.58a46,46,0,0,1-6,1.72c-1.58.34-3.14-.13-4.66.38-.93.31-1.89,1-2.85.67a20,20,0,0,0-5.14-.79,14,14,0,0,1-2.6-.23q-3.52-1-7-2.15c-3.34-1.14-6-3.55-9.33-4.86-2.08-.82-4.15-1.68-6.26-2.46-3.62-1.32-7.45-.83-11.19-1.23-2.26-.24-4.39.56-6.6.71a16.12,16.12,0,0,0-4.47,1.06,68.59,68.59,0,0,0-8.58,4.17,39.63,39.63,0,0,1-5.07,2.58c-3.4,1.23-6.82,2.59-10.57,2.31a1.86,1.86,0,0,0-.69.15,21.49,21.49,0,0,1-5.31.36c-2.48.1-4.84-.64-7.23-1.19-.64-.15-.84,0-.82.67,0,1.24,0,2.48,0,3.72a.91.91,0,0,0,.61,1c2.15,1,4.48,1,6.75,1a26.35,26.35,0,0,1,3.08-.11,19.2,19.2,0,0,0,4.73,0,32.63,32.63,0,0,0,13.77-4.94c1.65-1,3.55-1.57,5.17-2.6,2.6-1.63,5.66-2,8.36-3.26a1.21,1.21,0,0,1,.47,0c2.83,0,5.66,0,8.49-.21,3.18-.27,6.28.75,9.36,1.32a27.45,27.45,0,0,1,11.34,5.38,1.78,1.78,0,0,0,1.2.46,2,2,0,0,1,1.55.51,8.61,8.61,0,0,0,3.87,1.68c3,.75,6,2,9.13,1.85a30.07,30.07,0,0,1,5.45,0c2,.28,3.87-.64,5.84-.83a16.66,16.66,0,0,0,3.45-.71c1.08-.34,2-.94,3-1.35a39.19,39.19,0,0,0,6.59-3.51c2.49-1.64,5.49-1.94,7.92-3.58a1.13,1.13,0,0,1,.59-.08c2.55,0,4.9-1.18,7.48-1.15,1.23,0,2.43-.45,3.72.08,1.09.46,1.53,0,1.55-1.14C155.6,139.39,155.59,138.83,155.59,138.27ZM22.15,127.59v2.22c0,.45.16.78.68.82,2.07.14,4.05,1.07,6.19.74a2.15,2.15,0,0,1,.82.12,5.7,5.7,0,0,0,2.79.16,13.65,13.65,0,0,1,4.51-.28,13.38,13.38,0,0,0,5.73-1,38.79,38.79,0,0,0,8.78-4.1c1.47-.94,3.29-1.19,4.63-2.35a8.83,8.83,0,0,1,3.07-1.48,50,50,0,0,1,6.91-1.57,23.5,23.5,0,0,1,5.14-.49c1.83.07,3.66.07,5.48.16a6.54,6.54,0,0,1,2.49.18c2.31,1,4.84,1.27,7.23,2.09a35.14,35.14,0,0,1,7,3.4c2.53,1.57,5.21,2.79,7.81,4.19a1.54,1.54,0,0,0,.44.19c2.46.53,5,.62,7.48.92a41.68,41.68,0,0,0,8.2-.19c1.08-.08,2.16-.18,3.23-.35a32.55,32.55,0,0,0,6.19-2c1.34-.49,2.9-.68,4-1.74,2.28-2.24,5.28-3.14,8.07-4.41s6.23-1.3,9.25-2.46c1.23-.48,2.78.12,4.22,0a5.3,5.3,0,0,1,2.46-.22c.65.22.66-.1.66-.56,0-1.2,0-2.4,0-3.6,0-.55-.19-.7-.74-.81a16.34,16.34,0,0,0-4.25,0,40.58,40.58,0,0,0-7.61,1,10.94,10.94,0,0,0-4.9,2c-.17.15-.45.15-.65.26-2.82,1.51-5.64,3-8.44,4.54a11.92,11.92,0,0,1-3.95,1.83,25.08,25.08,0,0,0-5.49,1.37,4.62,4.62,0,0,1-2.22.35c-3.1-.38-6.22-.38-9.33-.46a33.35,33.35,0,0,1-6.36-1.28c-1.72-.39-3.19-1.38-4.8-2-2.53-1-4.79-2.43-7.26-3.5s-4.63-2.53-7.33-3.07a37.57,37.57,0,0,0-9.43-1c-.89,0-1.84-.31-2.66.1a6.7,6.7,0,0,1-3.15.44,22.69,22.69,0,0,0-7.28,1.47c-1.94.69-3.53,2.09-5.54,2.67a7.13,7.13,0,0,0-2.16,1c-2,1.43-4.44,2-6.53,3.32a4.42,4.42,0,0,1-1.88.66,30,30,0,0,0-4.41.82,19,19,0,0,1-6.84.59,19.37,19.37,0,0,0-3.56-.15,18.85,18.85,0,0,1-4.12-.33c-.8-.12-1.85-.82-2.34-.44S22.25,126.91,22.15,127.59Zm0,31.84c0,1.62,0,3.06,0,4.49,0,1,.39,1.3,1.28,1.28a14.47,14.47,0,0,1,4.13.42,7,7,0,0,0,3.42.24,8.14,8.14,0,0,1,3.32-.14c2,.34,3.82-.22,5.73-.46a27.42,27.42,0,0,0,5.11-1.4,10.78,10.78,0,0,0,3.18-1.17,34.41,34.41,0,0,1,6.93-4.05c2.86-1.12,5.6-2.59,8.66-3.16a35.65,35.65,0,0,1,5.74-.86,84.76,84.76,0,0,1,11.81.76,9.52,9.52,0,0,1,4.27,1.31,11.35,11.35,0,0,0,2.2,1.11c1.54.63,3,1.35,4.51,2.13.8.42,1.47,1.06,2.23,1.56,2.31,1.49,5.07,1.83,7.54,2.94,3,1.36,6.29,1.51,9.51,1.68,1.41.08,2.83-.44,4.24-.41a27.57,27.57,0,0,0,12.88-3.23c3-1.48,6-3.11,8.91-4.71a8.23,8.23,0,0,1,1.92-.91c2.06-.46,4.06-1.14,6.14-1.57,3.06-.63,6.05-1.21,9.17-.7.5.08.63-.15.63-.59,0-1.32,0-2.64,0-4,0-.59-.29-.63-.77-.78a8.08,8.08,0,0,0-2.69,0,44.92,44.92,0,0,0-8.33,1.08c-4.44.91-8.05,3.73-12.18,5.38-1.78.71-3.46,1.84-5.31,2.51a17.17,17.17,0,0,1-2.69,1.16c-2.68.55-5.42.59-8.12,1.05a29.32,29.32,0,0,1-5.7.25c-1.2,0-2.41-.64-3.68-.78a14.23,14.23,0,0,1-3.1-.71c-2.21-.79-4.45-1.42-6.62-2.41-2.79-1.27-5.6-2.53-8.31-3.94a23,23,0,0,0-5.41-2.24,40.33,40.33,0,0,0-7.67-1.3,43.14,43.14,0,0,0-8.33.31,51.71,51.71,0,0,0-6.52,1.6c-4.16,1.24-7.63,4-11.57,5.83-2,.93-4.16,1.67-6.24,2.5-2.65,1.07-5.52.39-8.27.93-2.4.48-4.89-.45-7.35,0a1.21,1.21,0,0,1-.7-.09C24.82,159.94,23.45,160.16,22.15,159.43Zm90.63,13.43c1.9.2,4-.31,6.14-.45a25.64,25.64,0,0,0,6.41-1.53,38.58,38.58,0,0,0,8.83-4.47c3.36-2.18,7.14-2.92,10.8-4,3.1-1,6.42-.54,9.65-.76.66,0,1-.07,1-.89a28.7,28.7,0,0,1,0-3.47c0-.83-.29-1.17-1-1-2,.5-4-.31-6,.21s-3.86.26-5.73.85c-4,1.26-7.43,3.65-11.24,5.27a11.75,11.75,0,0,0-2.33,1.15c-2.45,1.75-5.36,2.4-8.16,3a36.7,36.7,0,0,1-9.43.83c-1.26-.08-2.53-.25-3.77-.32-1.8-.1-3.4-1-5.21-.92a3.71,3.71,0,0,1-2.35-.73,18,18,0,0,0-4-2,9,9,0,0,1-1.53-.65,55.09,55.09,0,0,0-13.26-6,9.53,9.53,0,0,0-4.68-.34,3.39,3.39,0,0,1-2-.13,6.14,6.14,0,0,0-3.6-.11,1.93,1.93,0,0,1-.82.06c-2.28-.55-4.45.09-6.64.51-1.59.3-2.91,1.31-4.43,1.66-2.93.65-5.27,2.48-7.86,3.78a49,49,0,0,1-9.72,3.93,13.88,13.88,0,0,1-3.29.89c-2.65,0-5.31.7-8,.05a8.8,8.8,0,0,0-3.07-.13,4.83,4.83,0,0,1-2.2-.26,6.32,6.32,0,0,0-2.22-.32c-.65,0-.95.19-.91.89,0,1,0,1.92,0,2.88,0,1.38.17,1.48,1.57,1.6,1.85.16,3.69.47,5.54.64a28.71,28.71,0,0,0,5.23.23,34.7,34.7,0,0,0,5.85-.8,49.51,49.51,0,0,0,8.84-3.16c1.37-.66,2.49-1.72,3.82-2.35a64.25,64.25,0,0,1,6.68-3,42,42,0,0,1,8.51-2c2.1-.24,4.18.18,6.28,0a9.32,9.32,0,0,1,5.12.77,1.73,1.73,0,0,0,.92.18,12.49,12.49,0,0,1,6.39,1.54c.31.16.61.41,1,.17a1.38,1.38,0,0,1,1.56.17c1.94,1.13,3.85,2.29,5.82,3.35,3,1.61,5.77,3.71,9.37,4.22A45.64,45.64,0,0,0,112.78,172.86Zm42.81,75a13.29,13.29,0,0,1,0-1.67c.16-1.1-.39-1.32-1.3-1.18a18.67,18.67,0,0,1-3.25.34,25.5,25.5,0,0,0-8.05,1.27,52.35,52.35,0,0,0-12.38,5.92c-1.64,1-3.71,1.16-5.22,2.48a.34.34,0,0,1-.23.05c-1.57,0-3,.78-4.52.9-2.05.15-4.05.93-6.1.75a17.45,17.45,0,0,0-4.45-.2c-1.37.21-2.67-.31-4-.51a19.53,19.53,0,0,1-6.07-1.5c-2.79-1.4-5.73-2.5-8.4-4.14a1.69,1.69,0,0,0-2.1.15,1.64,1.64,0,0,1-2.09,0c-2.46-1.48-5-2.89-7.46-4.33a4.46,4.46,0,0,0-2.73-.7c-2.25.23-4.48-.29-6.76-.08s-4.5-.09-6.59,1a2.79,2.79,0,0,1-1,.26A14.42,14.42,0,0,0,56.51,249c-1.88,1.16-3.94,2-5.83,3.14a33.67,33.67,0,0,1-5.32,2.28,19,19,0,0,1-5.8,1.62c-4,.21-8,.27-11.92.53-1.66.11-3.14-.73-4.74-1-.63-.11-.77,0-.76.58,0,1.28,0,2.56,0,3.84,0,.42,0,.85.53.95.93.18,1.77.6,2.72.77,2.53.46,5.08.19,7.62.26a19.45,19.45,0,0,0,5.21-.26c2.23-.55,4.38-1.47,6.6-1.85s4.07-1.7,5.92-2.69c2.32-1.23,4.77-2.25,7-3.7a5.41,5.41,0,0,1,1.75-.68c2.69-.65,5.31-1.64,8.15-1.62,2.11,0,4.12-1.24,6.3-.52a9.89,9.89,0,0,0,2.6.25,19.06,19.06,0,0,1,3.55.32,28.3,28.3,0,0,1,9.38,3.45c1,.68,2.5.59,3.36,1.39a14.81,14.81,0,0,0,4,2.25c1.77.83,3.45,2,5.44,2.25,1.79.24,3.48.93,5.29,1.11a30.39,30.39,0,0,0,6.6.22,16,16,0,0,1,3.09-.19,10.46,10.46,0,0,0,3.42-.33c3.5-1,7-1.86,10.17-3.94a41.94,41.94,0,0,1,13.53-5.8,25,25,0,0,1,2.66-.55c1.83-.22,3.66-.11,5.49-.21C155.59,250.69,155.59,250.66,155.59,247.9Zm-43.06,52.72h12.84a4.32,4.32,0,0,0,1.62-.28A115.77,115.77,0,0,0,138,295c3.49-1.76,7.27-2,10.94-2.83a24.8,24.8,0,0,1,5.71-.23c.81,0,1-.28,1-1a26.94,26.94,0,0,1,0-3.24c0-.82-.19-1.14-1.06-1.1-1.68.06-3.38-.15-5,.05-2.34.29-4.72.36-7,1.31-2.85,1.2-5.7,2.35-8.46,3.82a62.34,62.34,0,0,1-6.37,3.24,42.78,42.78,0,0,1-12.18,2.81,34.36,34.36,0,0,1-17.37-2.68c-2.2-1-4.28-2.19-6.41-3.32-1.21-.63-2.65-.78-3.69-1.78-1.44-1.4-3.47-1.75-5.2-2.09-2.81-.56-5.58-1.48-8.61-1.23a39.43,39.43,0,0,1-6.6-.11,1.54,1.54,0,0,0-.71.05c-3.06,1.23-6.56,1.09-9.39,3.05-1.93,1.34-4.35,1.67-6.28,3-1.31.89-2.56,2-4.06,2.41-2.76.71-5.27,2.11-8.3,2.23-2.68.11-5.36,1-8.09.54-2-.34-4,0-5.92-.49-2.8-.75-2.76-.73-2.81,2.06,0,1,.31,1.26,1.29,1.25,6.56,0,13.12-.12,19.67,0a14.48,14.48,0,0,0,8.11-2.56c2.36-1.46,5-2.44,7.33-3.82,1.49-.86,3.22-.8,4.73-1.44a9.75,9.75,0,0,1,4.42-.7,9.73,9.73,0,0,0,1.08,0c4-.28,8.09-.69,12.07.5,2.29.69,4.76.84,6.86,2.15a7.18,7.18,0,0,0,2,1.09c2.51.62,4.37,2.58,6.84,3.24a1.64,1.64,0,0,1,.74.58,2.85,2.85,0,0,0,2.35.93C103.89,300.61,108.21,300.62,112.53,300.62ZM22.15,175.82v1.92c0,.42.08.81.6.89,2.14.31,4.16,1.64,6.36,1.15a33,33,0,0,1,6.94-.31c3.92-.05,7.42-1.44,11-2.66,3.09-1.07,5.75-3.13,8.77-4.49,2.18-1,4.47-1.74,6.67-2.67a13.76,13.76,0,0,1,7.21-1.1,1.21,1.21,0,0,0,.6,0c2.29-.92,4.51.22,6.76.21.87,0,1.71.73,2.53.3,2-1.07,4-2.25,5.93-3.4.16-.09.4-.17.34-.43s-.23-.28-.44-.32c-1.47-.27-2.89-.76-4.34-1.15a38.06,38.06,0,0,0-7.91-.73,55.23,55.23,0,0,0-7.14.4c-3.07.25-5.7,1.49-8.37,2.57-3.17,1.27-6,3.26-9.12,4.78a26.06,26.06,0,0,1-5.91,2.36c-.72.16-1.46-.17-2.17.17-1.78.87-3.74.67-5.62,1a43.59,43.59,0,0,1-4.85,0c-.61,0-1.22.3-1.85,0a13,13,0,0,0-3.3-.89c-2.31-.48-2.65-.19-2.65,2.13Zm133.44,65.34c0-.68,0-1.37,0-2s-.28-.92-.85-.77a21.56,21.56,0,0,1-5,.2A27.33,27.33,0,0,0,137.3,242c-2.64,1.42-5.26,2.9-8,4.21a37.5,37.5,0,0,1-17,3.43,38.47,38.47,0,0,1-12.63-2.16c-2.46-.87-4.19-.76-6.09.71a3.47,3.47,0,0,1-.72.42c-.61.26-.44.59,0,.81.8.43,1.67.72,2.45,1.19a28.12,28.12,0,0,0,14.09,4.26c1.71,0,3.35.61,5.07.47a47.27,47.27,0,0,0,8.91-1.58,6.39,6.39,0,0,0,1.4-.23c2.79-1.34,5.62-2.6,8.39-4,2.05-1,4-2.26,6-3.35,2.37-1.29,5.19-1.61,7.85-2a30.13,30.13,0,0,1,5.88-.37C155.58,244,155.59,243.92,155.59,241.16Zm0-6.64h0c0-.64,0-1.28,0-1.92,0-.47-.1-.8-.65-.75a13.59,13.59,0,0,1-3.43-.27c-3-.48-5.69.86-8.51,1.35-3.13.53-5.76,2.44-8.56,3.84-2,1-4,2.1-6.11,3a30.28,30.28,0,0,1-6.66,2c-3.13.61-6.25,1.42-9.49.84a3.38,3.38,0,0,0-1.55.06,4.36,4.36,0,0,1-2.92-.14c-1.88-.72-3.65-.82-5.34.55a21,21,0,0,1-2.05,1.23c-.47.29-1.29.43-1.31.92s.89.45,1.31.77a3.5,3.5,0,0,0,.65.3,21.23,21.23,0,0,0,10.1,1.92c2.21-.11,4.45-.42,6.63-.32,3.89.18,7.32-1.06,10.66-2.69,4-1.95,7.43-4.92,11.89-5.9a.93.93,0,0,0,.24,0,14.65,14.65,0,0,1,8.59-1.87c1.41.06,2.68-.64,4.11-.55.76.06,1.76.78,2.24.07S155.59,235.35,155.63,234.52ZM77.15,170.45l0-.27c-1.59-.13-3.19-.35-4.78-.37a33.56,33.56,0,0,0-11.77,2,52,52,0,0,0-9.87,4.8,15.09,15.09,0,0,1-4.54,2c-1.92.43-3.66,1.4-5.66,1.66s-4.07.58-6.13.71c-3,.17-5.93.56-8.86-.39a8.09,8.09,0,0,0-2.69-.4c-.54,0-.69.18-.68.69a17.55,17.55,0,0,1,0,3c-.18,1.29.5,1.72,1.55,1.91,3,.55,6.15.53,9.2,1,1.42.2,2.72-.48,4.06-.63a22.61,22.61,0,0,0,5.45-1.08c1.4-.52,3-.3,4.28-1.27,2.09-1.53,4.54-2.48,6.77-3.79,1.79-1.05,4-1.46,5.8-2.57,1.34-.8,3-.68,4.42-1.26a5.39,5.39,0,0,1,3.19-.56,2.86,2.86,0,0,0,1.83-.31C71.52,173.74,74.33,172.08,77.15,170.45Zm5.42-56-.06.23c1.13.43,2.25.88,3.38,1.29a32.46,32.46,0,0,1,5.41,2.36c1.43.83,2.82,1.75,4.31,2.48a35.61,35.61,0,0,0,10.46,3.58c1.32.2,2.58.94,3.93.71a22.12,22.12,0,0,1,3.72-.22,52.87,52.87,0,0,0,9.54-1,21.74,21.74,0,0,0,5.51-2.29c2.5-1.23,4.75-2.94,7.32-4,1.87-.8,3.54-2.09,5.67-2.28a5.47,5.47,0,0,0,1.45-.55c-3.72-.21-7.38-.21-11-.2A1.89,1.89,0,0,0,131,115a14.82,14.82,0,0,1-4.35,2.14,32.77,32.77,0,0,1-8,2,24.29,24.29,0,0,1-6.09.52c-1.88-.24-3.78-.25-5.65-.59-3.74-.68-7.47-1.33-10.69-3.56a5.79,5.79,0,0,0-3-1C89.67,114.35,86.12,114.42,82.57,114.42ZM76.14,244c-2.41-1.4-4.64-2.55-6.72-3.93a5.62,5.62,0,0,0-4.64-1A27.51,27.51,0,0,0,60,240.58a26,26,0,0,1-2.58,1.15,17,17,0,0,0-5.59,2.78,4.55,4.55,0,0,1-2.13,1,3.94,3.94,0,0,0-1.9.92,3.87,3.87,0,0,1-1.53.86c-1.81.42-3.52,1.13-5.31,1.61a29.91,29.91,0,0,1-6.56.88,40.6,40.6,0,0,1-4.8-.12c-2.25-.17-4.53,0-6.7-.8-.56-.2-.71,0-.71.5,0,1.28,0,2.56,0,3.84a.71.71,0,0,0,.57.79,32.15,32.15,0,0,0,6.86,1.21,73.5,73.5,0,0,0,8.9-.47c4.59-.41,8.61-2.38,12.58-4.51,2.8-1.51,5.58-3.1,8.5-4.34a30.45,30.45,0,0,1,6.88-1.49c2.17-.38,4.3-1,6.54-.48A6.66,6.66,0,0,0,76.14,244Zm30-70c.25.17.5.35.77.5,2.62,1.52,5.27,3,7.87,4.57a3.87,3.87,0,0,0,2.87.47c2.38-.46,4.82-.58,7.07-1.74,2-1.06,4.41-1.42,6.26-2.93a3.45,3.45,0,0,1,1.53-.62,3.09,3.09,0,0,0,2.36-1.33,2.07,2.07,0,0,1,1.8-.77,1.81,1.81,0,0,0,1.11-.28A20.1,20.1,0,0,1,149,168.74c1.54,0,3.06-.14,4.58-.19,2-.08,2-.09,2-2,0-.88,0-1.76,0-2.63.06-1-.62-1.36-1.35-1.12-1.51.5-3.06.23-4.58.36a34.93,34.93,0,0,0-9.34,2,52.07,52.07,0,0,0-6.51,3.16c-.79.43-1.87.5-2.46,1.09-1.48,1.48-3.47,1.85-5.23,2.67a26.4,26.4,0,0,1-9.08,2A41.17,41.17,0,0,1,106.13,174Zm.67,66.63.08.48a14.33,14.33,0,0,1,3.71.06c2.5.67,4.94.15,7.37-.08a25.28,25.28,0,0,0,7.46-1.75c2.29-1,4.63-1.82,6.82-3,3.23-1.71,6.17-4,9.94-4.58a10.63,10.63,0,0,0,2.63-.63,11.68,11.68,0,0,1,5-.93,24,24,0,0,1,3.88.22c1.4.26,1.92-.27,1.92-1.67,0-.92-.06-1.84,0-2.75s-.24-1.1-1.13-1.17c-3.84-.27-7.56.66-11.33,1a2.17,2.17,0,0,0-1.09.43,8.38,8.38,0,0,1-2.84,1.17,12.67,12.67,0,0,0-4,1.77,33.65,33.65,0,0,1-7,3.78c-2.62,1-5.3,1.79-8,2.66a2.48,2.48,0,0,1-.9.11,12.14,12.14,0,0,0-8.07,2.16A45.63,45.63,0,0,1,106.8,240.63Zm-42.2-3.28-5.37-3.11a.76.76,0,0,0-.76,0c-3.44,1.4-6.52,3.49-9.89,5-2.31,1.05-4.74,1.65-7.07,2.55a20.36,20.36,0,0,1-6.85,1.2c-1.77,0-3.6.07-5.34-.06a47.42,47.42,0,0,1-6.39-1.09c-.74-.16-.8.1-.79.68a28.67,28.67,0,0,1,0,3.47c-.11,1.05.48,1.37,1.25,1.44a82,82,0,0,0,8.88.8,35.51,35.51,0,0,1,3.56-.26,16.2,16.2,0,0,0,6.7-1,44.7,44.7,0,0,0,8.58-4c2.69-1.68,6-2.2,8.51-4.28a.49.49,0,0,1,.33-.11C61.59,238.84,62.93,237.73,64.6,237.35ZM50.45,300.61h9.62a1.33,1.33,0,0,0,.59-.12c2.81-1.41,5.94-1.1,8.91-1.62a22.67,22.67,0,0,1,5.52.16,84.13,84.13,0,0,1,8.7,1.14c3.7.65,7.38.35,11.08.4,0,0,0-.12.08-.18a16.27,16.27,0,0,0-3.35-2c-.54-.24-1.23-.26-1.65-.62-1.4-1.19-3.16-1.64-4.75-2.4A9.22,9.22,0,0,0,81.59,294c-2-.09-3.91-.32-5.87-.41-4.16-.18-8.32-.42-12.34,1-1.62.56-3.45.41-4.9,1.21C55.8,297.2,52.94,298.41,50.45,300.61ZM155.59,172.49v-.84c0-2,0-2-2-1.73a5.37,5.37,0,0,1-1,.08,25.08,25.08,0,0,0-11,1.66c-2.05.78-4.31,1.18-6.08,2.53a41.31,41.31,0,0,1-5.79,3.18,36,36,0,0,1-10.43,3.34c-.23,0-.55,0-.62.26s.29.44.51.57c1.65,1,3.33,1.9,5,2.88a1.7,1.7,0,0,0,1.47.13c1.94-.5,3.37-2,5.22-2.68,2.12-.83,4-2.42,6.16-3,3.59-1,6.85-3.19,10.86-2.94,1.72.11,3.52-.39,5.32-.38,2.51,0,2.51,0,2.51-2.54ZM22.15,118.19v5.06c0,.43.09.79.59.9a9.29,9.29,0,0,0,3.38.38,8.65,8.65,0,0,1,2.59,0,17.07,17.07,0,0,0,4.93.49c2.21-.34,4.52-.19,6.64-1.07a3,3,0,0,1,1.15-.27c2.29.08,4.2-1.11,6.14-2,2.54-1.16,4.86-2.78,7.38-4s5.32-2.65,8.42-3.08c-.19-.14-.24-.21-.29-.21l-11.16,0a1.61,1.61,0,0,0-.79.21,59.93,59.93,0,0,1-5.48,2.47,25.25,25.25,0,0,1-9,2.11c-1.67.09-3.24.73-4.91.57C28.51,119.49,25.28,119.52,22.15,118.19Zm42.54,59.45A33.69,33.69,0,0,0,56,180.53c-3.18,1.59-6.14,3.61-9.52,4.83-1.18.42-2.55.24-3.56,1.15a4,4,0,0,1-1.62.7c-1.38.43-2.88,0-4.23.52a5,5,0,0,1-2.9.38,12.87,12.87,0,0,0-2.13-.19,76.1,76.1,0,0,1-9.17-.76c-.64-.12-.77,0-.76.59,0,1.15.06,2.32,0,3.47s.39,1.38,1.34,1.34c2.36-.12,4.59.77,6.93.9a22.67,22.67,0,0,0,5.77-.12,26.73,26.73,0,0,1,5.24-.77,3.08,3.08,0,0,0,1.5-.35,36,36,0,0,1,5.53-2.3c1.85-.71,2.28-1.15,2.25-3a1.85,1.85,0,0,1,1.09-1.81c3.41-1.93,6.79-3.9,10.18-5.86Zm-7.47,55.45c-1.28-.74-2.57-1.45-3.81-2.23a1.24,1.24,0,0,0-1.7.06A4.59,4.59,0,0,1,50,232.14c-2.45.49-4.64,1.7-7,2.47-2.94,1-5.91,1-8.89,1.28a43.32,43.32,0,0,1-11.23-.9c-.59-.11-.77.08-.75.67,0,1.28,0,2.56,0,3.83,0,.54.18.71.72.85a34.89,34.89,0,0,0,7.24,1.14,34.1,34.1,0,0,0,7.42-.24,46.39,46.39,0,0,0,5.06-1.18A28.43,28.43,0,0,0,50.17,237c1.86-1.18,3.59-2.57,5.83-3A1.7,1.7,0,0,0,57.22,233.09Zm60.82,1c1.74-.26,3.53-.31,5.26-.65a23.35,23.35,0,0,0,6-2.57c3.82-2,7.48-4.24,11.53-5.7a30.87,30.87,0,0,1,5.36-1.41c2.7-.46,5.42-1.26,8.19-.28.1,0,.24,0,.36,0,.63.06.94-.14.91-.86,0-1.28,0-2.56,0-3.84,0-.79-.33-1.08-1-.85a10.56,10.56,0,0,1-4.11.12,19,19,0,0,0-6.15.74,61.39,61.39,0,0,0-9,3.52c-3,1.35-5.6,3.23-8.56,4.56a.9.9,0,0,0-.5,1.09,1.87,1.87,0,0,1-1.22,2.07C122.72,231.38,120.39,232.76,118,234.12Zm8.27-36.49a13.22,13.22,0,0,0,2.85-1c3.07-1.26,5.78-3.21,8.86-4.49,4.45-1.86,8.89-3.54,13.84-3.24,1.18.08,2.75.52,3.47-.19s.16-2.35.27-3.57c.09-1,0-1.48-1.38-1.68-2.69-.39-5.23.24-7.78.56a27.78,27.78,0,0,0-9.87,3.49,33.45,33.45,0,0,1-3.71,2c-2,.79-3.87,1.95-5.86,2.81a1,1,0,0,0-.7,1C126.32,194.76,126.31,196.16,126.31,197.63Zm29.28,16.11v-2.16c0-.39-.11-.89-.5-.8-1.27.28-2.55-.35-3.73,0-2.64.78-5.46.66-8.07,1.63-1.32.5-2.81.57-4.08,1.16-3.11,1.44-6.16,3-9.17,4.68-1.17.64-2.74.93-3.47,1.91s-.14,2.7-.27,4.08c-.08.84.25.95.94.7,2-.71,3.62-2.08,5.59-2.83,1-.37,1.94-.9,2.9-1.33,1.71-.76,3.16-2,5-2.48,3-.73,5.91-2,9.12-1.76a7.52,7.52,0,0,0,3.17.05c.77-.26,1.95.35,2.37-.28S155.57,214.61,155.59,213.74Zm0-13.56V197.9c0-.28,0-.74-.32-.67-1.16.28-2.27-.31-3.42-.12q-3.37.54-6.75,1a17,17,0,0,0-6.68,2.08,27.06,27.06,0,0,1-4.7,2.71c-2.42.88-4.58,2.29-6.92,3.34a.77.77,0,0,0-.5.74c0,1.28,0,2.56,0,3.84,0,.43.16.81.62.54,1.07-.62,2.42-.69,3.37-1.45a23.13,23.13,0,0,1,5.54-3.08,4.7,4.7,0,0,0,1.19-.51c1.87-1.56,4.24-1.86,6.44-2.52a37.38,37.38,0,0,1,6.61-1,12.2,12.2,0,0,1,4,0c1.49.31,1.51.22,1.51-1.34Zm-3-18c.74,0,1.34,0,1.93,0,.81.07,1.17-.16,1.11-1a26.91,26.91,0,0,1,0-3.36c0-1-.39-1.16-1.28-1.22-2.31-.16-4.56.37-6.84.52a22.91,22.91,0,0,0-8.26,2.2c-3.29,1.55-6.45,3.36-9.68,5s-3.25,1.66-3.24,5.29v.24c0,1.33.06,1.38,1.32.76,1.46-.71,2.91-1.45,4.31-2.25,1.68-1,3.4-1.8,5-2.86a20.56,20.56,0,0,1,5.63-2.1A33.11,33.11,0,0,1,152.57,182.23Zm-121.67,25c3.44,0,6.4-.46,9.38-.69,2.26-.18,4.15-1.46,6.26-2.1a16.78,16.78,0,0,0,3.59-2c1.39-.87.29-2.64.58-4a1,1,0,0,0,0-.24c0-.59-.16-.84-.78-.57a13.08,13.08,0,0,1-2.62,1.06c-3.47.69-6.59,2.64-10.19,2.84-1.06.06-2.12.05-3.17.18a6.78,6.78,0,0,1-3.29-.19,3.78,3.78,0,0,0-2.23-.08,4.07,4.07,0,0,1-3.22-.37,4.41,4.41,0,0,0-2.41-.47c-.57,0-.66.23-.66.71,0,1.24,0,2.48,0,3.71,0,.56.24.78.78,1C25.64,207.22,28.52,207,30.9,207.21Zm124.69-14.05a13.44,13.44,0,0,1,0-1.68c.14-1-.31-1.19-1.21-1.18-1.88,0-3.69.68-5.64.31s-3.77.92-5.74,1.15c-2.38.28-4.35,1.9-6.62,2.64a4.76,4.76,0,0,0-1.31.54,31.72,31.72,0,0,1-7.82,4.15,1.24,1.24,0,0,0-1,1.41,26.94,26.94,0,0,1,0,3.24c0,.92.29.94,1,.65a69.57,69.57,0,0,0,6.81-3.52,38.09,38.09,0,0,1,8.84-3.81c3.57-.83,7.2-.89,10.79-1.38.59-.09,1.35.59,1.72,0,.28-.48.08-1.24.09-1.88Zm-29.28,25c2.88-.45,5.16-2.1,7.53-3.41a39,39,0,0,1,7.62-3.34c3-.91,6-1.93,9.15-1.74a41.05,41.05,0,0,0,4.32-.28c.43,0,.67-.14.66-.63,0-1.28,0-2.56,0-3.83,0-.46-.16-.73-.62-.63a14,14,0,0,1-4.52-.05c-1.57-.18-2.94.65-4.41.7a15.9,15.9,0,0,0-7.85,2.36c-1.48.91-3.05,1.66-4.6,2.44-2.29,1.16-4.59,2.29-6.9,3.41a.61.61,0,0,0-.38.66Zm-75.6-4.24c0-.9,0-1.5,0-2.1.05-.8-.26-.93-.88-.52a24.36,24.36,0,0,1-5.18,2.28c-4.23,1.54-8.68,1.83-13.13,2-.85,0-1.57-.51-2.43-.49a27.54,27.54,0,0,1-6.08-.56c-.84-.17-.88.12-.87.74,0,1.2,0,2.4,0,3.6a1,1,0,0,0,.95,1.1c.86.13,1.71.28,2.56.44a37.27,37.27,0,0,0,5.87.56c1.8.05,3.53-.44,5.32-.54a25.86,25.86,0,0,0,12-3.25C50.38,216.19,51.1,215.33,50.71,213.89Zm-.06,10.92a2.17,2.17,0,0,0-1.23.45A13.82,13.82,0,0,1,47,226.57a21.88,21.88,0,0,1-6.68,1.85,71.16,71.16,0,0,1-7.43.79c-3.38,0-6.69-.66-10-1-.67-.07-.75.07-.75.62,0,1,0,2.07,0,3.11,0,1.59.34,2.07,1.92,2.13,3,.1,6,.86,9.08.58a54.93,54.93,0,0,0,8.76-1.2c1.81-.46,3.41-1.47,5.2-2a15.57,15.57,0,0,0,3.5-1.71c.2-.11.35-.21.28-.45C50.48,227.87,50.86,226.38,50.65,224.81Zm.06-34.3c-1.67.43-2.87,1.55-4.4,2A66.39,66.39,0,0,1,35.26,195a13.73,13.73,0,0,1-5.5-.23c-2.29-.67-4.64-.41-6.92-.85-.51-.1-.71.11-.7.64q0,1.86,0,3.72c0,.72.3,1,1,1,1,.07,2,.36,3,.44,1.43.11,2.74.94,4.18.72,3.66-.56,7.38-.08,11-1.3,2.84-.95,5.6-2.1,8.44-3a1.2,1.2,0,0,0,.9-1.35C50.67,193.37,50.71,192,50.71,190.51ZM34,213.94c2,0,4,.13,5.86-.74a4.6,4.6,0,0,1,2-.25,2.35,2.35,0,0,0,1.28-.19c2.07-1.17,4.34-1.87,6.48-2.87a1.55,1.55,0,0,0,1.09-1.72c-.08-1.07,0-2.15,0-3.23,0-.28,0-.67-.13-.79s-.58.09-.85.24c-.86.47-1.48,1.4-2.48,1.54-2.35.33-4.49,1.38-6.82,1.84a65.16,65.16,0,0,1-7.85,1c-1.27.09-2.42-.46-3.63-.47a39.39,39.39,0,0,1-5.32-.48c-1.45-.21-1.48-.17-1.48,1.26a19.1,19.1,0,0,1,0,2.27c-.14,1.16.39,1.6,1.47,1.81C27.05,213.91,30.56,213.7,34,213.94Zm16.68,3.57a11.08,11.08,0,0,1-4.51,2.42c-.67.24-1.34.46-2,.76a15.64,15.64,0,0,1-6.69,1.22c-2,0-4,.1-6,.24a15.07,15.07,0,0,1-6.09-.55,7.43,7.43,0,0,0-2.47-.32c-.62,0-.84.24-.82.85,0,1.32,0,2.64,0,4,0,.56.21.73.76.81,4.06.54,8.11,1.32,12.23.47,1.54-.32,3.13,0,4.69-.43,2.17-.6,4.28-1.32,6.4-2.08A15.92,15.92,0,0,0,50.15,223a1,1,0,0,0,.57-.93C50.69,220.66,50.71,219.27,50.71,217.51Zm80.08,83.11a65.43,65.43,0,0,1,7.28.06c2.57.29,4.73-1.15,7.19-1.26,2.2-.1,4.33-1,6.59-.79,1,.1,2,.17,2.93.24.51,0,.83-.07.82-.7q0-2.1,0-4.2c0-.53-.23-.8-.71-.67a11.15,11.15,0,0,1-3.16,0,40.09,40.09,0,0,0-7.86,1.08C139,295.35,135.06,298.27,130.79,300.62ZM97.48,114.49c1.52,1.33,3.34,1.3,4.94,1.88a31.21,31.21,0,0,0,10,1.54c1.45,0,2.89-.15,4.36,0a16.64,16.64,0,0,0,7.78-1.69,18.37,18.37,0,0,0,4-1.7Zm-50,.21-.08-.29h-.93q-11.52,0-23,0c-.51,0-1.31-.33-1.28.72,0,.81-.34,1.87,1,1.94a23.21,23.21,0,0,1,3,.59c3.22.61,6.49-.07,9.71.46,2.32.39,4.27-1,6.42-1.46A21.91,21.91,0,0,0,47.48,114.7Zm99.16,185.81h7.08A12.81,12.81,0,0,0,146.64,300.51Zm-72.36.05c-1.43-.88-2.57-.31-3.73,0Z"/><polygon class="cls-4" points="125.1 186.04 88.28 207.3 51.47 186.04 88.28 164.78 125.1 186.04"/><polygon class="cls-5" points="125.1 186.04 125.1 228.53 88.28 249.79 88.28 207.3 125.1 186.04"/><polygon class="cls-4" points="88.28 207.3 88.28 249.79 51.47 228.53 51.47 186.04 88.28 207.3"/><path class="cls-6" d="M76.73,1V89h98.82v130.4H410.89V1H76.73ZM211.66,59.08H310.4V79.62H211.66ZM310.4,161.36H211.66V140.8H310.4Zm57.47-40.86H269.11V99.94h98.76Z"/><rect class="cls-5" x="410.89" y="1.01" width="11.4" height="218.4"/><circle class="cls-5" cx="88.29" cy="406.74" r="16.34"/><rect class="cls-4" x="211.66" y="59.08" width="98.74" height="20.54"/><polygon class="cls-4" points="471.98 346.95 227.9 345.8 419.68 268.68 471.98 346.95"/><polygon class="cls-5" points="419.68 268.68 227.9 345.8 349.36 163.46 419.68 268.68"/></g></g></svg>