<svg xmlns="http://www.w3.org/2000/svg" viewBox="0 0 434.86 325.17"><defs><style>.cls-1{fill:none;}.cls-1,.cls-2,.cls-3,.cls-4{stroke:#222221;stroke-linecap:round;stroke-linejoin:round;stroke-width:2px;}.cls-2{fill:#eabd7c;}.cls-3{fill:#222221;}.cls-4{fill:#b7d9e4;}</style></defs><title>Element 82</title><g id="Ebene_2" data-name="Ebene 2"><g id="Ebene_28" data-name="Ebene 28"><path class="cls-1" d="M168.61,32.51A10.88,10.88,0,1,1,179.5,43.4,10.88,10.88,0,0,1,168.61,32.51Z"/><polygon class="cls-1" points="433.86 64.06 433.86 210.88 144.69 210.88 144.69 64.06 214.28 64.06 214.28 1 214.28 1 214.28 64.06 433.86 64.06"/><rect class="cls-2" x="214.28" y="1" width="219.57" height="63.06"/><rect class="cls-1" x="433.85" y="1" width="0.01" height="63.06"/><path class="cls-3" d="M144.69,1V64.06h69.59V1ZM179.5,43.4a10.88,10.88,0,1,1,10.86-10.89A10.88,10.88,0,0,1,179.5,43.4Z"/><path class="cls-1" d="M190.36,32.51A10.88,10.88,0,1,1,179.5,21.65,10.86,10.86,0,0,1,190.36,32.51Z"/><rect class="cls-1" x="177.26" y="97.56" width="158.19" height="83.39"/><path class="cls-1" d="M190.36,32.51A10.88,10.88,0,1,1,179.5,21.65,10.86,10.86,0,0,1,190.36,32.51Z"/><circle class="cls-3" cx="386.53" cy="165.48" r="13.61"/><path class="cls-1" d="M177.27,97.55v83.39H335.46V97.55Zm79.09,41.71h26.37v13.9H256.36Zm52.73-13.91H282.73v-13.9h26.36ZM203.63,153.16H230v13.91H203.63Zm0-27.81H230v13.91H203.63Z"/><line class="cls-1" x1="203.63" y1="167.07" x2="177.27" y2="167.07"/><polyline class="cls-1" points="335.46 167.07 309.09 167.07 282.73 167.07 256.36 167.07 230 167.07"/><line class="cls-1" x1="256.36" y1="153.16" x2="230" y2="153.16"/><line class="cls-1" x1="203.63" y1="153.16" x2="177.27" y2="153.16"/><polyline class="cls-1" points="335.46 153.16 309.09 153.16 282.73 153.16"/><line class="cls-1" x1="203.63" y1="139.26" x2="177.27" y2="139.26"/><polyline class="cls-1" points="282.73 139.26 309.09 139.26 335.46 139.26"/><line class="cls-1" x1="256.36" y1="139.26" x2="230" y2="139.26"/><polyline class="cls-1" points="230 125.36 256.36 125.36 282.73 125.36"/><line class="cls-1" x1="203.63" y1="125.35" x2="177.27" y2="125.35"/><line class="cls-1" x1="335.46" y1="125.35" x2="309.09" y2="125.35"/><rect class="cls-3" x="282.73" y="111.45" width="26.36" height="13.9"/><polyline class="cls-1" points="282.73 111.45 256.36 111.45 230 111.45 203.63 111.45 177.27 111.45"/><line class="cls-1" x1="335.46" y1="111.45" x2="309.09" y2="111.45"/><rect class="cls-3" x="203.63" y="125.35" width="26.36" height="13.9"/><rect class="cls-3" x="203.63" y="153.16" width="26.36" height="13.9"/><line class="cls-1" x1="203.63" y1="139.26" x2="203.63" y2="153.16"/><line class="cls-1" x1="203.63" y1="167.07" x2="203.63" y2="180.94"/><polyline class="cls-1" points="203.63 97.55 203.63 111.45 203.63 125.36"/><line class="cls-1" x1="230" y1="139.26" x2="230" y2="153.16"/><line class="cls-1" x1="230" y1="167.07" x2="230" y2="180.94"/><polyline class="cls-1" points="230 97.55 230 111.45 230 125.36"/><polyline class="cls-1" points="256.36 153.16 256.36 167.07 256.36 180.94"/><polyline class="cls-1" points="256.36 97.55 256.36 111.45 256.36 125.36 256.36 139.26"/><line class="cls-1" x1="282.73" y1="125.35" x2="282.73" y2="139.26"/><polyline class="cls-1" points="282.73 180.94 282.73 167.07 282.73 153.16"/><line class="cls-1" x1="282.73" y1="97.55" x2="282.73" y2="111.45"/><rect class="cls-3" x="256.36" y="139.26" width="26.36" height="13.9"/><polyline class="cls-1" points="309.09 180.94 309.09 167.07 309.09 153.16 309.09 139.26 309.09 125.36"/><line class="cls-1" x1="309.09" y1="97.55" x2="309.09" y2="111.45"/><path class="cls-4" d="M1,324.17H58.43s3.54-33.61,5-44.78c1.31-10.27-1.79-21.86,13.81-22.31s23.12-.54,35.6-15.93,17.34-15.39,24.67-15.84c9.75-.65,30.95,1,39-1.25s5.35-13.14-10.71-16-39.44-.68-42.93-.9S106,203.56,105.36,187s10.47-21.34,17.51-22.73c11.69-2.32,41.83-2.45,47.63-2.9S185,157,185,152s-3.35-5.12-3.35-5.12-23.27,1-42,1.49c-6.51.17-12.46.29-16.74.29-1.54,0-3.06.05-4.53.16h0a71.86,71.86,0,0,0-20.25,4.31s-.08,0-.09.05c-1.58.65-2.67,1.14-3.19,1.35l-.34.13S85.8,160,74.37,168.21c-10.94,7.86-24.48,18.33-35.33,29.2C16.85,219.6,19.71,229.87,16.85,244,12.77,264,1,324.17,1,324.17Z"/><path class="cls-1" d="M94.78,154.56c.52-.21,1.61-.7,3.19-1.35A28.93,28.93,0,0,0,94.78,154.56Z"/><path class="cls-4" d="M98.06,153.16a71.86,71.86,0,0,1,20.25-4.31h0c1.47-.11,3-.16,4.53-.16,4.28,0,10.23-.12,16.74-.29,8.39-4.24,21.26-10.78,26.79-13.76a15.21,15.21,0,0,0,7.22-10.09c1.09-6.61-4.47-3.79-6.85-2.53-7.77,4.07-21.85,10.51-35.54,16.64h0C117.51,144.74,104.22,150.51,98.06,153.16Z"/><path class="cls-4" d="M74.37,168.21C85.8,160,94.44,154.69,94.44,154.69l.34-.13A28.93,28.93,0,0,1,98,153.21s0,0,.09-.05c6.16-2.65,19.45-8.42,33.16-14.5-9.29-.1-25.06-.18-33.77.05-12.83.33-14,9.86-17,15.36C78.5,157.77,75.9,164.32,74.37,168.21Z"/><path class="cls-1" d="M94.78,154.56c.52-.21,1.61-.7,3.19-1.35A28.93,28.93,0,0,0,94.78,154.56Z"/></g></g></svg>