<svg xmlns="http://www.w3.org/2000/svg" viewBox="0 0 245.09 503.28"><defs><style>.cls-1{fill:#e5dfd3;}.cls-1,.cls-2,.cls-3,.cls-4,.cls-5,.cls-6{stroke:#222221;stroke-linecap:round;stroke-linejoin:round;stroke-width:2px;}.cls-2{fill:none;}.cls-3{fill:#b7d9e4;}.cls-4,.cls-7{fill:#eabd7c;}.cls-5{fill:#fff;}.cls-6{fill:#222221;}</style></defs><title>Element 76</title><g id="Ebene_2" data-name="Ebene 2"><g id="Body"><path class="cls-1" d="M224.11,452.81v0l-8.35,4.56h0v0s-14.69-10.21-30.06-23.17l-4.12-31.63a.66.66,0,0,1,0-.15c.11-.59.21-1.11.28-1.6.06-.32.1-.63.14-.92a30.22,30.22,0,0,0,.26-3.42Z"/><path class="cls-2" d="M181.56,402.57l4.12,31.63-.09-.07c-3.34-2.82-6.69-5.76-9.94-8.75,1.33-4.64,2.55-9,3.56-12.93.13-.49.26-1,.37-1.44.8-3.1,1.44-5.81,1.89-8,0-.1,0-.2,0-.29l0-.11Z"/><path class="cls-3" d="M244.09,459.73l-15,10.6-13.29-12.94,8.35-4.56,4.94,7.27S237.84,456.05,244.09,459.73Z"/><path class="cls-1" d="M182.27,396.48a30.22,30.22,0,0,1-.26,3.42c0,.29-.08.6-.14.92-.07.49-.17,1-.28,1.6a.66.66,0,0,0,0,.15l0,0,0,.11-5.86,22.67c-6.7,23.28-16.14,52.52-16.14,52.52l-7.93-.51s.47-21.51,2.33-41.73h0c.09-.89.17-1.79.26-2.67.17-1.77.35-3.51.55-5.21.12-1,.23-1.95.36-2.9.2-1.52.41-3,.62-4.43.12-.77.24-1.54.36-2.28s.25-1.46.38-2.17c.07-.36.13-.7.2-1.05.17-.86.34-1.69.53-2.49.1-.47.21-.94.32-1.39a37.17,37.17,0,0,1,2-6.05c.17-.4.36-.76.54-1.1.1-.17.19-.33.29-.48a6.08,6.08,0,0,1,1.09-1.32l-52.37.62s-27.49-3.35-26.31-35.66l.18,0,1.52.3,1.25.24.76.14,1.73.35,2,.38,6.08,1.15,2.8.54,4.51.87,1.59.28,3.62.68,2.29.43,1,.2v0l5,.92.17,0,.17,0c11.79,2.12,24.42,4.3,34.1,5.65,4.15.58,7.74,1,10.51,1.22a28,28,0,0,0,4.8.1,16.87,16.87,0,0,1,6.38.38C178.87,382.57,182.57,387.68,182.27,396.48Z"/><path class="cls-2" d="M117.21,373.6l.17,0v0Z"/><path class="cls-2" d="M153.91,435.66c.08-.89.17-1.79.27-2.67-.09.88-.17,1.78-.26,2.67Z"/><path class="cls-2" d="M154.73,427.78c.29-2.56.61-5,1-7.33C155.36,422.78,155,425.23,154.73,427.78Z"/><path class="cls-2" d="M175.65,425.38l5.86-22.67c0,.09,0,.19,0,.29-.45,2.2-1.09,4.91-1.89,8-.11.47-.24.95-.37,1.44C178.2,416.34,177,420.74,175.65,425.38Z"/><path class="cls-3" d="M165.1,502.28l-14.55-10.5,1-14.39,7.93.51-1.18,9.31S167,495.51,165.1,502.28Z"/><path class="cls-2" d="M112,372.65v0l-1-.2Z"/><path class="cls-2" d="M112,372.65v0l-1-.2Z"/><path class="cls-2" d="M109.37,363.46l-2.75-3.54a26.68,26.68,0,0,0,2.48,2.5C109.2,362.79,109.27,363.13,109.37,363.46Z"/><path class="cls-4" d="M108.74,372.05l-3.62-.68-1.59-.28L99,370.22l-2.8-.54-6.08-1.15-2-.38-1.73-.35-.76-.14-1.25-.24-1.52-.3-.18,0a341.56,341.56,0,0,1,6-38.86c.51-2.22,1-4.43,1.62-6.55,3.3-12.16,8.17-17.53,11.91-18.84-2.6,3.18-2.6,9.12-2.6,9.12s-.39,10,0,29.37a28.15,28.15,0,0,0,6.7,18.29Z"/><path class="cls-4" d="M153.5,370.33l-2,9-35.31-12.21a25.75,25.75,0,0,1-7.07-4.66,26.68,26.68,0,0,1-2.48-2.5l-.27-.31a28.15,28.15,0,0,1-6.7-18.29c-.39-19.36,0-29.37,0-29.37s0-5.94,2.6-9.12a5,5,0,0,1,4.53-2,14.21,14.21,0,0,1,2.1.37c5.16,1.39,5.7,6.1,6.11,10.71.43,5.16-3.21,28.5,12.56,39.74S153.5,370.33,153.5,370.33Z"/><path class="cls-3" d="M162,380.51c-2.77-.22-6.36-.64-10.51-1.22l2-7.24s4.53,1.69,5.64,3a26.81,26.81,0,0,1,2.71,5.09,1,1,0,0,1,.07.2l0,.15Z"/><path class="cls-5" d="M192,344.4,173.17,381a16.87,16.87,0,0,0-6.38-.38,28,28,0,0,1-4.8-.1l0-.05,0-.15a1,1,0,0,0-.07-.2c-.4-1.27-1.65-5.06-2.59-6.18-1.1-1.28-5.76-3.6-5.76-3.6l14.28-25.93Z"/><path class="cls-5" d="M161.38,402.12a6.08,6.08,0,0,0-1.09,1.32c-.1.15-.19.31-.29.48-.18.34-.37.7-.54,1.1a37.17,37.17,0,0,0-2,6.05c-.11.45-.22.92-.32,1.39-.19.8-.36,1.63-.53,2.49-.07.35-.13.69-.2,1.05-.13.71-.26,1.43-.38,2.17s-.24,1.51-.36,2.28c-.35,2.33-.68,4.78-1,7.33-.2,1.7-.38,3.44-.55,5.21-.09.88-.17,1.78-.26,2.67H1V402.74H109Z"/><path class="cls-3" d="M124.34,289.13c-1.63,4.92-5.53,8.07-8.82,7.24a2.59,2.59,0,0,0-.61-1c-3.36-3.75-3.2-5.57-.43-10.73,2.6-4.81,3-4,9.69-4A11.42,11.42,0,0,1,124.34,289.13Z"/><path class="cls-6" d="M117.38,373.62l-.17,0-.17,0-5-.92-1-.17-2.29-.43-2.39-12.44.27.31,2.75,3.54Z"/><path class="cls-2" d="M117.38,373.62v0l-.17,0Z"/><polygon class="cls-6" points="185.68 434.2 185.59 434.13 175.65 425.38 181.51 402.71 181.54 402.6 181.56 402.57 185.68 434.2"/></g><g id="Haare"><path class="cls-6" d="M125.65,280.62h-1.48c-6.68,0-7.09-.79-9.69,4-2.77,5.16-2.93,7,.43,10.73a2.59,2.59,0,0,1,.61,1c1.11,3.14-6.64,4.87-6.64,4.87a14.21,14.21,0,0,0-2.1-.37,5,5,0,0,0-4.53,2c-3.74,1.31-8.61,6.68-11.91,18.84-.58,2.12-1.11,4.33-1.62,6.55,0,0-2.86-.21-9.48-5.67-10.85-9,17.35-16.29-1.23-21.11-16.64-4.33-8.64-20.06,9.22-19.71,13.15.25,21.58.56,21.54-5.45,0-4.29,3.61-13.15,13.82-5.28C128.4,275.47,129.77,279.13,125.65,280.62Z"/></g><g id="BUbble_static"><path class="cls-7" d="M147.5,233.51A7.49,7.49,0,1,1,140,226,7.48,7.48,0,0,1,147.5,233.51Z"/><path class="cls-7" d="M94.18,202.92a7.48,7.48,0,1,1-7.49-7.49A7.49,7.49,0,0,1,94.18,202.92Z"/><path class="cls-7" d="M140,150.18a7.48,7.48,0,1,1-7.49-7.47A7.49,7.49,0,0,1,140,150.18Z"/><path class="cls-7" d="M74,111.31A12.85,12.85,0,1,1,61.16,98.46,12.84,12.84,0,0,1,74,111.31Z"/><path class="cls-7" d="M186.1,94.48a13.57,13.57,0,1,1-13.57-13.56A13.56,13.56,0,0,1,186.1,94.48Z"/><path class="cls-7" d="M107,74.22a7.48,7.48,0,1,1-7.48-7.48A7.48,7.48,0,0,1,107,74.22Z"/><path class="cls-7" d="M73,38.66a7.48,7.48,0,1,1-7.47-7.49A7.48,7.48,0,0,1,73,38.66Z"/><path class="cls-7" d="M158.1,7.47A7.48,7.48,0,1,1,150.63,0,7.48,7.48,0,0,1,158.1,7.47Z"/></g><g id="Bubble_anim"><path class="cls-7" d="M147.5,233.51A7.49,7.49,0,1,1,140,226,7.48,7.48,0,0,1,147.5,233.51Z"/></g></g></svg>