<svg xmlns="http://www.w3.org/2000/svg" viewBox="0 0 870.74 653.03"><defs><style>.cls-1{fill:#b7d9e4;}.cls-1,.cls-2,.cls-3,.cls-4,.cls-5,.cls-6,.cls-7{stroke:#222221;stroke-linecap:round;stroke-linejoin:round;stroke-width:2px;}.cls-2,.cls-8{fill:#222221;}.cls-3{fill:none;}.cls-4{fill:#e5dfd3;}.cls-5{fill:#eabd7c;}.cls-6{fill:#fff;}.cls-7{fill:#68a8de;}</style></defs><title>Element 78</title><g id="Ebene_2" data-name="Ebene 2"><g id="Ebene_24" data-name="Ebene 24"><path class="cls-1" d="M643.81,443.76V500l48.68,28.11V471.88Z"/><polygon class="cls-2" points="741.18 443.76 741.18 499.98 692.49 528.09 692.49 471.88 741.18 443.76"/><polygon class="cls-1" points="741.18 443.76 692.49 471.88 643.81 443.76 692.49 415.65 741.18 443.76"/><path class="cls-1" d="M214.26,170v56.22L263,254.34V198.13Z"/><polygon class="cls-2" points="311.63 170.02 311.63 226.24 262.95 254.34 262.95 198.13 311.63 170.02"/><polygon class="cls-1" points="311.63 170.02 262.95 198.13 214.26 170.02 262.95 141.91 311.63 170.02"/><path class="cls-3" d="M328.82,478.76a7,7,0,1,1,7,7A7,7,0,0,1,328.82,478.76Z"/><polygon class="cls-3" points="500.26 458.39 500.26 594.05 313.36 594.05 313.36 499.15 358.34 499.15 358.34 458.39 500.26 458.39"/><rect class="cls-3" x="358.34" y="458.39" width="141.93" height="40.76"/><path class="cls-2" d="M313.36,458.39v40.76h45V458.39Zm22.5,27.41a7,7,0,1,1,7-7A7,7,0,0,1,335.86,485.8Z"/><path class="cls-3" d="M342.88,478.76a7,7,0,1,1-7-7A7,7,0,0,1,342.88,478.76Z"/><path class="cls-4" d="M157,499.26c0-.22-.09-.38-.1-.46C156.9,498.88,156.94,499,157,499.26Z"/><path class="cls-1" d="M82.39,649.21,61.65,628.36,72.57,614l4.32,4.16,3.26,3.14-4.73,6.55S85.33,635.07,82.39,649.21Z"/><path class="cls-4" d="M231.23,625.19l-4,.9-8,1.76-2.31.5c-6.9-20.81-9.14-27.73-12.24-54.89s-11.35-28.85-11.35-28.85a357.06,357.06,0,0,1-24.68-28.84l-11.77-17v0c-8.8-14.31-10.18-21.47-10.18-21.47a6.85,6.85,0,0,0-2.41-1.79l35.78-7.85,7.85-1.74c5.5,7.73,20,30.05,30.65,62.83C231.88,569.85,231.23,625.19,231.23,625.19Z"/><path class="cls-1" d="M258.41,644.49l-34.61,4.72c-.4-3-2.87-14-4.58-21.36l8-1.76a54.53,54.53,0,0,0,7,12.63C253.38,636.53,258.41,644.49,258.41,644.49Z"/><path class="cls-5" d="M258.41,398.14s-26.53,13.41-29.89,14.67-9.81,6.15-27.29,0q-3.19-1.14-5.91-2.23l-1.09-4.95-4.18.91a5.72,5.72,0,0,0-1-4.59c-3.22-4-6.73-12.59-9.11-19,7.89,6.55,23.07,17.66,35.58,17.85,0,0,22.81-3.47,37.35-10.25Z"/><path class="cls-5" d="M176.61,455.73l-6.75,4.73-23.55-22.19a22.43,22.43,0,0,1-5.44-9.77c-.05-.21-.09-.42-.12-.61a.7.7,0,0,1,0-.14,15.75,15.75,0,0,1-.06-4.58,2.54,2.54,0,0,1,0-.29c0-.08,0-.16,0-.22s0-.14,0-.2,0-.23.06-.33a1,1,0,0,0,0-.17c0-.11,0-.21.08-.31s0-.07,0-.11,0-.12.05-.17,0-.07,0-.09,0,0,0,0,0-.06,0-.09l.16-.48v-.05a1,1,0,0,0,0-.16,1.47,1.47,0,0,0,.06-.14.43.43,0,0,0,.05-.13l0-.1a.37.37,0,0,0,0-.09c.19-1,.41-2,.63-2.93.44-1.93.94-3.75,1.49-5.44,4-12.49,10.13-18.29,15.29-21a19.76,19.76,0,0,0,8-2.2.59.59,0,0,0,.17-.1l0,0c.57,0,.88,0,.88,0a57.94,57.94,0,0,1-5.48,19.52c-.31.61-.61,1.24-1,1.85-.63,1.15-1.3,2.35-2.07,3.51h0c-.17.3-.38.62-.6.93-8.32,12.07-.42,18.95-.42,18.95Z"/><path class="cls-3" d="M141.29,420.47a1,1,0,0,1,0,.16v.05l-.16.48s0,.07,0,.09,0,0,0,0,0,.06,0,.09,0,.11-.05.17,0,.07,0,.11,0,.2-.08.31a1,1,0,0,1,0,.17c0,.1,0,.21-.06.33s0,.12,0,.2,0,.14,0,.22a2.54,2.54,0,0,0,0,.29,15.75,15.75,0,0,0,.06,4.58A13.21,13.21,0,0,1,141.29,420.47Z"/><path class="cls-3" d="M167.1,388.38a.78.78,0,0,1-.18.11l0-.11A.38.38,0,0,1,167.1,388.38Z"/><path class="cls-1" d="M262.63,366.89v29l-4.22,2.23-5.55-7.63A63.65,63.65,0,0,0,262.63,366.89Z"/><path class="cls-5" d="M190.05,406.54l-22.21,4.89-8.34,1.83c.77-1.16,1.44-2.36,2.07-3.51.35-.61.65-1.24,1-1.85A57.94,57.94,0,0,0,168,388.38s-.31,0-.88,0a9.71,9.71,0,0,0,5.16-10.2c-.13-1-.21-1.93-.3-2.8-.07-1.08-.14-2-.17-3l5.23,2.29.06,0s1.12,3.57,2.82,8.22c2.38,6.45,5.89,15,9.11,19A5.72,5.72,0,0,1,190.05,406.54Z"/><path class="cls-3" d="M167.1,388.38a.78.78,0,0,1-.18.11l0-.11A.38.38,0,0,1,167.1,388.38Z"/><path class="cls-2" d="M184.07,340.17a9.35,9.35,0,0,0-4.65-.46,32.38,32.38,0,0,0-8.57,2.22,6.75,6.75,0,0,0-2.08,1.24,2.2,2.2,0,0,0-.3.31,4.12,4.12,0,0,0-.28.31c-2.61,3.36.05,9.15,2.46,13.08l.72,1.13s0,0,0,0c.09.2.5,1,.84,1.21.77,1.08,1.29,1.73,1.29,1.73s-2,2.66-1.7,11.4c0,.94.11,1.9.18,3,.09.87.17,1.81.29,2.8a9.72,9.72,0,0,1-5.15,10.2l0,0a.38.38,0,0,0-.15,0l0,.11a19.82,19.82,0,0,1-8,2.19c-5.37.43-34.34-.28-20.16-8.16,18.24-10.14-18.12-7.22-18.09-12.8,0-9.49,42.05-6,22.78-16-19.73-10.2,3.72-12.43,12.09-13.33,5.33-.55,5.6-12.49,12.73-10.07,6.64,2.24,8.87-3,8.87-3s1.18-6.32,11.48-2.6S194.05,341.77,184.07,340.17Z"/><path class="cls-3" d="M167.1,388.38a.78.78,0,0,1-.18.11l0-.11A.38.38,0,0,1,167.1,388.38Z"/><path class="cls-1" d="M179.85,362.4c-.64-.18-1.28-.41-2-.65a36.89,36.89,0,0,1-5.66-2.5c-.24-.35-.52-.76-.84-1.21,0,0,0,0,0,0l-.72-1.13c-2.41-3.93-5.07-9.72-2.46-13.08a4.12,4.12,0,0,1,.28-.31,2.2,2.2,0,0,1,.3-.31,6.75,6.75,0,0,1,2.08-1.24,32.38,32.38,0,0,1,8.57-2.22c2.7,1.55,5.64,4.72,8.46,10.57C187.88,350.28,200,368.74,179.85,362.4Z"/><path class="cls-3" d="M171.38,358l0,0-.71-1.13.72,1.13S171.38,358,171.38,358Z"/><path class="cls-1" d="M179.85,362.4l-2.8,12.27-5.24-2.29c-.29-8.74,1.7-11.4,1.7-11.4s-.52-.65-1.29-1.73a36.89,36.89,0,0,0,5.66,2.5C178.57,362,179.21,362.22,179.85,362.4Z"/><path class="cls-4" d="M102.69,583.06h0l0,0c6.12-6.57,11-11.18,14.72-14.81,4.67-4.51,7.7-7.53,9.48-11,3.21-6.21,10.66-15.59,22.17-29.81a35.51,35.51,0,0,0,8.05-27.13c0-.11,0-.22-.05-.32a1.57,1.57,0,0,0,0-.23c0-.09,0-.18,0-.25s0-.17,0-.24-.09-.38-.1-.46a.11.11,0,0,1,0-.05v0c-8.8-14.31-10.18-21.47-10.18-21.47a6.85,6.85,0,0,0-2.41-1.79.3.3,0,0,0-.23.07c-5.61,18.21-19,59.08-27.89,66.6-11.57,9.73-35,52.19-44.83,70.62L72.57,614l4.32,4.16,0-.07C77.67,616.8,89,597.71,102.69,583.06Z"/><path class="cls-2" d="M156.87,498.75a.11.11,0,0,0,0,.05c0,.08.05.24.1.46s0,.15,0,.24,0,.16,0,.25a1.57,1.57,0,0,1,0,.23c0,.1,0,.21.05.32a35.51,35.51,0,0,1-8.05,27.13c-11.51,14.22-19,23.6-22.17,29.81-1.78,3.44-4.81,6.46-9.48,11A74.33,74.33,0,0,1,102.73,583l0,0h0c-13.65,14.65-25,33.74-25.77,35l0,.07,3.26,3.14h0l1.23,1.21.19-.2C85.41,618.06,147,550,168.63,515.77Z"/><path class="cls-3" d="M342.88,478.76a7,7,0,1,1-7-7A7,7,0,0,1,342.88,478.76Z"/><circle class="cls-2" cx="469.67" cy="564.7" r="8.8"/><polyline class="cls-3" points="262.95 295.13 262.95 484.5 313.36 484.5"/><circle class="cls-2" cx="262.95" cy="299.85" r="9.08"/><line class="cls-3" x1="500.27" y1="486.53" x2="660.05" y2="486.53"/><line class="cls-3" x1="406.81" y1="207.46" x2="288.44" y2="207.46"/><polyline class="cls-3" points="767.18 113.7 625.73 113.7 625.73 157.24"/><polyline class="cls-3" points="696.49 207.46 826 207.46 826 317.59"/><polyline class="cls-3" points="385.95 45.96 515.46 45.96 515.46 156.09"/><line class="cls-3" x1="558.69" y1="652" x2="194.31" y2="652"/><line class="cls-3" x1="134.31" y1="652" x2="51.84" y2="651.53"/><line class="cls-3" x1="25.74" y1="652.03" x2="1" y2="651.77"/><path class="cls-2" d="M673.76,499.39c-5.77,2.64-13.09-1-16.33-8.05a16.63,16.63,0,0,1-1.38-4.8c-.74-5.55,1.51-10.76,6-12.8,5.79-2.65,13.1.95,16.33,8.05S679.55,496.75,673.76,499.39Z"/><ellipse class="cls-2" cx="768.79" cy="113.7" rx="6.55" ry="6.36" transform="translate(115.28 534.28) rotate(-41.18)"/><circle class="cls-5" cx="826" cy="362.72" r="43.74"/><polygon class="cls-2" points="825.73 378.63 821.28 381.2 816.83 383.77 816.83 373.49 821.28 376.06 825.73 378.63"/><polygon class="cls-2" points="851.35 367.32 846.91 369.88 846.65 370.03 842.46 372.46 842.46 362.18 846.91 364.75 851.35 367.32"/><polygon class="cls-2" points="822.87 350.57 818.41 353.13 813.97 355.71 813.97 345.43 818.41 348 818.72 348.18 822.87 350.57"/><polyline class="cls-3" points="811.67 359.37 800.64 378.63 821.28 378.63"/><polyline class="cls-3" points="830.42 378.63 851.36 378.63 845.17 367.32"/><polyline class="cls-3" points="840.3 359.37 826.42 334.32 817.4 350.57"/><path class="cls-6" d="M206.59,461.78l-18.69,4.1-7.85,1.74-35.78,7.85a.3.3,0,0,0-.23.07l-23.1,5.07-12.35-56.15,33.52-7.38c-.22.94-.44,1.92-.63,2.93a.37.37,0,0,1,0,.09l0,.1a.43.43,0,0,1-.05.13,1.47,1.47,0,0,1-.06.14,13.21,13.21,0,0,0-.57,7.28.7.7,0,0,0,0,.14c0,.19.07.4.12.61a19.68,19.68,0,0,0,5.44,9.77l23.55,22.19s3.38,4.28,6.89,5.7c0,0,0,0,0,0a4.09,4.09,0,0,0,4.43-.38,3.13,3.13,0,0,0,1.09-1.65c.94-3.62-5.67-8.4-5.67-8.4l-18.16-22.59s-7.9-6.88.42-18.95c.22-.31.43-.63.6-.93h0l8.34-1.83,22.21-4.89,4.18-.91,1.09,4.95Z"/><path class="cls-3" d="M141.29,420.47a1,1,0,0,1,0,.16v.05l-.16.48s0,.07,0,.09,0,0,0,0,0,.06,0,.09,0,.11-.05.17,0,.07,0,.11,0,.2-.08.31a1,1,0,0,1,0,.17c0,.1,0,.21-.06.33s0,.12,0,.2,0,.14,0,.22a2.54,2.54,0,0,0,0,.29,15.75,15.75,0,0,0,.06,4.58A13.21,13.21,0,0,1,141.29,420.47Z"/><path class="cls-1" d="M182.28,464.13a3.13,3.13,0,0,1-1.09,1.65,4.09,4.09,0,0,1-4.43.38s0,0,0,0c-3.51-1.42-6.89-5.7-6.89-5.7l6.75-4.73S183.22,460.51,182.28,464.13Z"/><path class="cls-3" d="M364.13,10.5a3.42,3.42,0,1,1,3.41,3.43A3.42,3.42,0,0,1,364.13,10.5Z"/><polygon class="cls-7" points="477.87 20 477.87 78.23 455.33 78.23 455.33 59.66 402.16 59.66 402.16 78.23 357.42 78.23 357.42 20 477.87 20"/><path class="cls-3" d="M371,10.5a3.42,3.42,0,1,1-3.43-3.43A3.42,3.42,0,0,1,371,10.5Z"/><rect class="cls-5" x="377.68" y="1" width="100.19" height="19"/><path class="cls-1" d="M402.16,59.66V96.37h53.17V59.66ZM430,84.16,419.74,90.1V66.35L430,72.29l10.29,5.94Z"/><path class="cls-2" d="M357.42,1V20h20.26V1Zm10.13,12.93A3.43,3.43,0,1,1,371,10.5,3.42,3.42,0,0,1,367.55,13.93Z"/><path class="cls-3" d="M371,10.5a3.42,3.42,0,1,1-3.43-3.43A3.42,3.42,0,0,1,371,10.5Z"/><path class="cls-3" d="M371,10.5a3.42,3.42,0,1,1-3.43-3.43A3.42,3.42,0,0,1,371,10.5Z"/><polygon class="cls-2" points="440.3 78.23 430.01 84.16 419.74 90.1 419.74 66.35 430.01 72.29 440.3 78.23"/><rect class="cls-7" x="406.81" y="157.24" width="289.66" height="188.46"/><path d="M696.75,292.85c-1.77.48-3.59.2-5.39.41a32.84,32.84,0,0,0-13.42,4.24,29.05,29.05,0,0,1-6.9,3.37,16.34,16.34,0,0,0-1.56.8,22.32,22.32,0,0,1-8.33,2.23,7.41,7.41,0,0,0-2.41.5,5,5,0,0,1-2.71.13,16.08,16.08,0,0,0-2.85-.2,40,40,0,0,1-8-1.26,43.39,43.39,0,0,1-5.91-2.26c-3.63-1.41-6.74-3.81-10.3-5.34a24.61,24.61,0,0,0-7.82-1.94c-2-.16-3.94-.91-5.95-.67-2.94.35-5.89.29-8.83,1a60.14,60.14,0,0,0-9.26,3.58c-1.63.7-3,2-4.69,2.65-2.12.77-4.24,1.61-6.27,2.52-3.47,1.54-7.13,1.36-10.7,2a2,2,0,0,1-1.49-.28c-.91-.6-1.91-.08-2.85-.22-1.62-.23-3.26-.38-4.88-.73a48.43,48.43,0,0,1-12.49-5.05c-2.6-1.4-5.15-3-8-3.78a33.82,33.82,0,0,0-8.9-1.47,62.07,62.07,0,0,0-10.47.53,28.46,28.46,0,0,0-5.54,1.87c-2.34.9-4.34,2.45-6.75,3.28-1.4.48-2.66,1.59-4.12,2.21a4.73,4.73,0,0,1-2.38.54,1.1,1.1,0,0,0-.68.14c-1.68,1.27-3.74,1.27-5.64,1.81-2.32.65-4.7.71-7,1.14a.49.49,0,0,1-.24,0c-3.07-1.36-6.38-.22-9.52-.93a8.53,8.53,0,0,1-3.08-1.06,19.46,19.46,0,0,0-4-2.12,24,24,0,0,1-5.64-3.08c-2.95-2.25-6.68-2.62-10.15-3.6a33.81,33.81,0,0,0-7.48-.87,35.45,35.45,0,0,0-6.54.65,49.34,49.34,0,0,0-7.85,1.9,4.63,4.63,0,0,0-1.75.93,4.24,4.24,0,0,1-1.28.82c-3.67,1.3-6.85,3.58-10.39,5.13a5.92,5.92,0,0,1-1.58.4c-2.17.32-4.29,1.19-6.43,1.26a39.31,39.31,0,0,1-5.32.13c-1.64-.17-3.29.1-4.93-.24-.53-.11-.91-.15-.94-.8,0-.84.56-.61,1-.62a4.77,4.77,0,0,1,1.29.14,4,4,0,0,0,2.89.12,1.47,1.47,0,0,1,1,0c1.61.53,3.1-.05,4.62-.44,1-.27,2,.28,3.14,0,3.08-.81,6.21-1.56,8.92-3.22s5.86-3.16,8.78-4.75c2.58-1.41,5.47-1.78,8.33-2.13a18.87,18.87,0,0,0,3.67-.78,6.19,6.19,0,0,1,4-.15,18.89,18.89,0,0,0,5.23.6c3.12.17,5.95,1.52,8.83,2.64,2.28.88,4.3,2.23,6.46,3.29,3.91,1.91,7.79,4.07,12.28,4.44,2.23.19,4.47.25,6.69.52a27.5,27.5,0,0,0,7.64-.56,16.67,16.67,0,0,0,4.31-1.48c2.29-1.08,4.72-1.76,7-3.08a42.54,42.54,0,0,1,11-4.75c2.34-.6,4.72-1.43,7.09-1.33,2.21.09,4.39-.37,6.55-.07s4.22.24,6.2,1.21c1.28.63,2.77.6,4.15,1.08a33.18,33.18,0,0,1,7.87,4,13.52,13.52,0,0,0,4.6,2.25,23.91,23.91,0,0,1,5.15,1.92,4.88,4.88,0,0,0,2.15.51c2.43,0,4.87.13,7.27.34,3,.26,5.79-.43,8.63-.87A22.75,22.75,0,0,0,588.8,300a83,83,0,0,0,8.89-4.34,65.33,65.33,0,0,1,7-3.26,8.79,8.79,0,0,1,3.43-.71c3.14,0,6.25-.5,9.43-.16,2.34.25,4.73.35,7.09.58a1.92,1.92,0,0,1,.81.12c1.59,1,3.45,1.47,5,2.56a9.25,9.25,0,0,0,1.6.71,68.79,68.79,0,0,1,8.48,4.29c1.47.92,3.34,1.07,5,1.72,2.66,1.07,5.45.94,8.18,1.28a22.19,22.19,0,0,0,5.24-.38,47.16,47.16,0,0,0,6.89-.94,24.24,24.24,0,0,0,3.27-1.21c3.31-1.42,6.29-3.45,9.52-5a30.28,30.28,0,0,1,10.25-3.25c1.64-.14,3.31-.58,5-.84a9.08,9.08,0,0,1,2.94.19Z"/><path d="M696.75,176.45c-3.18.6-6.44-.07-9.67.82a32.75,32.75,0,0,0-5.57,1.92,52,52,0,0,0-5,2.29,64.48,64.48,0,0,1-11.4,5.12c-1.5.54-3.06.26-4.48.86a.5.5,0,0,1-.36,0c-2-.77-3.79.33-5.69.47a6,6,0,0,1-2.06-.39,6,6,0,0,0-2.21-.31c-2.45.24-4.6-.82-6.83-1.56a13.3,13.3,0,0,0-2-.63,6.84,6.84,0,0,1-2.7-1.09,56.25,56.25,0,0,0-7.95-4,34.12,34.12,0,0,0-8.16-2.86c-1.62-.27-3.27-.38-4.89-.69-1.78-.33-3.58,0-5.35-.22a10,10,0,0,0-2.78.45c-2.42.32-4.75,1-7.12,1.5-1.18.26-1.76,1.43-2.9,1.69-1.83.42-3.36,1.53-5.1,2.18-1,.4-1.78,1.47-2.94,1.88-2.48.88-4.8,2.23-7.42,2.72-2.12.4-4.2,1.07-6.42.88s-4.2.15-6.32,0c-3.71-.24-7.44-.64-10.75-2.29a66.22,66.22,0,0,1-8.22-4.29,18.82,18.82,0,0,0-5.59-2.67c-1.7-.47-3.56-.63-5.26-1.16-2.93-.91-5.86-.66-8.82-.57a18.75,18.75,0,0,1-2-.1c-2.82-.16-5.38.84-8,1.59-2.91.84-5.35,2.58-8.14,3.62a18.15,18.15,0,0,0-4,2.31,15.78,15.78,0,0,1-6.51,2.52c-2.48.44-5,.93-7.49,1.13a11.07,11.07,0,0,1-4.48-.15c-1.28-.44-2.58-.1-3.81-.09-1.93,0-3.53-.88-5.31-1.16-2.33-.36-4.24-1.64-6.31-2.67-2.4-1.2-4.57-2.89-7.26-3.54-1-.26-1.67-1.46-2.85-1.52-1.82-.08-3.27-1.3-5-1.57a25.66,25.66,0,0,0-6.24-.43,17.06,17.06,0,0,1-4.57-.25,3.66,3.66,0,0,0-1.63.19c-1.69.45-3.51.39-5.11,1.24-.64.35-1.35.07-2,.27a29.33,29.33,0,0,0-7.06,3.36,13.21,13.21,0,0,1-3.52,1.86,18.85,18.85,0,0,0-2.68,1.39c-2,.89-3.89,2-6.11,2.23a19.63,19.63,0,0,0-2.64.43,7.81,7.81,0,0,1-3.94.34,4.42,4.42,0,0,0-2.9.3,4.09,4.09,0,0,1-2.86,0,5.54,5.54,0,0,0-1.73-.34c-1.5,0-1.6-.14-1.5-1.67,1.4-.14,2.68.71,4.1.54,3.41-.41,6.91,0,10.25-.8a35.79,35.79,0,0,0,9.86-3.9c1.87-1.08,3.77-2.09,5.74-3a37.61,37.61,0,0,1,7.63-3,21,21,0,0,1,5.54-.67,26.63,26.63,0,0,0,3.75-.38,4.3,4.3,0,0,1,1.43,0c2.68.64,5.46.66,8.15,1.36,1.79.47,3.4,1.39,5.15,1.94,3.51,1.12,6.41,3.45,9.71,5a31.12,31.12,0,0,0,9.05,3.06c2.38.3,4.84.11,7.21.27,3.46.24,6.55-1.07,9.82-1.52s6.14-2.28,8.89-4.07c1.06-.7,2.41-.59,3.3-1.38,1.42-1.26,3.24-1.51,4.85-2.27a51.34,51.34,0,0,1,5.12-1.59c1.22-.43,2.52,0,3.79-.21a26,26,0,0,1,4.32-.62c3.54,0,6.87,1.14,10.29,1.78,4.51.86,8.19,3.42,12.15,5.45,2.29,1.18,4.46,2.76,7,3.17,2.09.33,4.13,1.22,6.23,1.07s3.89-.16,5.84-.16a26.08,26.08,0,0,1,4.75.18c1,.18,1.89-.47,2.81-.77a65.6,65.6,0,0,0,6.6-2.38,31.49,31.49,0,0,0,5.79-3.35c1.18-.88,2.53-1,3.76-1.56a36.16,36.16,0,0,1,9.93-3.05,30.56,30.56,0,0,1,7.28,0,14.77,14.77,0,0,0,2.32.34c2.2-.2,4.19.68,6.26,1.09a30.76,30.76,0,0,1,9.52,4.1c2.68,1.59,5.62,2.71,8.43,4.07,1.19.57,2.7.45,4,.77a17.74,17.74,0,0,0,6.42.79c2.66-.37,5.35,0,8-.29a22.14,22.14,0,0,0,5.12-1.59,43.67,43.67,0,0,0,7.82-3.78,29.94,29.94,0,0,1,4.91-2.23,18.47,18.47,0,0,0,1.7-.77,22.78,22.78,0,0,1,6.84-1.92,39.05,39.05,0,0,1,8.14-.7Z"/><path d="M696.75,320.21a11,11,0,0,1-1.88.2c-3.21-.18-6.25.67-9.3,1.42a19.87,19.87,0,0,0-5.13,1.49c-3.27,1.81-6.37,4-9.79,5.45-3.26,1.38-6.68,2.69-10.39,2.46a5.36,5.36,0,0,0-2.1.23,11,11,0,0,1-5.34.25c-1.74-.25-3.48-.53-5.23-.68a14.46,14.46,0,0,1-4.2-1c-2.49-1-5.17-1.78-7.34-3.38a27.72,27.72,0,0,0-6.73-3.52,33.78,33.78,0,0,0-8.46-2.19c-1.47-.16-2.85-.91-4.38-.7-3.92.53-7.94.16-11.78,1.54-1.21.43-2.35,1-3.53,1.39-4.27,1.43-7.85,4.16-11.94,5.93a32.2,32.2,0,0,1-11.71,2.68c-3.34.13-6.78.44-10.1-.31a48.74,48.74,0,0,1-4.74-1.7,32.72,32.72,0,0,1-8.31-3.75,21.56,21.56,0,0,1-3.06-1.94c-.81-.78-2-.65-3-.94a11.77,11.77,0,0,1-3.35-1.37,5.6,5.6,0,0,0-2.9-.85c-3.31-.16-6.62-.43-9.93-.69a10.75,10.75,0,0,0-3.18.3,38.44,38.44,0,0,0-9.17,2.79c-1.48.76-2.93,1.62-4.35,2.52-1.26.8-2.85,1.11-4.15,1.91a24.32,24.32,0,0,1-10.19,3.39c-2.66.28-5.26,1.2-8,.88a21.57,21.57,0,0,0-3.13-.48c-2.55.11-4.9-.75-7.31-1.27a18,18,0,0,1-5.95-2.78c-1.66-1.09-3.55-1.56-5.24-2.58a42.41,42.41,0,0,0-7.09-3.32,20.43,20.43,0,0,0-4.69-.86,51.6,51.6,0,0,0-6.92-.26,45,45,0,0,0-9.89,1.28,26.86,26.86,0,0,0-5.67,2.56,4.54,4.54,0,0,1-1.49.63,4.86,4.86,0,0,0-3,1.69,11,11,0,0,1-2.91,1.77A34.34,34.34,0,0,1,421,331c-2.56.45-5.17.64-7.75,1-1.31.17-2.47-.46-3.71-.59-.3,0-.6-.12-.9-.13-1.66-.08-1.66-.07-1.44-1.78a25.15,25.15,0,0,0,7.37.84,47.3,47.3,0,0,0,9.19-1.27,14.64,14.64,0,0,0,4.5-1.91c1.5-.95,3.32-1.31,4.84-2.32s3.46-1.65,5.1-2.57c2.48-1.39,5.19-1.92,7.79-2.83a2.06,2.06,0,0,1,.69-.13c3.87,0,7.73-.52,11.59-.21a31.16,31.16,0,0,1,7.85,1.81,75.65,75.65,0,0,1,11.29,5.43,39.2,39.2,0,0,0,11.42,3.76,6,6,0,0,0,2.11-.26c1.16-.16,2.1.66,3.25.53,2.72-.32,5.49-.25,8.15-1.06,1-.32,2.16-.22,3.22-.63A90.81,90.81,0,0,0,518,322.42a27.7,27.7,0,0,1,7.18-2.45c1.75-.45,3.44-1.18,5.31-1,2.36.3,4.73-.1,7.1,0a23.23,23.23,0,0,1,6.88,1.27,33.38,33.38,0,0,0,5.86,1.6,2.57,2.57,0,0,1,1.13.57c3.23,2.31,6.91,3.76,10.43,5.52,3,1.53,6.36,1.87,9.57,2.16a28.47,28.47,0,0,0,6.51.31c1.49-.21,3-.7,4.53-.93a29.66,29.66,0,0,0,8.1-2.73,36.21,36.21,0,0,0,6.57-3.64A13.8,13.8,0,0,1,601.9,321a20.54,20.54,0,0,0,3.6-1c1-.46,2.11,0,3.14-.41A12.25,12.25,0,0,1,613,319a37.83,37.83,0,0,1,5.83,0,27.8,27.8,0,0,1,7.68,1.59c2.49,1,5.11,1.75,7.51,3,1.56.81,3,1.86,4.58,2.6,3.07,1.44,6.06,3.11,9.54,3.41,2.45.21,4.88.47,7.32.71h.24c4.33-.76,8.8-.68,13-2.37a33.8,33.8,0,0,0,6-2.71,27.76,27.76,0,0,1,4.25-2.69c2-.85,4-1.49,6-2.21,2.24-.8,4.6-.86,6.87-1.45,1.42-.37,3,.23,4.54,0,.12,0,.28.11.42.18Z"/><path d="M696.75,272.21c-2.64.47-5.33,0-8,.67A52.47,52.47,0,0,0,677.33,277a44.35,44.35,0,0,0-6.42,3.65c-.06.05-.11.13-.18.15-2,.5-3.74,1.57-5.67,2.05a26.53,26.53,0,0,1-10.2.71c-1.23-.17-2.54.15-3.75-.09-1.69-.32-3.47-.23-5.1-1.11a11.77,11.77,0,0,0-3.24-.95,21.46,21.46,0,0,1-7.72-3.54,10.41,10.41,0,0,0-3.92-1.81,2.31,2.31,0,0,1-.55-.21c-2.34-1.05-4.5-2.45-7.25-2.61-2.21-.12-4.38-.9-6.67-.78-3.57.18-7.17.09-10.65,1-2,.52-3.8,1.47-5.76,2-1.67.42-2.87,1.54-4.29,2.32-3.2,1.77-6.61,3.09-9.88,4.7a2.87,2.87,0,0,1-2.69.37,1.11,1.11,0,0,0-.82,0,20.75,20.75,0,0,1-9.62.85c-3.36-.35-6.75-.46-10.06-1.67a39.29,39.29,0,0,1-7.09-3.25,26.7,26.7,0,0,0-5.43-2.7c-1.42-.49-2.61-1.51-4.15-1.84-2.79-.58-5.54-1.39-8.34-1.91a16.69,16.69,0,0,0-4.18,0,54.63,54.63,0,0,0-9,1.18,20.07,20.07,0,0,0-5.43,2.16,5.57,5.57,0,0,1-2.5.94,1.72,1.72,0,0,0-1,.39,33,33,0,0,1-11.25,5.42,52.1,52.1,0,0,1-7.17,1.21,25.32,25.32,0,0,1-8.11-.14c-3.71-.62-7.5-1.11-11-2.88-1.46-.75-3-1.23-4.18-2.49a2.51,2.51,0,0,0-1.36-.6c-2-.45-3.64-1.75-5.49-2.57a19.33,19.33,0,0,0-5.1-1.68,29.44,29.44,0,0,1-4.28-.73c-2.18-.65-4.34.07-6.51.07a17.31,17.31,0,0,0-6.11.67c-3.34,1.23-6.78,2.05-9.91,4.05-3.65,2.34-7.54,4.51-11.91,5.35a39.39,39.39,0,0,1-6.45,1,22.65,22.65,0,0,0-3.94.08c-1.77.35-3.56-.28-5.36-.32-.86,0-.62-.74-.63-1.26s.51-.53.85-.47a17.57,17.57,0,0,0,2.18.46c3.19.19,6.34-.39,9.49-.38,2.91,0,5.36-1.28,7.92-2.13a31.48,31.48,0,0,0,5.26-2.75,42.3,42.3,0,0,1,7.15-3.59c3.44-1.21,7-1.55,10.5-2.43.5-.13.91.27,1.39.23a20,20,0,0,0,3.08-.17,4,4,0,0,1,2.47.13c1.42.6,3,.19,4.45.5a20,20,0,0,1,5.66,1.82,67,67,0,0,0,7.38,3.47c1.49.61,2.8,1.64,4.25,2.41a28.42,28.42,0,0,0,6.62,2.19c2.51.62,5.09.46,7.63.82a23.28,23.28,0,0,0,5.45-.18c1.71-.18,3.39-.59,5.09-.91a2.52,2.52,0,0,0,.67-.16c2.52-1.12,5.27-1.77,7.55-3.42a39.2,39.2,0,0,1,7.58-3.86,33.51,33.51,0,0,1,10.22-2.76,22.63,22.63,0,0,1,7.14.27c1.45.34,3-.1,4.49.34a55.55,55.55,0,0,1,6,1.64c2.32,1,4.5,2.3,6.84,3.27a55.79,55.79,0,0,1,6.57,3.06,18.49,18.49,0,0,0,5.09,1.75,32.64,32.64,0,0,0,6.54.85,38.38,38.38,0,0,0,16.41-2.68,30.63,30.63,0,0,0,6.77-3.69c1.51-1.16,3.37-1.46,5-2.24a23.24,23.24,0,0,1,9.83-2.32c2.34,0,4.6-.76,6.93-.36,1.19.21,2.36.51,3.55.71,1.94.32,3.89.49,5.81.94a6.22,6.22,0,0,1,2.33,1c1.4,1,3.21,1,4.67,1.86.24.14.55.19.73.38,2.24,2.51,5.51,3.06,8.41,4.25a25.22,25.22,0,0,0,10.42,2.1,66.9,66.9,0,0,0,8.35-.36,39.81,39.81,0,0,0,8-2.28,2.77,2.77,0,0,0,.43-.18c3-1.82,6.41-2.88,9.22-5.06a3.94,3.94,0,0,1,2-.63c2.29-.27,4.19-1.71,6.43-2.15a10,10,0,0,1,2.92-.38,42,42,0,0,0,4.76-.25,2.21,2.21,0,0,1,1.26.23Z"/><path d="M696.75,196.61c-2.64.36-5.3.59-7.94,1-1.83.29-3.5,1-5.36,1.28-2.07.26-4,1.5-5.75,2.58a53.07,53.07,0,0,1-13.83,6c-1.2.31-2.44,0-3.65.34a12.4,12.4,0,0,1-6.26.08c-1-.21-2,.39-3.11.26a23.17,23.17,0,0,1-6.43-1.61,23.68,23.68,0,0,0-4.19-1.1c-.92-.2-1.3-1.19-2.16-1.39a9,9,0,0,1-3.67-2,1.16,1.16,0,0,0-.41-.22c-2.81-1-5.13-3.3-8.14-3.65-2.08-.24-4.08-1-6.19-.85a13.71,13.71,0,0,1-3.73-.52,16.36,16.36,0,0,0-5.5.28c-2.55.39-5.19.51-7.57,1.6a62.17,62.17,0,0,0-8.05,4,18.75,18.75,0,0,1-4.31,2.38c-3.26,1-6.39,2.5-9.88,2.86a56.31,56.31,0,0,1-7.09.31,36.17,36.17,0,0,1-11.64-2.19c-3.69-1.31-6.9-3.56-10.58-4.82a14.31,14.31,0,0,1-2.23-1.29,19.76,19.76,0,0,0-12.75-2.66,10.39,10.39,0,0,1-2-.2,29.46,29.46,0,0,0-11.4,1.54,26.86,26.86,0,0,0-6.6,3,40.54,40.54,0,0,1-4.71,2.35c-1.72.84-3.52,1.5-5.23,2.29-2.39,1.09-5,.67-7.29,1.6s-5,.51-7.57.47a35.1,35.1,0,0,1-5.9-1c-5.13-1-9.59-3.48-14.15-5.84-2.87-1.49-5.72-3.2-9-3.77a54.09,54.09,0,0,0-7.1-.95,37.2,37.2,0,0,0-11.26,1.35,28.75,28.75,0,0,0-8.89,3.69,7,7,0,0,1-3.26,1.52,1.19,1.19,0,0,0-.42.21,36.91,36.91,0,0,1-9.5,3.81,17.67,17.67,0,0,1-4.87.76c-2,0-4,.2-5.94,0a20.53,20.53,0,0,0-3.68-.28c-.82.08-.5-.61-.56-1-.09-.66.36-.37.65-.37,2.14,0,4.31.58,6.37.37,3.17-.32,6.45-.19,9.47-1.61,2.29-1.08,4.88-1.42,7.13-2.62,2.61-1.4,5.16-2.93,7.8-4.26a37.77,37.77,0,0,1,5.47-1.72,27.44,27.44,0,0,1,8.43-1.29c2.87,0,5.91-.76,8.71.7a7,7,0,0,0,1.85.32,12.54,12.54,0,0,1,3.44,1.14c1.7.9,3.57,1.47,5.26,2.34a55.2,55.2,0,0,1,6.2,3.33,6.43,6.43,0,0,0,2.22,1,47.62,47.62,0,0,1,5,1.86,14.63,14.63,0,0,0,4.17.63c3,.09,6.08,0,9.12,0a9.59,9.59,0,0,0,3.78-.8c2.08-.89,4.3-1.25,6.37-2.22,3.21-1.49,6.28-3.21,9.38-4.88,1.53-.82,3.27-1.05,4.88-1.68,3.33-1.32,6.87-1.43,10.39-1.76,3.86-.36,7.46.72,11.17,1.3,2.38.38,4.44,1.48,6.65,2.23,1.59.54,2.78,1.88,4.3,2.64.77.38,1.55.75,2.35,1.06,1,.39,1.86,1,2.77,1.41,1.67.78,3.3,2,5.33,1.73a5.42,5.42,0,0,1,2.29.49c2.49.78,5.05.34,7.58.48,2.83.16,5.56-.53,8.31-1,1.16-.18,1.93-1.14,3.11-1.33,2.89-.48,5.18-2.31,7.71-3.6s4.95-2.34,7.43-3.44a18.72,18.72,0,0,1,6.56-1.51,10.44,10.44,0,0,0,3.35-.58,1.71,1.71,0,0,1,1.17-.09,7.15,7.15,0,0,0,3.94.23c1.79-.19,3.5.45,5.25.67a24.32,24.32,0,0,1,6.36,1.59,45.34,45.34,0,0,1,7.83,4,31.05,31.05,0,0,0,12.83,4.56,35.71,35.71,0,0,0,9.34.43,27.89,27.89,0,0,0,8-1.66c1.36-.58,2.93-.63,4.13-1.6a17,17,0,0,1,3.75-1.9c1.76-.83,3.47-1.8,5.16-2.77a21.56,21.56,0,0,1,7.21-2.3c2.86-.5,5.7-1.31,8.67-1a3.51,3.51,0,0,0,1-.24Z"/><path d="M696.75,286.13c-.46.23-.92,0-1.38,0-2.45,0-4.83.67-7.23.84a21.48,21.48,0,0,0-6.08,1.7c-1.74.65-3.7,1.1-5,2.65a4.25,4.25,0,0,1-2.31,1.11,17.28,17.28,0,0,0-4.3,2.14,14.53,14.53,0,0,1-4.37,1.63,37,37,0,0,1-4.29.74c-3.54.33-7.07.77-10.66.27a38,38,0,0,1-8.37-1.66,25.68,25.68,0,0,1-2.74-1.33c-3.32-1.77-6.77-3.28-10.09-5.06-2-1.07-4.11-2.17-6.55-2.07a5.92,5.92,0,0,1-1.72-.35,8.79,8.79,0,0,0-3.66-.41,14.4,14.4,0,0,1-5.27-.16,6.39,6.39,0,0,0-2.58.26c-3.62.64-7.35,1.08-10.57,2.92-2.45,1.4-5,2.66-7.41,4.06A31.81,31.81,0,0,1,581,297.11c-1.34.2-2.77-.17-4.08.09-2.18.41-4.25-.14-6.36-.18a25,25,0,0,1-9.43-1.85c-2.27-1-4.63-1.75-6.6-3.46a16.8,16.8,0,0,0-4.49-2.22c-2-.86-4-1.61-6-2.44a6.53,6.53,0,0,0-2-.48c-3.18-.26-6.4-.06-9.56-.68a2.56,2.56,0,0,0-1.85.24,6.56,6.56,0,0,1-3.33.64,21.34,21.34,0,0,0-7.94,2.39,101.43,101.43,0,0,0-9,4.92,11.51,11.51,0,0,1-2,.57c-1.46.56-2.95,1.07-4.36,1.73a7.69,7.69,0,0,1-2.63.56,61,61,0,0,1-9.74.43c-4.56-.3-9-1-13.14-3.18-2.83-1.5-5.69-2.94-8.53-4.42a26.77,26.77,0,0,0-11.54-3.25c-1.73-.07-3.44-.88-5.24-.64-2.56.34-5.13.45-7.69,1-2.27.47-4.18,2-6.58,1.93a1.12,1.12,0,0,0-.66.23c-1.75,1.43-4,2.07-5.82,3.29-3.73,2.46-7.94,3.61-12.22,4.6-1.61.37-3.27.21-4.9.65-1.24.33-2.6-.14-3.9-.24a31,31,0,0,0-3.19-.16c-.82,0-1.21-.24-1.13-1.1.1-1.07.72-.29,1.11-.33,2.37-.23,4.71.28,7.12.1a43.78,43.78,0,0,0,8.14-1.26,34.64,34.64,0,0,0,10.1-4.52c1.25-.8,2.51-1.59,3.8-2.34a4.65,4.65,0,0,1,2.24-.63c1.4-.06,2.52-1,3.89-1.28a44,44,0,0,1,7.76-1.26,24.91,24.91,0,0,1,7.33.5c2.13.6,4.45.53,6.61,1.12a12.74,12.74,0,0,1,4,1.68,1.39,1.39,0,0,0,.41.23c2.68.65,4.77,2.5,7.23,3.54,3.13,1.31,6.16,2.86,9.58,3.55a37.86,37.86,0,0,0,9.59.77,26.47,26.47,0,0,0,8.9-1.53c2.77-1.17,5.84-1.73,8.28-3.73.85-.7,2.06-.92,3-1.59,3.24-2.29,7-3.08,10.8-3.91a19.14,19.14,0,0,1,9.33-.26,2.75,2.75,0,0,0,1,0c4.44-.4,8.47,1.09,12.44,2.78a25.17,25.17,0,0,1,6.07,3.27c1.51,1.22,3.31,1.5,4.94,2.29,1.34.64,2.59,1.54,4.23,1.62,2.27.11,4.52.55,6.78.84.2,0,.43-.06.59,0,1.25.61,2.55.17,3.81.28,2.36.21,4.5-.8,6.8-.83,2.47,0,4.57-1.42,6.64-2.42,2.76-1.32,5.54-2.69,8.2-4.27a27.66,27.66,0,0,1,7.15-2.56,24.85,24.85,0,0,1,8.45-1.24c3.55.28,7.14-.23,10.65.69a52,52,0,0,1,5.93,2.19,11.42,11.42,0,0,0,2.61,1,3.93,3.93,0,0,1,2,.92,21.34,21.34,0,0,0,5.37,3.09,29.29,29.29,0,0,0,5.78,2.12,46.54,46.54,0,0,0,10.42,1.2,33.72,33.72,0,0,0,13.4-2.77c4-1.79,7.73-4,11.6-5.95a18.44,18.44,0,0,1,6-1.83c2-.25,3.91-1,6-.61a5.16,5.16,0,0,0,3.68-.34Z"/><path d="M696.75,299.81a31.26,31.26,0,0,0-5.39,0,27,27,0,0,0-7,1.69,14,14,0,0,1-3.19,1.16,8,8,0,0,0-2.89,1.52,52.86,52.86,0,0,1-5.56,2.95c-1.85,1-3.7,2.34-6.08,2.3-1.14,0-2.27.79-3.44,1.11-2.92.8-5.92.35-8.89.5a40.6,40.6,0,0,1-6-.54,37,37,0,0,1-4.89-1.19,28.61,28.61,0,0,1-7.14-3.3,56.28,56.28,0,0,0-11.9-5.13,25,25,0,0,0-8.21-1.29c-2.62.13-5.26.43-7.87.68-3.51.32-6.4,1.87-9.38,3.25a30,30,0,0,0-6.32,3.58,1.72,1.72,0,0,1-.6.37c-2.92.82-5.64,2.3-8.7,2.71s-6.23.91-9.37,1.1a4,4,0,0,1-2.09-.3c-1.31-.69-2.73-.52-4.06-.6-3.8-.25-7.08-1.7-10.39-3.43-4.15-2.18-8.25-4.58-12.8-5.87a19.51,19.51,0,0,0-4.69-1,52.6,52.6,0,0,1-6-.33c-2.16-.31-4.16.22-6.23.45a6.07,6.07,0,0,0-1.69.48,3.56,3.56,0,0,1-1.44.46c-2.57-.31-4.57,1.23-6.54,2.32-2.15,1.19-4.3,2.45-6.5,3.56-1.4.71-2.79,1.67-4.5,1.62a.8.8,0,0,0-.53.23c-1,1-2.35,1.06-3.66,1.35a40.42,40.42,0,0,1-9,1,38.34,38.34,0,0,1-11.34-1.77,49.63,49.63,0,0,1-10.26-5.11,21.8,21.8,0,0,0-4.82-2.1c-2.32-.7-4.55-1.83-6.95-2.06a28,28,0,0,0-7.09-.28,19.57,19.57,0,0,1-3.34.05,19.14,19.14,0,0,0-6.6,1.25c-1,.34-2.21.28-3.15.86-1.75,1.1-3.72,1.78-5.43,2.94-2.07,1.42-4.48,2.14-6.71,3.23a45.1,45.1,0,0,1-6.2,2.07,25.39,25.39,0,0,1-5.11.73,22.2,22.2,0,0,1-7.62-.45,1.8,1.8,0,0,0-1.05.1.68.68,0,0,1-.9-.3,1.27,1.27,0,0,1,0-1c.18-.39.53-.08.82,0a1.82,1.82,0,0,0,.95,0c1.73-.62,3.33.21,5,.43a3.89,3.89,0,0,0,1.4-.06,64.07,64.07,0,0,1,7.21-1.28,10.18,10.18,0,0,0,4.43-1.38c1.58-.91,3.43-1.3,5.05-2.22,1-.58,2-1.17,3-1.83a15.07,15.07,0,0,1,6.76-2.78,2.94,2.94,0,0,0,.87-.35,13.2,13.2,0,0,1,6.69-1.46,48.77,48.77,0,0,0,6.06-.15c3.4-.16,6.53.8,9.75,1.54,3.06.7,5.6,2.36,8.27,3.79,3,1.62,6.21,2.93,9.34,4.35,1.66.76,3.42.8,5.13,1.18a24.15,24.15,0,0,0,7,.47,47,47,0,0,0,11.45-1.88A24,24,0,0,0,513.4,304c.68-.53,1.55-.19,2.25-.62,1.1-.67,2.26-1.26,3.37-1.93a18,18,0,0,1,5.32-2.05c2-.46,4-.33,5.9-1,.73-.27,1.47.25,2.22.21,1.23-.06,2.45-.21,3.68-.22a25.48,25.48,0,0,1,8.85,1.34c1.87.64,3.79,1.22,5.67,1.86a19.38,19.38,0,0,1,3.24,1.89c3.24,1.88,6.43,3.86,10.21,4.52a7.79,7.79,0,0,1,1.74.69,13.78,13.78,0,0,0,5.59.75c1.3,0,2.59.22,3.89.34a1.13,1.13,0,0,0,.32,0c1.79-.62,3.73-.09,5.51-.74a7.61,7.61,0,0,1,1.72-.35,21.2,21.2,0,0,0,9.74-3.74,22.75,22.75,0,0,1,3.13-1.55c1.85-.92,3.63-2,5.53-2.82,3.63-1.64,7.49-1.82,11.32-2.15a34.74,34.74,0,0,1,10.31.66,51.26,51.26,0,0,1,11.15,4.17c2.14,1,4.11,2.24,6.15,3.39,1.49.85,3.33,1.07,5,1.59,2.29.71,4.69.62,7,1.25a17.26,17.26,0,0,0,7.46-.12c1.65-.3,3.34-.2,5-.86,2.31-.93,4.7-1.66,7.06-2.43,1.32-.43,2.14-1.6,3.36-2.15,3.07-1.4,6.14-2.82,9.2-4.23a9.57,9.57,0,0,1,3.28-.71c1.87-.14,3.73-.64,5.64-.38a10.33,10.33,0,0,0,3.54-.23Z"/><path d="M696.75,265.49c-3.35.43-6.77.07-10.09,1.1a29.13,29.13,0,0,0-4.58,1.26,29.66,29.66,0,0,1-3.8,2.07,30.62,30.62,0,0,0-6.65,3.61c-1.23.78-2.82.88-4.18,1.51-2.14,1-4.6.76-6.76,1.69a1.5,1.5,0,0,1-.6,0c-2.67-.22-5.33.15-8,0a27.85,27.85,0,0,1-7.8-1.6c-1.79-.65-3.83-.73-5.37-1.93a25.53,25.53,0,0,0-5.29-3c-3.31-1.49-6.53-3.4-10.15-3.9-2.21-.31-4.39-.95-6.7-.87-5.1.19-10.19.45-15,2.24a29,29,0,0,0-5.61,2.85c-2.8,1.78-5.62,3.65-9,4.4-3,.65-6,1.17-8.88,2a2.68,2.68,0,0,1-1.36.06,8.66,8.66,0,0,0-3.86-.07,5.26,5.26,0,0,1-2.35-.15c-2.19-.53-4.44-.82-6.64-1.35a36.6,36.6,0,0,1-7.52-3.08c-2.37-1.19-4.45-2.93-7.08-3.63-1.25-.34-2.09-1.62-3.41-1.79-2.72-.35-5.33-1.36-8.14-1.27-1.94.07-3.9-.09-5.84-.13a34.3,34.3,0,0,0-7.56,1c-4.07.82-7.27,3.41-10.93,5a14.35,14.35,0,0,0-4.48,2.77,3.92,3.92,0,0,1-3,.9,13,13,0,0,0-4.09.59,19.39,19.39,0,0,1-7,.62,32.84,32.84,0,0,0-3.28.22,33.16,33.16,0,0,1-5-.43,20.2,20.2,0,0,1-6.48-1.93,10.61,10.61,0,0,0-2.51-1,1.54,1.54,0,0,1-.75-.31c-2-2.08-4.85-2.34-7.2-3.67a14.26,14.26,0,0,0-4.16-2c-1.72-.35-3.35-1-5.12-1.25-2.21-.37-4.46-.37-6.66-.84a3.58,3.58,0,0,0-1.78,0c-2.06.66-4.21.56-6.3.88a42.75,42.75,0,0,0-4.1,1.35c-2.95.73-5.46,2.48-8.21,3.68a30.81,30.81,0,0,0-3.82,2.24,13.57,13.57,0,0,1-4.44,1.41,2.78,2.78,0,0,0-.93.15c-3,1.64-6.41,1.74-9.72,1.69a43.59,43.59,0,0,1-4.71.08c-.74-.09-1.49-.16-2.23-.26-.51-.07-.57-.45-.58-.89s.4-.49.75-.49c1.8,0,3.76-.46,5.36.1,2.65.93,5-.71,7.46-.39a3.08,3.08,0,0,0,1.53-.54,4.57,4.57,0,0,1,2.6-.61,4.75,4.75,0,0,0,2.93-1.08,75.71,75.71,0,0,1,16.08-7.38,15.91,15.91,0,0,1,4.05-.71c2.35-.09,4.7-.42,7.05-.73a5.06,5.06,0,0,1,1.36.08c3.72.55,7.59.71,10.94,2.5,3.11,1.65,6.42,2.83,9.41,4.76,1.7,1.1,3.59,2.29,5.84,2.36a3,3,0,0,1,1.49.63,2.79,2.79,0,0,0,2.37.55,1.84,1.84,0,0,1,1,0c3.22,1,6.46.34,9.71.26a52.61,52.61,0,0,0,7.94-1.05,13.45,13.45,0,0,0,4.87-1.89c2.31-1.45,4.9-2.46,7.24-3.86a29.4,29.4,0,0,1,6.65-2.76,45.66,45.66,0,0,1,5.87-1.08c1.24-.2,2.41-.66,3.7-.24a3.63,3.63,0,0,0,1.67,0,9.49,9.49,0,0,1,5,.37,5.14,5.14,0,0,0,1.65.27c2,0,3.68,1,5.53,1.5,2.58.65,4.75,2.17,7.22,3.08a19.2,19.2,0,0,1,4.59,2.61c2,1.46,4.29,1.8,6.57,2.3a3.29,3.29,0,0,1,.8.18c2.25,1.11,4.64,1.05,7.09,1.08,3.91.05,7.64-1.07,11.51-1.31,2.45-.15,4.6-1.47,6.7-2.7a12.32,12.32,0,0,1,2.53-1.23,2.2,2.2,0,0,0,1.12-.59c1.29-1.69,3.6-1.65,5.07-3.07a4,4,0,0,1,1.87-.61,72.35,72.35,0,0,1,9.66-1.8,12.35,12.35,0,0,1,3,.16,5.8,5.8,0,0,0,2.64-.25,5.85,5.85,0,0,1,3.26.17c2.53.66,5.23.76,7.6,1.88,2,.94,4,1.81,6,2.81,3.17,1.61,6.16,3.61,9.49,4.9,1.7.67,3.61.6,5.4,1.07,3.88,1,7.82.33,11.71,0a27,27,0,0,0,13.25-4.72c1.55-1.08,3.52-1.33,5.08-2.44a11.45,11.45,0,0,1,4.7-2,13.59,13.59,0,0,0,2.89-.95,1.66,1.66,0,0,1,1.15-.16c1.3.49,2.47-.19,3.68-.36a4.43,4.43,0,0,1,1.52-.12,17.6,17.6,0,0,0,3.63,0Z"/><path d="M696.75,258.77a19.23,19.23,0,0,0-7.64.32,43.68,43.68,0,0,0-7.51,2.16c-2.88,1.19-5.34,3.16-8.15,4.4-3.41,1.51-6.79,3.18-10.56,3.81a49.08,49.08,0,0,1-11.8.34,23.82,23.82,0,0,1-8-1.71c-4.2-1.87-8.61-3.33-12.3-6.22a5.22,5.22,0,0,0-2-.94c-3.4-.84-6.7-2.19-10.33-2-1.28.08-2.59-.38-3.9-.42a25.28,25.28,0,0,0-9.74,1.56c-1.06.4-2.27.27-3.26.9a13.6,13.6,0,0,1-4.44,2,6.63,6.63,0,0,0-1.92,1.1A39.73,39.73,0,0,1,585,268.71a10.79,10.79,0,0,1-4.2.6,3.76,3.76,0,0,0-2.18.39,7,7,0,0,1-5,.22,40.8,40.8,0,0,0-4.5-.34,15.87,15.87,0,0,1-4.35-.93c-1.69-.7-3.59-.75-5.24-1.67-2.75-1.51-5.58-2.88-8.35-4.35-2.29-1.21-4.55-2.47-7.21-2.69a1.6,1.6,0,0,1-.66-.24,9.9,9.9,0,0,0-6.36-.87,19.77,19.77,0,0,1-2.79-.09,37.09,37.09,0,0,0-9.71,1.12,39.41,39.41,0,0,0-10.09,4.61,31.38,31.38,0,0,1-7.36,3.28c-2,.58-4,1.18-6.09,1.68a19.12,19.12,0,0,1-3.18.26c-2.25.15-4.52.63-6.81,0-1-.27-2.06.1-3.12-.09-1.55-.28-3.06-.66-4.59-1-3.43-.71-6.22-2.81-9.42-4-1.38-.52-2.53-1.64-3.93-2.29a30.41,30.41,0,0,0-9.77-3.15c-1.49-.15-3-.15-4.48-.35s-2.85,0-4.29-.28c-1.85-.33-3.59.62-5.41.8-5.39.54-9.6,3.8-14.2,6.19a34.16,34.16,0,0,1-7.5,3,11,11,0,0,0-1.63.64,2.09,2.09,0,0,1-1.12.35c-3.27-.42-6.46.51-9.69.72a2.74,2.74,0,0,1-1.26-.26,3.93,3.93,0,0,0-2.65-.48c-.4.11-.88.14-.89-.58s.2-1,.81-.79a17.57,17.57,0,0,0,4.95.32,21.44,21.44,0,0,0,3.86-.4,10.7,10.7,0,0,1,2.25-.16c3.51.1,6.67-1.08,9.79-2.53,2.77-1.27,5.43-2.77,8-4.28a32.19,32.19,0,0,1,12.38-3.73c2.65-.35,5.36-.8,8,.37.85.38,1.71-.29,2.62-.24,2.77.15,5.25,1.26,7.8,2.13s5,2.57,7.53,3.83,5,2.71,7.88,3.24a1.66,1.66,0,0,1,.45.12c2.26,1.23,4.71,1.18,7.18,1.44a47.85,47.85,0,0,0,6.1.07,23.17,23.17,0,0,0,7.3-1.15c3.25-1.16,6.56-2.07,9.53-4a31.21,31.21,0,0,1,8.74-4.2c1.92-.53,3.89-.87,5.86-1.23a35.46,35.46,0,0,1,8.14-.6,33,33,0,0,1,13.54,3.1c3.33,1.68,6.53,3.63,9.9,5.22a36.16,36.16,0,0,0,7.57,2.44c.91.21,1.88.18,2.78.4,1.29.32,2.53-.38,3.76-.12a26.63,26.63,0,0,0,4.88.21,16.59,16.59,0,0,0,7.06-1.62,4.26,4.26,0,0,1,1.24-.35c3.31-.37,5.61-2.82,8.47-4.1,2.26-1,4.28-2.49,6.76-3.13,1.91-.49,3.81-1.12,5.72-1.7.11,0,.23-.12.33-.12,3.13.27,6.23-.36,9.4-.13,2.92.22,5.71,1,8.58,1.31a11.66,11.66,0,0,1,3.33,1.4,115.3,115.3,0,0,1,10.92,5.54,16.29,16.29,0,0,0,3.17,1.19,48,48,0,0,0,6.53,1.27,16.44,16.44,0,0,0,3.92.71c4.45-.24,8.92-.21,13.16-1.92a29.87,29.87,0,0,0,5.39-2.63c1.15-.75,2.49-1.18,3.67-1.85,1.93-1.1,4-1.92,5.91-3.09,1.11-.69,2.62-.66,3.93-1.05,3.45-1,7-1.07,10.59-1.26Z"/><path d="M696.75,237.89c-.14.06-.29.19-.43.19-2.38-.15-4.68.61-7,.68a18.32,18.32,0,0,0-6.2,1.26,68.43,68.43,0,0,0-6.48,3.21c-2.28,1.17-4.48,2.45-6.88,3.42a34.88,34.88,0,0,1-8.43,2.36,25,25,0,0,1-7.34.22,25.09,25.09,0,0,0-5.36-.36c-2.22.11-4.32-.79-6.34-1.58a63.39,63.39,0,0,1-7.25-3.47c-1.61-.87-2.93-2.23-4.82-2.63s-3.67-1.56-5.63-2a41.83,41.83,0,0,0-8.28-1.17,43.23,43.23,0,0,0-12.38,1.61,21.47,21.47,0,0,0-4.93,2c-1.61,1-3.35,1.72-5,2.55a63.48,63.48,0,0,1-6.42,3.13c-1.8.68-3.54,1.46-5.55,1.34a6.44,6.44,0,0,0-3.31.71c-1.56.83-3.12.37-4.64.15-1.21-.18-2.44-.23-3.64-.33a29.32,29.32,0,0,1-6.42-1.33,35.8,35.8,0,0,1-5.74-2q-3.93-2-7.75-4.2a25.43,25.43,0,0,0-6.49-2.33,32.39,32.39,0,0,0-8.57-1.23c-2.34,0-4.66.23-7,.47a35.84,35.84,0,0,0-7,1.55,22.37,22.37,0,0,0-6,3.24,7.84,7.84,0,0,1-2.68,1.37c-1.64.38-2.87,1.52-4.37,2.18-3.18,1.4-6.56,1.49-9.83,2.25-2.93.69-5.84-.07-8.76.15a6.21,6.21,0,0,1-3.54-.74c-.69-.4-1.48,0-2.22-.27a49.43,49.43,0,0,1-9.42-4c-3.59-2.07-7.26-4.17-11.36-5.13a18.78,18.78,0,0,0-5.84-.81c-1.54.13-3.07-.44-4.61-.22-2.51.35-5,.38-7.55.81a31.45,31.45,0,0,0-7.46,2.75c-3,1.32-5.82,2.95-8.75,4.38a29.68,29.68,0,0,1-9.69,2.91,39.25,39.25,0,0,1-12-.06c-.58-.11-.36-.52-.4-.84-.06-.54.27-.36.58-.34a38.34,38.34,0,0,0,4.39.17,83,83,0,0,0,8.59-.66,38.94,38.94,0,0,0,8.12-2.63c1.44-.6,2.76-1.48,4.17-2.17,3-1.43,5.79-3.15,8.87-4.35a27.64,27.64,0,0,1,8.2-1.33,42.79,42.79,0,0,1,10.55.27,31,31,0,0,1,9.38,3.15,78.46,78.46,0,0,0,7.88,4.12,37.58,37.58,0,0,0,7.75,2.6,33.58,33.58,0,0,0,6.79.87c2.7-.11,5.41,0,8.12,0,.31,0,.71.11.94,0,2.51-1.51,5.68-1.24,8.09-3.09a14.06,14.06,0,0,1,3.72-1.73,30.58,30.58,0,0,0,4.27-2.42,28.2,28.2,0,0,1,7.85-3,45.43,45.43,0,0,1,12.8-.71,36.29,36.29,0,0,1,7.71,1.45,35,35,0,0,1,5.23,2c4.36,2.11,8.44,4.82,13,6.43a21.16,21.16,0,0,0,6,1c1.31.06,2.58.43,3.86.47a28.86,28.86,0,0,0,6-.48,67.67,67.67,0,0,0,7.45-1.88,3.25,3.25,0,0,0,1.46-.7c.69-.69,1.72-.72,2.52-1.16,2.16-1.16,4.38-2.24,6.52-3.43a17.22,17.22,0,0,1,5.42-2.15,1.14,1.14,0,0,0,.46-.08c2.17-1.48,4.7-1,7.08-1.39,2-.31,4.09-.1,6.12-.42.9-.15,1.74.4,2.65.48a41.53,41.53,0,0,1,12.24,3.25c2.12.86,3.63,2.61,5.78,3.32s3.61,2.24,5.84,2.59c3.4.54,6.61,1.84,10.19,1.69,3.76-.15,7.57-.13,11.16-1.14,2.53-.71,5.29-1,7.49-2.87.91-.76,2.27-1,3.38-1.59,2.52-1.37,5.15-2.52,7.75-3.73a17.84,17.84,0,0,1,7.17-1.57c1.29,0,2.57-.33,3.87-.44a4.67,4.67,0,0,1,2.22.21Z"/><path d="M696.75,190.13c-2-.16-4.06.22-6.07-.22-.28-.06-.65.23-1,.37a15.77,15.77,0,0,1-4.18,1.07,15.75,15.75,0,0,0-4.63,1.78c-2.16,1.08-4.33,2.15-6.43,3.33a47.92,47.92,0,0,1-7.39,3.31,23.91,23.91,0,0,1-6.2,1.31c-3.37.24-6.79.69-10.14.25a32,32,0,0,1-9.49-2.51c-2.69-1.27-5.36-2.53-8-4-2.8-1.61-5.68-3.38-8.91-3.84a50.4,50.4,0,0,0-9.06-.87c-2.39.09-4.74.57-7.15.55s-4.75,1.25-7.11,1.93c-1.61.47-2.84,1.66-4.34,2.33-1.82.82-3.56,1.81-5.37,2.63a37.88,37.88,0,0,1-6,2.61c-1.66.43-3.34.21-5,.69a20.1,20.1,0,0,1-7.8.5c-1.75-.2-3.52.45-5.23-.19-3.48-1.3-7-2.6-10.42-4a10,10,0,0,1-2.24-1.28,30.14,30.14,0,0,0-6.76-3.5c-2.59-1-5.21-2.08-8.19-1.91a43.12,43.12,0,0,1-5.13-.53,19.57,19.57,0,0,0-5.27.36,70.54,70.54,0,0,0-8.74,2.15,19,19,0,0,0-3.31,1.74,49.63,49.63,0,0,1-4.63,2.27c-2.34,1.09-4.62,2.34-7.05,3.2a30.3,30.3,0,0,1-7.11,1.5,60.09,60.09,0,0,1-6.43.17,38.2,38.2,0,0,1-8.22-1.32c-5.13-1.12-9.4-4-13.86-6.51a38.65,38.65,0,0,0-5.47-2c-4.34-1.69-8.89-1.44-13.39-1.39A26.89,26.89,0,0,0,438.91,193a30.71,30.71,0,0,0-5.73,3.19,9,9,0,0,1-2.9,1.25c-1.64.55-3,1.76-4.7,2.11a76.59,76.59,0,0,1-8.8,1.63c-2.94.26-5.86-.3-8.79,0-.59,0-1,0-1-.8s.28-1,.91-.83c1.47.38,3,0,4.48.4a3,3,0,0,0,1.49-.21c2.12-.46,4.26-.05,6.4-.38a49.74,49.74,0,0,0,6.95-2.09,21.38,21.38,0,0,0,6.42-3.3,29,29,0,0,1,8.34-3.86,31.84,31.84,0,0,1,7-1.41,22.09,22.09,0,0,1,6.29,0c2.31.49,4.71.2,7,.74a33.48,33.48,0,0,1,8.17,2.7c2.51,1.31,4.73,3.06,7.26,4.32,1.87.93,3.9,1.38,5.84,2.12a24,24,0,0,0,5.93,1.31,23.2,23.2,0,0,0,5.32-.26,10.7,10.7,0,0,1,3.09-.05,5.35,5.35,0,0,0,2.55-.07c1-.3,2.06-.27,3-.6,2.44-.86,4.82-1.88,7.21-2.91,3.36-1.45,6.09-4.08,9.77-5s7.27-2.32,11.23-2.43a68.33,68.33,0,0,1,10.44.66,23.16,23.16,0,0,1,7,2.17q4.26,2,8.35,4.3c2.51,1.4,5.33,2,7.92,3.26a7.13,7.13,0,0,0,2.4.49c2.54.23,5.1.14,7.63.31,1.93.13,3.69-.61,5.52-.65a18.48,18.48,0,0,0,5.74-1.43,59.24,59.24,0,0,0,10.89-5.15,23.45,23.45,0,0,1,7.24-2.63c1.11-.24,2.18-.6,3.29-.86,4.09-1,8.12-.17,12.19.06a43.82,43.82,0,0,1,7.15,1.36c2.94.65,5.48,2.41,8.12,3.85,4,2.2,8.12,4.24,12.74,4.93,1.35.21,2.65,1,4,.67,1.58-.43,3.19.05,4.77-.4,1.29-.36,2.67.18,4,0a31.29,31.29,0,0,0,10.57-3.33c3.81-2.08,7.46-4.62,11.71-5.67,2.52-.61,4.92-1.86,7.67-1.64,1.38.11,2.77-.53,4.22-.48.46,0,.95,0,1.43,0Z"/><path d="M696.75,306.53A47.33,47.33,0,0,0,686,308a31.94,31.94,0,0,0-7.28,2.73c-1.19.64-2.16,1.65-3.5,2.06-2.89.87-5.3,2.8-8.28,3.6a55.06,55.06,0,0,1-9.44,1.66c-2.49.22-4.83-.37-7.23-.67a11.44,11.44,0,0,1-2.13-.14c-3.63-1.17-7.53-1.55-10.88-3.57a48.53,48.53,0,0,1-4.81-2.92,11.94,11.94,0,0,0-3.4-1.54q-2.81-1-5.66-1.85a10.42,10.42,0,0,0-2.55-.39c-3-.12-6.08-.18-9.12-.26-2.07-.05-4,.78-6,1.14-1,.18-2,.49-2.94.76-3.07.83-5.59,2.77-8.4,4.11a42.08,42.08,0,0,1-8.37,3.36c-1.17.27-2.18,1-3.43,1.06-3.09.1-6.11,1-9.22,1a2,2,0,0,1-.89-.25,2,2,0,0,0-1.91-.16,1.6,1.6,0,0,1-1.18,0c-2.68-1.16-5.73-.95-8.35-2.22-3.72-1.81-7.66-3.17-11.07-5.63-1.19-.87-2.87-1-4.21-1.71-2-1.12-4.2-.82-6.32-1.19a15.78,15.78,0,0,0-4.22-.5c-4.44.41-8.94.51-13.16,2.17-1.52.59-3.17.92-4.46,2.07a2.62,2.62,0,0,1-1.51.58c-1.3.11-2.13,1.14-3.12,1.8a26.41,26.41,0,0,1-7.79,3.49,25,25,0,0,1-7.19,1.2c-1.2,0-2.42.48-3.62.41a38.35,38.35,0,0,1-9.63-1.49,7.21,7.21,0,0,0-1.75-.21c-2.86-.17-5-1.9-7.38-3.17-3-1.65-6.1-3.14-9.28-4.49s-6.21-1.56-9.41-1.89c-3.49-.36-6.92.17-10.38.44a13.58,13.58,0,0,0-5.58,1.25c-2.51,1.36-5.16,2.41-7.65,3.83a42.71,42.71,0,0,1-9.75,4.31,28.17,28.17,0,0,1-9.16.88c-.76-.05-1.73.45-2.6.31-1.33-.2-2.67-.12-4-.4-.66-.13-.71-.4-.73-.93,0-.78.5-.39.8-.41,2.45-.17,4.91.36,7.33.27a71.6,71.6,0,0,0,7.8-1.06c2.45-.35,4.34-1.92,6.65-2.44a.5.5,0,0,0,.22-.1c1.73-1.84,4.16-2.46,6.3-3.57,3.1-1.61,6.2-3.31,9.89-3.33,1.31,0,2.58-.58,3.92-.73a23.41,23.41,0,0,1,8.9.63,2.5,2.5,0,0,0,.93.13,12.07,12.07,0,0,1,6.73,1.19c2.33,1.2,5,1.68,7.05,3.42,1.37,1.18,3,1.59,4.58,2.34.35.18.75.28,1.07.48,3.2,2.05,6.91,2.3,10.48,2.83a40.6,40.6,0,0,0,11.49-.28,27.75,27.75,0,0,0,9.34-3.36,45,45,0,0,0,5-2.63,15.35,15.35,0,0,1,5.09-2.23c1.44-.4,2.77-1.2,4.25-1.6a20.14,20.14,0,0,1,7.51-.89,3,3,0,0,0,.95,0,20.28,20.28,0,0,1,10.88.87,41.16,41.16,0,0,1,8.54,3.47,44.44,44.44,0,0,0,10,4.81c3.72,1.08,7.43,2.35,11.4,2.06A54.6,54.6,0,0,0,585.56,315c3.47-1,6.38-3,9.6-4.41,2.43-1.08,4.67-2.57,7.18-3.49a22.94,22.94,0,0,1,7.23-1.47,31,31,0,0,0,5.35-.41,5.92,5.92,0,0,1,2.65.42c1.62.47,3.29-.09,4.89.24a39.86,39.86,0,0,1,14.09,5.55,26.68,26.68,0,0,0,8,3.59,58.46,58.46,0,0,1,7.15,1.81,1.32,1.32,0,0,0,.59.07c3-.25,6.11-.13,9.13-.77,1.76-.37,3.51-.77,5.26-1.17a10.25,10.25,0,0,0,2.17-.9,28.24,28.24,0,0,1,4.26-1.94c1.93-.57,3.47-1.94,5.32-2.74,3.27-1.4,6.43-3.19,10-3.6,2.05-.25,4.16-.8,6.29-.22.67.18,1.35-.29,2-.43Z"/><path d="M696.75,224.45a15.21,15.21,0,0,0-4,.2,2,2,0,0,1-.93-.08,4.74,4.74,0,0,0-3.56.38c-.21.12-.43.35-.62.33-2.27-.22-3.94,1.42-6,1.91s-4,1.8-5.92,2.8c-4.28,2.2-8.42,4.7-13.42,5-2.37.16-4.71.79-7.09.64a46.66,46.66,0,0,1-10-1.23c-1.53-.43-2.9-1.13-4.34-1.69-3.75-1.44-7-3.9-10.67-5.34a35.2,35.2,0,0,0-10.7-2.84c-2.5-.15-5,.53-7.51-.35-.82-.3-1.67.37-2.52.42-2.33.12-4.46,1.08-6.72,1.46a1.68,1.68,0,0,0-.66.23,58.22,58.22,0,0,1-5.61,2.89,22,22,0,0,0-4.23,2.67c-.25.22-.51.17-.78.22a4.58,4.58,0,0,0-2.85,1.21,1.65,1.65,0,0,1-1.3.47,3.49,3.49,0,0,0-2.32.69.87.87,0,0,1-.53.23,43.7,43.7,0,0,0-6.24.83c-2.35.35-4.61-.07-6.9-.13a25.36,25.36,0,0,1-7.08-1.1,44.26,44.26,0,0,1-9.3-4.09,51.37,51.37,0,0,0-10.67-4.79,25.45,25.45,0,0,0-5.4-1.07,43.27,43.27,0,0,0-9.46.36c-4.29.56-8.59,1.31-12.29,3.93-1.23.88-2.83,1.21-4.1,2s-2.39,1.17-3.54,1.83c-3.43,2-7.34,2.16-11.08,2.85a19.61,19.61,0,0,1-6,.47c-2.39-.32-4.85-.23-7.19-1.12-2.58-1-5.36-1.44-7.9-2.62-.21-.1-.5-.11-.64-.26-2.19-2.38-5.5-2.62-8.05-4.29-3.16-2.07-6.91-2.15-10.39-3.13a6.57,6.57,0,0,0-3.15-.06,7.33,7.33,0,0,1-3.09-.06c-1.83-.46-3.44.44-5.16.78a64.79,64.79,0,0,0-8.8,2.45,2.31,2.31,0,0,0-.76.29c-2.92,2.4-6.62,3.32-9.8,5.22a16.59,16.59,0,0,1-8.69,2.14c-1.6,0-3.12.48-4.7.51-2.19.06-4.36-.33-6.54-.48-.74-.05-.38-.65-.45-1s.17-.68.63-.61.84.2,1.27.23c2.37.18,4.76,0,7.13.06a22.65,22.65,0,0,0,6.55-.85,42.29,42.29,0,0,0,9.42-3.81c2.28-1.24,4.61-2.45,6.93-3.62,3.05-1.54,6.38-1.8,9.54-2.77a1.47,1.47,0,0,1,.83,0c1.85.56,3.63-.29,5.45-.22a32,32,0,0,1,6.14,1c3.44.81,6.93,1.56,10,3.37,2.31,1.38,5,2.05,7,4,.69.66,1.66.37,2.44.72a27.78,27.78,0,0,0,8.69,2.35c2.68.26,5.43.14,8.16.24a23,23,0,0,0,3.7-.61,20.56,20.56,0,0,0,7.82-2.31c2.77-1.61,5.68-3,8.47-4.53a34.47,34.47,0,0,1,7.7-2.79,25.16,25.16,0,0,1,7.31-1.06c2.35.06,4.72-.57,7.06.09a4.62,4.62,0,0,0,1.44,0,4.45,4.45,0,0,1,3,.75,6.13,6.13,0,0,0,2.45.78,17,17,0,0,1,5.67,2.5,6.23,6.23,0,0,0,1.12.64c3.6,1.3,6.73,3.58,10.31,4.93a5.51,5.51,0,0,0,2.16.5c1.43-.05,2.69.69,4.14.8,1.93.14,3.86-.12,5.76.16a10.66,10.66,0,0,0,4.72-.46c1.76-.51,3.63-.47,5.44-1a27,27,0,0,0,6.65-2.8c2.27-1.29,4.66-2.36,6.94-3.63,2.69-1.51,5.7-2,8.61-2.81a20.31,20.31,0,0,1,7.71-.56c3.68.47,7.5.06,11.05,1.59,2.91,1.27,5.86,2.4,8.69,3.91,3.14,1.69,6.12,3.87,9.83,4.31a4.51,4.51,0,0,1,1.63.67c1.34.77,2.81.24,4.21.46,3.37.54,6.76.21,10.15.23,2.48,0,4.67-1.24,6.95-2a27.28,27.28,0,0,0,6.61-3.26,18.12,18.12,0,0,1,6.08-2.62,5.82,5.82,0,0,0,2-.94c1.89-1.37,4.18-1.43,6.34-1.93a20.28,20.28,0,0,1,4.86-.24,8.59,8.59,0,0,0,2.94-.25Z"/><path d="M696.75,210.77c-2.41,0-4.84-.19-7.18.66a2.56,2.56,0,0,1-1.07,0c-2.21-.23-4.14.76-6.12,1.46a42.62,42.62,0,0,0-8.55,4.59c-2.72,1.74-5.78,2.31-8.72,3.3-2.41.81-5,.56-7.47,1-3.52.61-7-.36-10.51-.34-1.47,0-3-.88-4.4-1.52a67.87,67.87,0,0,1-7-3.39,36.16,36.16,0,0,0-8.63-4.05,41.83,41.83,0,0,0-6.55-1.37c-2.43-.26-4.86-.52-7.3-.62a17.25,17.25,0,0,0-3.86.45,35,35,0,0,0-11.1,3.64,23.16,23.16,0,0,1-5,2.38c-.74.2-1.1.89-1.74,1.21a49.73,49.73,0,0,1-5.42,2.16c-3.24,1.16-6.67,1.31-10,1.76a17.51,17.51,0,0,1-4.58-.43,5.91,5.91,0,0,0-1.18-.12c-2.87.23-5.59-.68-8.32-1.29-1.35-.3-2.46-1.34-3.73-2-2.61-1.27-5.13-2.71-7.7-4.05a37,37,0,0,0-11.22-3.68,13.38,13.38,0,0,0-5.34.16,3,3,0,0,1-1.59.07,8.54,8.54,0,0,0-2.46.13,23,23,0,0,0-7.36,1.53,51,51,0,0,0-5.14,2.29c-4.11,2.12-8.11,4.57-12.69,5.63a63.19,63.19,0,0,1-8.37,1.5c-3.18.31-6.21-.56-9.35-.41-2,.09-3.86-1.17-5.83-1.69a18.45,18.45,0,0,1-5.16-2.47c-.95-.6-2.08-.9-3.07-1.44a65.8,65.8,0,0,0-8.61-4,14.32,14.32,0,0,0-5-.9h-.12a18,18,0,0,0-6.85-.23c-3,.32-6.11.2-9.06,1.34-2.14.82-4.71.88-6.43,2.4-2.18,1.92-5,2.37-7.35,3.84a19.88,19.88,0,0,1-5.82,2.33c-2.24.53-4.58.5-6.75,1.3,0,0-.08.05-.11,0-2.11-.45-4.25.36-6.35-.15-.93-.23-1.9.12-2.83-.28-.42-.18-.71-.32-.67-.81s.53-.38.83-.37c1.65,0,3.32.09,5,.11a12,12,0,0,0,3.58-.06,45.3,45.3,0,0,1,5.24-.77,31.06,31.06,0,0,0,8.16-3c3-1.42,5.84-3.21,8.73-4.85,1.78-1,3.88-1.16,5.82-1.77,3.37-1,6.9-.53,10.31-1.21a10.78,10.78,0,0,1,4.68.54,52.11,52.11,0,0,0,5.78.89,8.23,8.23,0,0,1,2.79,1.21c2.41,1.37,4.85,2.68,7.35,3.91,1.92.94,3.87,1.84,5.76,2.85a14.33,14.33,0,0,0,4,1.22,48.51,48.51,0,0,0,5.54.93c2.46.24,4.89-.19,7.34-.15a17.22,17.22,0,0,0,9.29-2.31c1.1-.66,2.51-.87,3.52-1.54,1.88-1.23,4.18-1.63,5.83-3.22,0,0,0-.06.09-.08,2.69-1,5.18-2.62,8.13-2.82,1.27-.08,2.41-.65,3.67-.77,2-.21,4.09-.31,6.13-.48a29,29,0,0,1,11.29,1.75,46.45,46.45,0,0,1,10.36,4.88,34.07,34.07,0,0,0,4.47,2c1.91.81,3.89,1.39,5.8,2.19a4.84,4.84,0,0,0,3.07.38,15.6,15.6,0,0,1,3.54.1c3.27.06,6.54.3,9.81-.65,1.74-.5,3.54-.87,5.28-1.46a4.34,4.34,0,0,0,2-1,4.54,4.54,0,0,1,1.36-.92c3.75-1.67,7.22-3.91,11.09-5.35a33.44,33.44,0,0,1,3.54-.79,31.68,31.68,0,0,1,9.39-1c3.39.17,6.78.58,10.16,1a5.51,5.51,0,0,1,1.8.83,43.22,43.22,0,0,0,4.55,2c1.34.52,2.27,1.66,3.65,2.13a26.91,26.91,0,0,1,6,3.07c1.5,1,3.34,1.11,5.05,1.44a51.5,51.5,0,0,0,12.21.74,28.84,28.84,0,0,0,10.87-2.75c2.76-1.29,5.39-2.8,8-4.34a30.5,30.5,0,0,1,4.33-1.78,4.4,4.4,0,0,0,1.46-.71,3,3,0,0,1,2.07-.72c2.31.05,4.51-.73,6.78-.89,1.39-.1,2.79-.07,4.19-.09Z"/><path d="M696.75,203.57a5,5,0,0,1-3.28.07,4,4,0,0,0-2.4.4c-2,.67-4.23.35-6.21,1.19-2.15.91-4.57,1.15-6.48,2.61-1.59,1.23-3.67,1.67-5,3.29-.3.36-1,.42-1.51.58a46.24,46.24,0,0,0-6.46,2.47,8.9,8.9,0,0,1-3.19.61c-1.69.15-3.38.31-5.06.41a30.17,30.17,0,0,1-7.5-.57c-2.27-.43-4.61-.55-6.75-1.5a33.71,33.71,0,0,1-5.22-2.57,24.81,24.81,0,0,0-3.74-1.64c-2.17-1-4.2-2.23-6.36-3.21a6.2,6.2,0,0,0-2.34-.65c-2.12-.05-4-1-6.05-1.32a23.18,23.18,0,0,0-5.58-.1,12.76,12.76,0,0,1-2.76.15,4.81,4.81,0,0,0-2.21.29c-2.53.84-5.15,1.35-7.68,2.14a14.38,14.38,0,0,0-3.1,1.91,66,66,0,0,1-8.74,4.07,22.65,22.65,0,0,1-5.78,2.12,19.59,19.59,0,0,1-3.49.51c-2.06-.08-4.1.38-6.17.25a59.3,59.3,0,0,1-8-1,26.94,26.94,0,0,1-9.73-4c-1.87-1.24-4.07-1.54-5.93-2.67-.63-.38-1.3-.72-2-1.07a23.27,23.27,0,0,0-12.12-2.5,16.25,16.25,0,0,1-3.27,0,10.3,10.3,0,0,0-3.6.41c-2,.4-4,.69-6,1.2a38.21,38.21,0,0,0-6,2.57,4,4,0,0,1-1.61.62,1.3,1.3,0,0,0-.85.37c-2,2.14-4.87,2.61-7.32,3.88-3.44,1.78-7.38,1.89-11.12,2.57a8.36,8.36,0,0,1-4.61-.64,2,2,0,0,0-1.48-.08,5.89,5.89,0,0,1-2.21-.08A21.13,21.13,0,0,1,481,213a51.74,51.74,0,0,1-8.47-4.2,26.31,26.31,0,0,0-8.91-3.92,37.84,37.84,0,0,0-10.55-1c-4.82.37-9.64.71-14.21,2.93-2.67,1.3-5.09,3-7.82,4.18a48.31,48.31,0,0,1-8.22,3c-2.79.63-5.6.41-8.3.95-2.36.47-4.43-.64-6.66-.37-.82.1-.85-.51-.82-1.12,0-1,.61-.25.91-.26,2.06-.09,4.09.47,6.13.41a61.52,61.52,0,0,0,7.25-.78c2.91-.42,5.38-1.85,8.12-2.61,1.45-.4,2.55-1.68,3.86-2.44a30.85,30.85,0,0,1,8.11-3.53c2.16-.53,4.23-1.45,6.47-1.63,1.55-.13,3.1-.1,4.65-.24,1.75-.16,3.47.47,5.23,0,1-.26,2,.27,3,.43a33.4,33.4,0,0,1,10.07,3.41,23.3,23.3,0,0,1,4.67,2.7c.93.81,2.35,1,3.51,1.59a37,37,0,0,0,10.28,3,15.57,15.57,0,0,0,6.83,0,20.63,20.63,0,0,1,3.77-.31,23.62,23.62,0,0,0,8.5-2.47,61.59,61.59,0,0,0,7.74-4,16.3,16.3,0,0,1,7.28-2.73,26.74,26.74,0,0,0,2.63-.93,29.68,29.68,0,0,1,7.75-.73,66.84,66.84,0,0,1,7.75.27c1.27.19,2.4.94,3.71,1.07,2.1.23,3.81,1.38,5.55,2.43.92.55,2,.57,2.92,1.18,3.2,2.17,6.83,3.46,10.4,4.82a24.32,24.32,0,0,0,8.09,1.43c2.47.07,4.92-.19,7.36-.26a22.26,22.26,0,0,0,7.39-1.66,98.29,98.29,0,0,0,9.88-4.85,47,47,0,0,1,8.11-3.21,24.58,24.58,0,0,1,7.29-1.29c2.93,0,5.84.25,8.76.31,3.12.06,5.66,1.6,8.45,2.5,4,1.29,7.39,3.74,11.1,5.56a30.38,30.38,0,0,0,8.22,2.3,32,32,0,0,0,6.94.65c4-.15,8-.42,11.67-1.9,3.17-1.26,6.52-2.24,9.17-4.61a5,5,0,0,1,1.7-.77c2.67-1,5.22-2.38,7.94-3,2.42-.57,5-1.22,7.58-.82a3.51,3.51,0,0,0,1.69-.25,1.48,1.48,0,0,1,1.24.11Z"/><path d="M696.75,162.77c-1.93.18-3.85-.33-5.79,0a29.76,29.76,0,0,0-6.39,1.46,36.1,36.1,0,0,0-6.22,2.62c-.06,0-.17,0-.22.08-2,2.29-5,2.7-7.6,4a32.26,32.26,0,0,1-10,2.8c-2,.31-4.08,0-6.12.08s-3.75-.48-5.64-.23h-.12c-2.11-.7-4.52-.3-6.42-1.79a2.51,2.51,0,0,0-1-.53,14.06,14.06,0,0,1-4.32-2,25.94,25.94,0,0,0-5.11-2.55c-1.33-.42-2.4-1.48-3.85-1.9a58.2,58.2,0,0,0-7.68-2,9.37,9.37,0,0,0-1.67,0,5.17,5.17,0,0,1-2.47-.05c-1.43-.63-2.87.07-4.31.13a9.22,9.22,0,0,1-1.17.09c-2.83-.32-5.32.82-7.92,1.63a38.28,38.28,0,0,0-5.66,2.5,52,52,0,0,0-5.81,3.28,20.89,20.89,0,0,1-6.08,2.44c-2.76.78-5.67.71-8.47,1.34-1.38.31-2.93-.42-4.43-.49a5.2,5.2,0,0,0-1-.12c-2.67.34-5.11-.67-7.65-1.19-1.94-.4-3.45-1.64-5.24-2.3s-3.54-1.67-5.35-2.38c-1.1-.43-1.63-1.61-2.85-1.84a10,10,0,0,1-4.27-1.77c-1.22-.9-3-.49-4.54-.86a34.54,34.54,0,0,0-8.18-.46c-1.38,0-2.72-.52-4.12-.13-3,.84-6,1.36-8.93,2.72-3.34,1.55-6.43,3.54-9.85,5-1.57.65-3.35.95-4.76,2a3,3,0,0,1-1.12.31c-2.42.5-4.83,1.22-7.29,1.11-3.36-.17-6.75.48-10.06-.23a32.81,32.81,0,0,1-8.31-2.74c-4.31-2.21-8.45-4.79-13-6.44a26.12,26.12,0,0,0-5-1.11,49.68,49.68,0,0,0-7.71-.5,34.63,34.63,0,0,0-14,2.79,12.51,12.51,0,0,0-4.17,2.31,1.23,1.23,0,0,1-.41.22c-3.11,1.26-5.91,3.23-9.18,4.11-2.32.63-4.58,1.47-7.08,1.45-1.47,0-3,.63-4.46.4-1.89-.29-3.79-.1-5.68-.32-.5-.06-.94-.2-.89-.94s.6-.62,1-.59c1.71.1,3.42.38,5.13.36a40.56,40.56,0,0,0,12.08-2,47,47,0,0,0,5.77-2.73c2.66-1.29,5.26-2.75,8-3.85,3-1.2,6-2.65,9.34-2.54,2.61.09,5.18-.61,7.79-.28a50.11,50.11,0,0,1,8,1.16,44.28,44.28,0,0,1,8,3.47c2.45,1.3,4.9,2.64,7.32,4,2.09,1.15,4.49,1.13,6.46,2.39a1.07,1.07,0,0,0,.48,0c3.34,0,6.7.58,10,.2,4.73-.54,9.48-1.05,13.76-3.56,2-1.19,4-2.54,6.07-3.53a49.89,49.89,0,0,1,8.92-3.2,47.7,47.7,0,0,1,9.57-1.05,23.55,23.55,0,0,1,8.17.94c2.8.88,5.63,1.64,8.33,2.78a10.08,10.08,0,0,1,1.44.79,57,57,0,0,0,8.23,4.49c1.48.66,3.21.49,4.63,1.21,1.89,1,4,.89,5.94,1.27,1.09.21,2.28-.19,3.4-.07,3.34.36,6.57-.44,9.76-1.09a24.18,24.18,0,0,0,7-2.85,32.42,32.42,0,0,1,4.49-2.44c1.9-.73,3.42-2.26,5.45-2.72,2.25-.52,4.49-1,6.76-1.47,1.19-.23,2.47-.28,3.59-.59,2.32-.64,4.54-.06,6.81,0a35.85,35.85,0,0,1,7.05,1.06c1.61.35,2.88,1.4,4.35,2a12.48,12.48,0,0,0,3.42,1.18c1.34.14,2.44,1.16,3.43,1.94,3,2.31,6.39,3.18,9.9,4a13.82,13.82,0,0,0,3.75.84c3.14-.18,6.26.44,9.4-.07a77.15,77.15,0,0,0,7.69-1.45c1-.27,1.57-1.28,2.55-1.41a7.82,7.82,0,0,0,3-1.2,20,20,0,0,0,3.45-2.25,9.84,9.84,0,0,1,2.19-1.06,20,20,0,0,1,6.89-2.37A49.5,49.5,0,0,0,692,160.9a2.77,2.77,0,0,1,1.43,0,5.89,5.89,0,0,0,3.33-.06Z"/><path d="M696.75,313.49a13.34,13.34,0,0,0-4.36.37,1.68,1.68,0,0,1-.78-.07,5.94,5.94,0,0,0-2.58.13c-3.23,1-6.58,1.78-9.58,3.43a33.52,33.52,0,0,0-4.75,2.57,2.6,2.6,0,0,1-1.66.53c-1,0-1.58.81-2.36,1.23a20.49,20.49,0,0,1-7.41,2.44c-3.11.39-6.21.58-9.34.67a36.31,36.31,0,0,1-9.35-1.3,27.9,27.9,0,0,1-9.18-4,50.17,50.17,0,0,0-7.4-3.71,27.66,27.66,0,0,0-9.11-2.15,48.38,48.38,0,0,0-5.64-.13,31.08,31.08,0,0,0-8.89,1.45,65.58,65.58,0,0,0-12.14,5.78c-1.79,1-3.59,2.31-5.92,2.43-1.6.09-3.14,1.05-4.81,1.25a2.3,2.3,0,0,1-.58.07c-3.44-.45-6.84.59-10.27.26-1.63-.16-3.22-.52-4.86-.63-1.25-.08-2.26-1.11-3.56-1.41-3.56-.82-6.61-2.78-9.72-4.6a38.29,38.29,0,0,0-10.79-4,43.44,43.44,0,0,0-7.44-.57,41.29,41.29,0,0,0-7.88.65c-2.43.33-4.38,1.81-6.72,2.25-2.75.5-4.78,2.45-7.11,3.77a41.11,41.11,0,0,1-8.74,3.7,7.79,7.79,0,0,1-3.76.29c-.88-.19-1.55.52-2.35.51-4.65,0-9.28.15-13.9-1.19a22,22,0,0,1-5.64-2.37c-1.5-.92-3.29-1.18-4.81-2.14-3.67-2.3-7.8-3.6-11.8-5.17a9.55,9.55,0,0,0-4.94-.33,16.19,16.19,0,0,1-4.12-.08,12.33,12.33,0,0,0-4.05.43c-2.05.47-4.16.75-6.21,1.25a3.3,3.3,0,0,0-.89.28c-3.51,2-7.23,3.54-10.77,5.47a26.91,26.91,0,0,1-5.7,2.32c-1.81.49-3.66.79-5.48,1.2a35.45,35.45,0,0,1-5,.36,44.28,44.28,0,0,1-6.31-.24c-.65,0-1.11-.11-1.07-.91,0-.48,0-.64.7-.59a55.2,55.2,0,0,0,11.13,0c2.45-.32,4.65-1.44,7.09-1.57a2.43,2.43,0,0,0,1.19-.47c2.82-1.8,6-2.81,8.87-4.67a26.6,26.6,0,0,1,9.14-3.56,17.11,17.11,0,0,1,6.06-.53,19.36,19.36,0,0,0,4.35-.16,20,20,0,0,1,5.41.53c3.82.75,7.34,2.46,10.9,3.92,1.66.67,3.12,2,4.83,2.66,2.18.87,4.13,2.33,6.46,2.75,2.95.53,5.8,1.46,8.88,1.52a73.86,73.86,0,0,0,8-.68c3.89-.34,7.23-1.89,10.72-3.31,2.37-1,4.22-2.71,6.52-3.69a43.1,43.1,0,0,1,8.78-2.92,63,63,0,0,1,6.45-.74c1.62-.15,3.26.16,4.88-.23a4.53,4.53,0,0,1,1.62.17c5,.61,9.57,2.6,14.11,4.63a8.83,8.83,0,0,1,2.12,1.25,14.43,14.43,0,0,0,5,2.74c2.56.75,5,2,7.8,2s5.56.8,8.36.66a35,35,0,0,0,13.36-3c2.45-1.16,4.72-2.66,7.16-3.81a40.52,40.52,0,0,1,9.49-3.56,17.27,17.27,0,0,1,3.76-.78c3.08.17,6.15-.44,9.23.07,1.07.17,2.23-.14,3.35.19a65.84,65.84,0,0,1,12.66,5.27,38.61,38.61,0,0,0,7,3.43,34,34,0,0,0,8.84,1.82c1.48.06,3,.84,4.52.64,4.35-.57,8.88-.46,12.87-2.52a46.47,46.47,0,0,0,6-3.15c.85-.6,2-.69,2.88-1.28,2.84-1.89,6.09-2.69,9.31-3.64,1.85-.54,3.8-.41,5.64-1.07,1.3-.47,2.73.38,4.13.13Z"/><path d="M696.75,334.13a26.55,26.55,0,0,0-10.34,1,49.49,49.49,0,0,0-7.89,3.14c-1.83.9-3.36,2.3-5.31,3-3.2,1.09-6.05,3.07-9.5,3.59-1.26.19-2.54-.18-3.76.34a4.05,4.05,0,0,1-2.61.31,4.91,4.91,0,0,0-2.59.14,3.71,3.71,0,0,1-2.22-.19c-2.38-.74-4.92-.5-7.31-1.19a21.67,21.67,0,0,1-3.64-1.31c-4.29-2.12-8.5-4.47-12.93-6.28a30.37,30.37,0,0,0-12-2.57c-2.48,0-4.94.25-7.42.35a11.19,11.19,0,0,0-3.42.73,27.58,27.58,0,0,1-3.52.91,17.6,17.6,0,0,0-4.62,2.28,61.18,61.18,0,0,1-13.38,6.09,33.45,33.45,0,0,1-7,1.21,10.64,10.64,0,0,1-2.7-.28,23.69,23.69,0,0,0-4.69,0,2.89,2.89,0,0,1-.72,0,66.15,66.15,0,0,1-11-3.85c-4.1-1.86-7.94-4.28-12.2-5.79a38.93,38.93,0,0,0-6.31-1.34,41.35,41.35,0,0,0-8.9-.12,28.18,28.18,0,0,0-6.49,1,40.33,40.33,0,0,0-7.22,3,51.89,51.89,0,0,1-6,3,5.89,5.89,0,0,0-2.25,1.24,7.29,7.29,0,0,1-4.51,1.78c-3.42.48-6.83,1.22-10.33,1-2.76-.14-5.49-.61-8.23-.84s-4.93-1.68-7.35-2.64c-1.73-.68-3.28-1.65-4.93-2.46a56.68,56.68,0,0,0-6.54-3.12c-2.79-.93-5.55-2.22-8.64-2-1.43.11-2.83-.37-4.27-.24-3.19.29-6.52-.07-9.54.86a27.64,27.64,0,0,0-7,2.72,44.2,44.2,0,0,1-7.73,4.2,42.85,42.85,0,0,0-4,1.84c-.87.45-1.9.33-2.84.67-4.61,1.65-9.42.85-14.16,1-.55,0-1.42.15-1.63-.73-.27-1.17.31-1.71,1.53-1.28a13.8,13.8,0,0,0,5,.64,42.39,42.39,0,0,0,12.76-2,14,14,0,0,0,3.17-1.54,68.19,68.19,0,0,1,10.86-5.64c1.72-.75,3.73-.71,5.43-1.43,2.39-1,4.79-.41,7.18-.57,3.83-.25,7.68-.39,11.29,1.37a4.36,4.36,0,0,0,1.68.44,5.55,5.55,0,0,1,2.36.68c2.43,1.27,5,2.34,7.29,3.82a33.38,33.38,0,0,0,5.5,2.48,25.46,25.46,0,0,0,8.3,2.2c1.59.08,3.25.13,4.87.09s3.28-.32,4.89-.28a15.37,15.37,0,0,0,4.91-1.12,49.27,49.27,0,0,0,6.68-2.52c1.94-.9,3.85-1.92,5.72-3a46.64,46.64,0,0,1,7-2.78,40,40,0,0,1,6.23-1.66,11.84,11.84,0,0,1,2.33.17c1.8,0,3.6-.05,5.4,0a28.82,28.82,0,0,1,7.3,1.17,73.33,73.33,0,0,1,6.95,2.76c2,.79,3.51,2.16,5.42,3,2.58,1.13,5.3,1.91,7.83,3.15a11.64,11.64,0,0,0,4.71.92,51.16,51.16,0,0,0,11.59-.33,27.1,27.1,0,0,0,7.64-2.17,78.38,78.38,0,0,0,7.5-3.89,23.83,23.83,0,0,1,7.48-3.28c1.4-.34,2.81-.67,4.18-1.1,1.21-.37,2.4,0,3.59-.06,3.57-.12,7.14-.6,10.72.47a68.59,68.59,0,0,0,6.65,1.79,13.08,13.08,0,0,1,2,.9,56.54,56.54,0,0,1,8,4,26.63,26.63,0,0,0,7.53,2.83,52.66,52.66,0,0,0,6.53.94,54.56,54.56,0,0,0,9.41-.47c2.16-.21,4.2-1.25,6.29-1.91s3.81-2.11,5.9-2.77a1.85,1.85,0,0,0,.63-.31,22.4,22.4,0,0,1,5.83-2.91,15.49,15.49,0,0,0,3.7-1.7c.86-.63,2-.25,3-.44a14.73,14.73,0,0,1,4.18-.54c1.59.17,3.12-.13,4.68-.09Z"/><path d="M696.75,278.93a25.8,25.8,0,0,1-5,.43,9.56,9.56,0,0,0-3.24.51c-2.3.85-4.82,1-7,2.16-3.41,1.76-6.9,3.38-10.25,5.28a22.46,22.46,0,0,1-7.54,2.39,31.71,31.71,0,0,1-5,.88,5.59,5.59,0,0,1-1.73-.12,19.59,19.59,0,0,0-5.46-.25c-2.42,0-4.68-.92-7-1.11-2.21-.18-3.87-1.54-5.79-2.35-3.51-1.49-6.52-4-10.25-5a1.07,1.07,0,0,1-.41-.21c-2.08-1.78-4.72-1.44-7.14-1.94-1.23-.25-2.48-.49-3.7-.63a23.27,23.27,0,0,0-4.84.29,10.39,10.39,0,0,1-3.51.27,1.34,1.34,0,0,0-.79.1c-3.37,1.19-6.93,1.78-10.05,3.76-2.33,1.47-5,2.4-7.39,3.77a15.46,15.46,0,0,1-6.33,2.37c-2.13.17-4.17.74-6.29,1-3.74.4-7.37-.44-11.06-.45a6,6,0,0,1-2.44-.72c-2.61-1.26-5.54-1.66-8-3.28-1.4-.92-2.93-1.63-4.34-2.55a20.55,20.55,0,0,0-7.09-2.65c-1.13-.23-2.06-1.13-3.21-1a13.63,13.63,0,0,1-4.09-.44c-2.7-.62-5.39,0-8.07.07a23,23,0,0,0-10.25,2.95c-2.27,1.26-4.77,2.07-7,3.48a21.64,21.64,0,0,1-3.23,1.92,29.5,29.5,0,0,1-4.36,1.28,42.53,42.53,0,0,1-5.75,1.21,10.13,10.13,0,0,1-3.88-.05,5.94,5.94,0,0,0-2.84.07c-1.48.39-2.79-.28-4.17-.42a41.77,41.77,0,0,1-5.44-.93,21.14,21.14,0,0,1-4.58-1.79,67.22,67.22,0,0,1-6.62-3.48c-3.37-2.18-7.22-3.1-11-4.06a20.37,20.37,0,0,0-8.39-.32,19.46,19.46,0,0,1-2.84.15c-1.92,0-3.67.92-5.57.9a4.45,4.45,0,0,0-2.12.63c-3.31,1.78-6.81,3.18-10.09,5a34.3,34.3,0,0,1-12.18,4.29,20.45,20.45,0,0,1-6.8-.09,13.66,13.66,0,0,0-4.27.23c-1.21.13-1.3-.47-1.22-1.39,0-.5.23-.5.69-.45a20.82,20.82,0,0,0,3.9.33c1.63-.13,3.19.37,4.84.14,1.85-.27,3.68-.67,5.52-1,4.05-.72,7.57-2.8,11.15-4.74A38.62,38.62,0,0,1,443.64,279c2-.4,3.92-.91,6-1.13a41.42,41.42,0,0,1,12.72.8,38.65,38.65,0,0,1,10.78,4.12c3.61,2,7.12,4.09,11.16,5.06a10.08,10.08,0,0,0,3,.4,2.79,2.79,0,0,1,1.71.35c1.39.92,2.79.65,4.21.25a3.07,3.07,0,0,1,1.77-.06c2.1.79,4.14.22,6.1-.34a59.93,59.93,0,0,0,7.08-2.1,4.92,4.92,0,0,0,1.07-.48c3-2.2,6.41-3.51,9.69-5.05a28.2,28.2,0,0,1,10.95-2.94c2.66-.1,5.33-.12,8-.17a24.72,24.72,0,0,1,5.13.75c4.9.93,9,3.66,13.38,5.77,2.77,1.34,5.39,3.17,8.55,3.66a55.82,55.82,0,0,1,6.17.86c2,.54,4.19.31,6.26.37a17.87,17.87,0,0,0,5.71-1c1.11-.35,2.27-.49,3.4-.73a11.51,11.51,0,0,0,2.87-1.25,37.49,37.49,0,0,1,5.9-2.89,2.59,2.59,0,0,0,1-.41,18.34,18.34,0,0,1,5.24-2.86,30.32,30.32,0,0,1,6.25-1.5c.85-.16,1.7-.27,2.55-.45a4.86,4.86,0,0,1,3-.11,2.06,2.06,0,0,0,1.28-.11,7.37,7.37,0,0,1,4.16,0,27.44,27.44,0,0,0,4.39.81,22.94,22.94,0,0,1,7.7,2.56c3.83,2,7.66,4,11.64,5.6a21.19,21.19,0,0,0,8.41,2c2,0,4,.41,6,.28,2.62-.17,5.3-.11,7.87-.93,5.39-1.71,10.32-4.39,15.28-7a21.09,21.09,0,0,1,6.36-2.24c1.81-.31,3.66-.45,5.44-.88s3.34.1,5-.25Z"/><path d="M696.75,217.25a1.6,1.6,0,0,1-1.14.21,15.6,15.6,0,0,0-6.13.55c-2.05.45-4.14.8-6.17,1.35a12.39,12.39,0,0,0-2.4,1.24c-3.24,1.67-6.5,3.33-9.7,5.09-.66.36-1.36.32-2,.63-2.58,1.24-5.53,1.25-8.19,2.33-1.12.46-2.57.1-3.87.1a38.31,38.31,0,0,1-8.44-.42c-3.51-.79-7.1-1.51-10.19-3.61a12.35,12.35,0,0,0-2.28-.92,55.64,55.64,0,0,1-6.53-3.66c-.27-.16-.53-.43-.81-.46-2.85-.28-5.48-1.53-8.28-1.89-1.55-.21-3.21-.09-4.74-.38-3.56-.66-6.84.76-10.24,1.14a20.53,20.53,0,0,0-6.65,2.52c-1.31.67-2.87.87-4,1.93-1.82,1.73-4.33,2.16-6.35,3.51a6.76,6.76,0,0,1-2.45.78c-3,.6-6,1.14-9,1.68a12.51,12.51,0,0,1-2.71-.26c-1.82-.07-3.6-.57-5.48-.24-1.2.21-2.29-.74-3.53-.78-2.36-.06-4.36-1.38-6.53-2.07-1.34-.44-2.42-1.69-3.81-2.28s-2.93-1.29-4.38-2a7.92,7.92,0,0,1-2.32-1.53c-.83-.84-2.14-.77-3.23-.87-1.63-.17-3.09-.85-4.66-1.14a27.94,27.94,0,0,0-7.14-.47,53,53,0,0,0-6.64.8,29.41,29.41,0,0,0-8.55,3.09c-2.1,1.2-4.37,2.12-6.56,3.16a5,5,0,0,0-1.29.56c-1.57,1.43-3.62,1.81-5.51,2.45a31.4,31.4,0,0,1-5.41,1.07c-1.93.29-3.91.28-5.86.44a17.58,17.58,0,0,1-4.94-.45c-1.45-.3-2.91-.69-4.36-.86a12.13,12.13,0,0,1-3.81-1.12c-2-1-4.26-1.39-6-3-1-.93-2.43-1.24-3.43-2.27-.42-.43-1.32-.38-2-.6-2.42-.79-4.82-1.61-7.23-2.4a38.92,38.92,0,0,0-5.56-.95c-.82-.14-1.62.52-2.53.45a23.48,23.48,0,0,0-5.62-.14,8,8,0,0,0-1.53.25c-3,1.07-6.21,1.81-9.17,3.19-1.15.54-2.07,1.43-3.22,1.93-1.95.86-3.86,1.83-5.81,2.69a51.3,51.3,0,0,1-5,1.9,25.72,25.72,0,0,1-6.94,1.15,49.48,49.48,0,0,1-8.69-.16c-.66-.09-.77-.3-.78-.86s.18-.83.81-.83a25.22,25.22,0,0,1,6.82.69,1.47,1.47,0,0,0,.83,0c1.43-.61,3-.36,4.48-.93,1.28-.5,2.71-.32,4-.7a11.47,11.47,0,0,0,1.31-.51c3.34-1.47,6.79-2.67,9.82-4.84,2.68-1.9,5.92-2.61,9.1-3.34,1-.22,1.94-.56,2.92-.83a8.32,8.32,0,0,1,4.09-.17,14.66,14.66,0,0,0,3.79-.16c2.65-.13,5.23.6,7.83,1a25.29,25.29,0,0,1,9.34,3.65,83.55,83.55,0,0,0,9.13,4.56,28,28,0,0,0,6.31,1.55,27.34,27.34,0,0,0,4.33.49,42,42,0,0,0,11.22-.94c3.33-.79,6.25-2.44,9.26-3.87,1.81-.85,3.55-2,5.33-3,2.1-1.16,4.49-1.58,6.77-2.29,3.84-1.19,7.78-1.16,11.74-1.21a31.38,31.38,0,0,1,14.21,3.4c2.63,1.27,5.24,2.62,7.81,4a18.36,18.36,0,0,0,7.41,2.46,1.84,1.84,0,0,1,.9.25c1.2.83,2.56.64,3.9.72s2.61.48,4,.51c1.69,0,3.32-.31,5-.39,2.51-.12,4.86-1.22,7.39-1.36.72,0,1.23-.7,1.88-.93,3-1,5.37-3.17,8.25-4.4,4-1.69,7.87-3.64,12.21-3.91,2.26-.14,4.51-.83,6.89-.18,1.72.46,3.63,0,5.45.29.94.17,1.8.52,2.71.74,1.52.37,3.09.3,4.59.94,2,.84,3.62,2.18,5.53,3.1,3.51,1.71,6.94,3.61,10.76,4.59a7.49,7.49,0,0,1,1.08.47,4.69,4.69,0,0,0,3,.55c1.52-.3,3.08.19,4.62.29a4,4,0,0,0,1.83-.07c1.34-.5,2.76-.13,4.13-.21a31.81,31.81,0,0,0,10-2.53c4.55-1.78,8.67-4.46,13.16-6.37a30.74,30.74,0,0,1,7.16-1.76c2.21-.35,4.42.07,6.61-.21Z"/><path d="M696.75,169.49a53.17,53.17,0,0,0-6.91.28c-1.46,0-2.8.9-4.26,1.23a33.42,33.42,0,0,0-7.94,3.38,40.73,40.73,0,0,1-7.14,3.25,5.66,5.66,0,0,0-1.19.5,19.22,19.22,0,0,1-10.09,2.38c-1.55,0-3.1.16-4.64.2a32.92,32.92,0,0,1-13.9-2.66,51.68,51.68,0,0,1-8-4.19c-1.64-1.06-3.52-1.54-5.22-2.44-2.44-1.3-5.19-1.21-7.81-1.76a17.63,17.63,0,0,0-5.2-.37c-1.76.17-3.51.45-5.28.52-2.59.11-5,1.17-7.3,2a31.24,31.24,0,0,0-6.94,3.35,25.88,25.88,0,0,1-8.14,3.76c-2.2.55-4.35,1.43-6.59,1.58a21.18,21.18,0,0,1-4.9.19,6,6,0,0,0-2.12.07c-2.11.41-4.1-.39-6.15-.49a14.61,14.61,0,0,1-6-2,28.43,28.43,0,0,0-4.81-1.89,18.69,18.69,0,0,1-3-1.81c-2.89-1.59-5.74-3.38-9-3.92-2.08-.35-4.07-1.14-6.19-1.15a26.53,26.53,0,0,0-3,.37c-.43,0-1,.22-1.28,0-1-.56-2-.23-3.1-.25-3.52-.07-6.61,1.57-9.92,2.26-2.7.57-4.48,2.59-6.81,3.69-2,1-4.14,1.83-6.22,2.74a3.35,3.35,0,0,0-.65.24c-2.56,1.94-5.58,1.64-8.52,1.83a16.67,16.67,0,0,0-4.05.32,7.51,7.51,0,0,1-3.93-.21c-2.15-.43-4.44.07-6.54-.76-1.36-.54-2.89-.68-4.07-1.71a2.72,2.72,0,0,0-1.6-.69,1.45,1.45,0,0,1-.85-.38c-1.3-1.4-3.27-1.64-4.72-2.78a1.33,1.33,0,0,0-.3-.18c-3.2-1.2-6.22-2.92-9.62-3.56-2.3-.44-4.64-.67-7-1a10.61,10.61,0,0,0-3.18.3,7.16,7.16,0,0,1-2.07,0,16.78,16.78,0,0,0-7.9,1.24c-2.41.88-5,1.49-7.12,3-1.08.76-2.28,1.37-3.43,2s-1.91,1.48-3.27,1.47a2.52,2.52,0,0,0-1.66.81,5.3,5.3,0,0,1-2.47,1,32,32,0,0,1-8,1.34c-1.91.07-3.86.4-5.8-.09-1.05-.26-2.2,0-3.31-.26-.71-.16-.49-.6-.51-1s.34-.49.65-.43a27.87,27.87,0,0,0,11.36-.1c2-.42,4.15-.34,6-1.1a52.62,52.62,0,0,0,6.52-3.13,74.7,74.7,0,0,1,9.43-4.71c2.53-1,5.14-.89,7.63-1.69,1.85-.59,3.92-.12,5.88-.09,5.29.09,10.38.85,15.09,3.52a59.61,59.61,0,0,0,5.68,2.78c2.31,1,4.34,2.59,6.74,3.27,2.71.77,5.35,1.94,8.38,1.34,1.33-.27,2.84.45,4.32.39,4.67-.19,9.31-.63,13.55-2.69,2.21-1.07,4.74-1.71,6.43-3.76.48-.58,1.31-.64,2-.89,1.81-.63,3.58-1.37,5.38-2.05,2.37-.89,4.7-2.05,7.37-1.66a6.26,6.26,0,0,0,1.87-.26c2.27-.32,4.49.35,6.75.36.59,0,1.18.17,1.76.12a15.54,15.54,0,0,1,6.09,1.11,31.81,31.81,0,0,1,6.36,2.67c1.39.8,2.69,1.75,4.06,2.58a3.86,3.86,0,0,0,1.43.49c1.65.23,2.86,1.4,4.34,2a18.26,18.26,0,0,0,4.81,1,5.21,5.21,0,0,1,1.85.28c1.92,1,4,.53,6,.68a30.39,30.39,0,0,0,13.59-2.46,79.91,79.91,0,0,0,7.68-4c2.15-1.13,4.39-2.05,6.61-3,3.58-1.56,7.39-1.3,11.07-2a19,19,0,0,1,4.86.21,19.72,19.72,0,0,1,3.85.52c2.46.74,5,1,7.42,2.07,1.95.85,3.73,2,5.59,3,2.43,1.28,4.9,2.42,7.41,3.53a21.6,21.6,0,0,0,6.6,1.53,38.87,38.87,0,0,0,6.44.6c4.7-.29,9.38-.67,13.7-2.84a11.32,11.32,0,0,1,2.22-.73,2.36,2.36,0,0,0,1.31-.74,7.11,7.11,0,0,1,3.45-1.93,10.81,10.81,0,0,0,2-1c3.3-1.93,7-2.68,10.64-3.5,2.5-.56,5-.28,7.55-.58Z"/><path d="M696.75,251.81c-3.16.07-6.38-.12-9.41.77a26,26,0,0,0-6.06,2.06c-2.31,1.33-4.85,2.29-7.1,3.76a34.06,34.06,0,0,1-8.29,3.48,10.07,10.07,0,0,1-4,.51,8.84,8.84,0,0,0-2.09.29,33.57,33.57,0,0,1-16.65-1.49,22.57,22.57,0,0,1-5-2c-2.63-1.71-5.55-2.83-8.26-4.38a21.23,21.23,0,0,0-6.1-2,49.68,49.68,0,0,0-11.92-1,25,25,0,0,0-7.66,1.68c-.92.33-1.86.31-2.74.6a41.19,41.19,0,0,0-6.61,3.46c-3.27,1.81-6.52,3.69-10.17,4.61-1.86.47-3.84.3-5.73.68a10.18,10.18,0,0,0-1.63.24,2.56,2.56,0,0,1-2.27-.08,1.27,1.27,0,0,0-.93-.13c-3.72.61-7.27-.49-10.8-1.29-2.85-.64-5.27-2.51-7.91-3.78-3.85-1.85-7.49-4.45-11.82-4.9-3.25-.34-6.37-1.84-9.68-1.29-3.57.59-7.24.35-10.74,1.43a2.17,2.17,0,0,0-.54.24,88.59,88.59,0,0,1-10.26,5.15,12.51,12.51,0,0,0-1.68,1.07,11.14,11.14,0,0,1-4.15,1.5c-1.89.42-3.63,1.38-5.58,1.63-2.43.31-4.87.3-7.31.39a30.81,30.81,0,0,1-13.28-2.19,53.42,53.42,0,0,1-7.13-3.5,34.76,34.76,0,0,0-9.43-4.35,36.39,36.39,0,0,0-8.55-1.32,36.8,36.8,0,0,0-9.56.92,35.77,35.77,0,0,0-5.93,1.8c-2.09.93-4.44,1.55-6.11,3.31a2.86,2.86,0,0,1-1.32.76c-2.24.62-4.18,1.95-6.36,2.7a32.39,32.39,0,0,1-7.53,1.72c-1.06.1-2.11.27-3.16.41-.23,0-.52.14-.7,0-1.36-.67-2.78-.35-4.19-.38a3.72,3.72,0,0,0-1.62.1c-.63.27-1.15-.21-1.64-.5-.3-.17-.16-.67-.12-1s.41-.3.67-.31a25.48,25.48,0,0,1,5.59.27,19.52,19.52,0,0,0,8.36-.47,48.7,48.7,0,0,0,8.72-3.37,41.26,41.26,0,0,0,6.08-3.52c1.46-1,3.16-1.08,4.7-1.69a27.72,27.72,0,0,1,12-2.17c3.39.25,6.88.29,10.18,1.43a16.38,16.38,0,0,0,2.62.62,11,11,0,0,1,4.09,1.63c2.85,1.78,5.68,3.67,9,4.44a1.09,1.09,0,0,1,.42.2c2.43,1.79,5.35,1.82,8.13,2.47,2.3.54,4.58.33,6.85.53a25.42,25.42,0,0,0,6.34-.54,31.69,31.69,0,0,0,8.15-2.49c2.52-1.16,4.91-2.6,7.49-3.66.93-.38,1.76-1.12,2.71-1.59,2-1,4.07-1.42,6.06-2.24,1.09-.45,2.25-.06,3.39-.38,2.26-.62,4.6-.17,6.9-.27a30.5,30.5,0,0,1,11.65,2,35.7,35.7,0,0,1,6.44,2.94,39.27,39.27,0,0,0,9.44,4.4,56.93,56.93,0,0,0,7.29,1.77,21.29,21.29,0,0,0,5.23,0,17,17,0,0,1,2.25-.12,18.09,18.09,0,0,0,7.08-1.06c2.14-.84,4.54-1.14,6.37-2.8a11.08,11.08,0,0,1,2.44-1.09c2.06-1.06,4.11-2.15,6.13-3.28,2.28-1.28,4.85-1.47,7.29-2.14a53.93,53.93,0,0,1,6.53-.9,3.17,3.17,0,0,1,1.19,0,55.53,55.53,0,0,0,7.49.93,17.91,17.91,0,0,1,5.8,1.4c2.95,1.4,5.89,2.8,8.79,4.31s5.79,3.21,9.09,3.74a34.52,34.52,0,0,0,6.71.85c1,0,1.94.62,2.9.47,2.45-.39,4.91-.6,7.38-.8a18.59,18.59,0,0,0,5.5-1.8,32.53,32.53,0,0,0,4.64-2.25c1.3-.79,2.8-1.24,4.12-2,1.88-1.12,3.8-2.17,5.78-3.11s4.09-.7,6.14-1a4.23,4.23,0,0,0,1.14-.28c2.08-1,4.23,0,6.33-.24Z"/><path d="M696.75,244.85a32.82,32.82,0,0,1-6.69.53c-2.44-.12-4.6.85-6.91,1.22-1,.17-1.75,1-2.62,1.51-1.93,1.08-3.78,2.38-6,2.75a1.38,1.38,0,0,0-.8.47c-1.19,1.41-2.94,2-4.48,2.75a19.9,19.9,0,0,1-5.47,1.51c-1.61.26-3.31-.19-4.88.7-.4.22-1.05-.15-1.6-.21-1.84-.2-3.68.4-5.49,0-2.25-.48-4.52-.95-6.78-1.31-3-.47-5.38-2.47-8.27-3.19a8.76,8.76,0,0,1-2.33-1.35A26.44,26.44,0,0,0,623.44,246c-1.27-.17-2.47-.89-3.84-1-2.26-.13-4.53-.69-6.75.15a2.4,2.4,0,0,1-1.17.15c-3-.4-5.78.66-8.59,1.39s-5.3,2.35-7.82,3.76a48.93,48.93,0,0,1-9.9,4.52,31.58,31.58,0,0,1-6.16.9c-2,.2-4,0-6,.06a29.1,29.1,0,0,1-12.14-2c-1.79-.77-3.7-1.19-5.21-2.6-1.35-1.27-3.41-1.41-4.85-2.61s-3.73-1.09-5.39-2.18c-2-1.32-4.33-1.25-6.62-1.23a20.33,20.33,0,0,1-3.39-.37,14.92,14.92,0,0,0-5.75.45c-.64.15-1.27,0-1.87.18-2.68.7-5.47,1-8,2.12a34.67,34.67,0,0,0-5.75,3.19A26.67,26.67,0,0,1,511.5,252a21.82,21.82,0,0,1-5,2.51,61.92,61.92,0,0,1-7.84,1.5,7.67,7.67,0,0,1-3.09,0,2,2,0,0,0-1.35.06c-1.92.64-3.82,0-5.71-.29-2.28-.3-4.53-.81-6.78-1.31a20.93,20.93,0,0,1-3.33-1.41c-3.06-1.23-5.71-3.21-8.67-4.65a35.31,35.31,0,0,0-7.46-2.64,39.73,39.73,0,0,0-10.91-.85c-2.32.12-4.49,1-6.81.91a3.61,3.61,0,0,0-1.66.54,27.39,27.39,0,0,1-6.77,2.65,2.37,2.37,0,0,0-1.2.69,7.63,7.63,0,0,1-2.68,1.65c-2,.82-3.84,1.88-5.87,2.61a62.44,62.44,0,0,1-8.5,2.21c-2.3.46-4.47-.31-6.7-.15-1.13.09-2.21-.21-3.32-.16-.85,0-.83-.56-.8-1.15,0-.84.58-.33.93-.35,1.61-.07,3.22.31,4.83.11a.65.65,0,0,1,.24,0c4.86.95,9.32-.72,13.8-2.18a36.76,36.76,0,0,0,7.76-4,40.36,40.36,0,0,1,6-2.55A21.38,21.38,0,0,1,449,243.9a1.49,1.49,0,0,0,.47-.07,8,8,0,0,1,4-.45,18,18,0,0,0,3.37,0c3.38,0,6.45,1.6,9.76,2,.72.09,1.34.82,2.07,1.1A90.19,90.19,0,0,1,479,251.85a9.75,9.75,0,0,0,4.78,1.43c1.23,0,2.24.89,3.49,1,1.59.12,3.12.59,4.78.26a20.55,20.55,0,0,1,3.91.13,47.41,47.41,0,0,0,6.8-.65c4.25-.64,7.82-2.81,11.32-4.92,2.31-1.39,4.85-2.16,7.15-3.49a15.9,15.9,0,0,1,2.49-.6,30.15,30.15,0,0,1,11.53-1.55c3.88.14,7.84.09,11.41,1.95,1.54.8,3.29,1,4.76,1.87,1.15.66,2.28,1.37,3.44,2a78.6,78.6,0,0,0,8,3.52c5.09,2.15,10.43,2,15.76,1.88a24,24,0,0,0,9.85-2.46c1.93-.9,3.87-1.85,5.75-2.9,3.61-2,7.17-4.33,11.51-4.74,1.06-.1,2-.86,3.13-.91,2-.1,4-.17,6-.24,5.62-.2,10.85,1.46,16,3.38a28.76,28.76,0,0,1,7,3.53c1.74,1.25,3.74,1.67,5.55,2.62a14.26,14.26,0,0,0,5.58,1.26c3.18.25,6.35.59,9.53.65A11.47,11.47,0,0,0,663,254a6,6,0,0,1,2.76-.52c.4,0,.89.14,1.18,0,1.57-1,3.45-1.34,4.92-2.39a31.18,31.18,0,0,1,5.84-3.18c1.5-.65,2.93-1.46,4.4-2.18,2.37-1.17,5-1.44,7.52-1.83a44.55,44.55,0,0,1,7.11-.47Z"/><path d="M696.75,183.41c-2.17-.1-4.33.22-6.5,0a6.63,6.63,0,0,0-1.93.45,52.39,52.39,0,0,0-9.05,3.06c-2.29.89-4.08,2.51-6.35,3.4-1.46.57-2.94,1.38-4.42,2.06-1.74.8-3.64.89-5.46,1.31-.77.18-1.5.42-2.26.62a5,5,0,0,1-3.35.17.79.79,0,0,0-.48,0c-2.18.5-4.28-.14-6.41-.45-3-.45-5.88-1.16-8.82-1.75a3.64,3.64,0,0,1-2.33-1.28,1.47,1.47,0,0,0-.73-.59c-2.42-.58-4.35-2.27-6.74-2.94a23.77,23.77,0,0,1-4.37-2.25c-1.73-.92-3.61-.94-5.39-1.51-1.52-.5-3.18-.37-4.77-.67s-3.56.09-5.33.21a31.55,31.55,0,0,0-4.91.62,33.07,33.07,0,0,0-5.77,1.91,101.09,101.09,0,0,0-9.73,5c-2.59,1.51-5.52,2.16-8.3,3.12a15.27,15.27,0,0,1-4.92.58c-3,0-6.06.33-9.07-.22a39.64,39.64,0,0,1-9.58-2.65,81.55,81.55,0,0,1-7.37-3.67,18.6,18.6,0,0,0-4.9-2.36,27.54,27.54,0,0,1-5.1-1.71,4.47,4.47,0,0,0-2.5-.31c-1.87.35-3.67-.41-5.44-.25s-3.8.23-5.67.3a19,19,0,0,0-6.29,1.44,111.17,111.17,0,0,0-11.38,5.61c-2.64,1.4-5.28,2.73-8.34,2.9-1.49.07-2.87.74-4.39.81a18.4,18.4,0,0,1-4.13,0,10.53,10.53,0,0,0-2.51-.06A23,23,0,0,1,480.29,192c-2.1-.95-4.11-2.1-6.26-2.91-2.87-1.09-5.22-3.16-8.19-4-3.22-.95-6.42-1.93-9.84-1.65a1.29,1.29,0,0,1-.59,0c-1.59-.86-3.15,0-4.72,0-.11,0-.22.16-.32.15-2.69-.29-5.2.79-7.82,1-1.1.09-1.85.85-2.76,1.27-3,1.38-5.88,2.91-8.75,4.51a20.16,20.16,0,0,1-6.54,2.48,58.37,58.37,0,0,0-5.92,1.39,12.24,12.24,0,0,1-4.51.12,4.63,4.63,0,0,0-1.81.14c-1.73.56-3.25-.33-4.85-.56-.59-.08-.34-.64-.33-1s.35-.31.69-.29c3.43.14,6.9.9,10.3.09,1.72-.42,3.54-.23,5.18-.92a39.13,39.13,0,0,0,4.66-1.83c2-1.11,4.16-1.82,6.11-3,3.94-2.35,8.3-3.57,12.63-4.88a6.36,6.36,0,0,1,1.84-.14,50.3,50.3,0,0,0,7.15-.45,1.79,1.79,0,0,1,.83,0,14.5,14.5,0,0,0,5.73.7,1.19,1.19,0,0,1,.6,0c3.87,2,8.17,3.06,12.06,5.06a3.29,3.29,0,0,1,1,.76,10.68,10.68,0,0,0,4.76,2.72,24.35,24.35,0,0,0,5.78,1.7c2.39.26,4.76.58,7.15.74a30,30,0,0,0,8.74-1,12.43,12.43,0,0,1,2.57-.36c1.08,0,1.77-.78,2.64-1.2,3-1.44,5.93-2.9,8.91-4.31.6-.28,1.23-.44,1.57-1.11a1,1,0,0,1,.65-.46c2.06-.14,3.65-1.78,5.85-1.66,1.15.07,2.25-.76,3.49-.93a30.78,30.78,0,0,1,8.13-.29c1.59.2,3.19.12,4.78.24a13.33,13.33,0,0,1,5.57,1.66,6.9,6.9,0,0,0,1.86.57,24.11,24.11,0,0,1,6.6,3,50.23,50.23,0,0,0,6.52,3.38,35.15,35.15,0,0,0,13.19,2.4c2.58,0,5.35.13,7.86-.66a50.43,50.43,0,0,0,6.74-2.28c4.65-2.21,9.07-4.86,14-6.64a34.23,34.23,0,0,1,8.81-1.74,34.91,34.91,0,0,0,3.93-.27c1.65-.32,3.29.26,4.94.45,2.53.28,4.84,1.52,7.4,1.68,1.19.08,2.06.9,3.05,1.44a40.26,40.26,0,0,1,4.33,2.35c1.93,1.37,4.32,1.78,6.29,3.11,1.17.78,2.71.71,4,1.21a23,23,0,0,0,7.28,1.2,54.09,54.09,0,0,0,8.25-.25c1.84-.21,3.59-1.06,5.43-1.44a21.42,21.42,0,0,0,5.76-2.47,99.9,99.9,0,0,1,10.16-5,27.51,27.51,0,0,1,6.88-1.75c1.67-.22,3.46-.66,5.22-.09a5.94,5.94,0,0,0,1.79,0Z"/><path d="M696.75,327.17a37.44,37.44,0,0,0-11,1.43c-3.47.83-6.42,2.53-9.51,4.17-3.87,2.06-7.8,4.29-12.22,4.86-3.33.42-6.66,1.27-10.08.8-3.15-.43-6.43,0-9.44-1.3a67.23,67.23,0,0,1-7.62-3.31c-2.17-1.24-4.66-2-6.81-3.32-3.17-2-6.71-2.57-10.27-3.09a32,32,0,0,0-7.52,0c-2.1.19-4.17.48-6.24.75a8.41,8.41,0,0,0-4,1.35,2.05,2.05,0,0,1-1,.46c-2.34.16-3.91,1.8-5.75,2.91-1.65,1-3.5,1.53-5.2,2.41a23.13,23.13,0,0,1-12.09,3c-1.06-.06-2.13.2-3.19.21A38.46,38.46,0,0,1,563.6,337a49.8,49.8,0,0,1-7.79-3.44c-3.75-1.81-7.22-4.32-11.44-5.06-2.32-.4-4.67-.62-7-1.11-4.18-.9-8.18.39-12.26.76a6.56,6.56,0,0,0-1.45.45c-2.36.8-4.87,1.52-6.81,3-2.64,2-5.79,2.77-8.49,4.52a14.47,14.47,0,0,1-4,1.3,23.28,23.28,0,0,1-8.29,1,36.57,36.57,0,0,0-5.12-.18,20.93,20.93,0,0,1-8-1,48.92,48.92,0,0,1-7.25-3.2c-4.1-2.18-8-4.76-12.69-5.73a30.47,30.47,0,0,0-4.65-.67c-1.14-.05-2.26-.26-3.4-.39a2,2,0,0,0-.59-.06c-2.72.4-5.48.18-8.23.78s-5.09,1.48-7.61,2.29a24.33,24.33,0,0,0-3.81,2c-1.54.82-3.05,1.77-4.6,2.58a18.79,18.79,0,0,1-5.62,1.92c-1.54.26-2.93,1.05-4.52,1.24a21.91,21.91,0,0,1-6.47.25,25.68,25.68,0,0,0-3.83-.07c-.74,0-1.49-.14-2.23-.24s-.36-.62-.38-1,.29-.41.66-.36c1.33.16,2.66.29,4,.4a26.32,26.32,0,0,0,7.77-.48c4.27-.93,8.5-1.89,12.3-4.27a46.5,46.5,0,0,1,8.46-4.17,38,38,0,0,1,5.2-1.79,8.92,8.92,0,0,1,2.45-.32,10.13,10.13,0,0,0,3.41-.33,8.91,8.91,0,0,1,3,.21c.23,0,.47.11.7.11a30.78,30.78,0,0,1,12.87,2.43,16.64,16.64,0,0,1,4,2,4.69,4.69,0,0,0,1.79.88c1.61.4,2.79,1.57,4.19,2.32a30.75,30.75,0,0,0,4.66,1.85c2.84.95,5.8.83,8.67,1.48a21.1,21.1,0,0,0,7.51-.12c2.17-.29,4.3-.85,6.46-1.18,1.76-.26,3.1-1.44,4.76-1.9a12.44,12.44,0,0,0,4.13-2.44,4.24,4.24,0,0,1,2.08-1,4.62,4.62,0,0,0,1.68-.77c2.16-1.31,4.63-1.82,7-2.54,3.56-1.07,7.18-1,10.84-1.12a31.15,31.15,0,0,1,14.62,3.38c3.47,1.71,7,3.35,10.33,5.34a13.49,13.49,0,0,0,5.2,1.68c2.61.31,5.22.67,7.83.81a44.25,44.25,0,0,0,7.88-.4,13.69,13.69,0,0,0,4.7-1.41,2.89,2.89,0,0,1,1.36-.35,2.42,2.42,0,0,0,1.89-.79,2.22,2.22,0,0,1,.88-.58c2.7-.81,4.87-2.65,7.38-3.75,2.94-1.28,5.82-2.79,9.1-3.32s6.56-.22,9.81-.75a9.38,9.38,0,0,1,2.48.32A35.5,35.5,0,0,1,630,328.81c2.48,1.1,4.92,2.27,7.31,3.55a64.17,64.17,0,0,0,8.77,3.9,5.26,5.26,0,0,0,1.53.13c2.41.05,4.77.83,7.18.61,2.75-.24,5.51.11,8.26-.22a18.41,18.41,0,0,0,5.52-1.88c4.9-2.24,9.34-5.46,14.54-7,2.21-.67,4.42-1.7,6.71-1.76,2.1-.06,4.11-.7,6.2-.59a3.8,3.8,0,0,1,.78.22Z"/><path d="M696.75,231.17a61.65,61.65,0,0,0-9.88.73,8.35,8.35,0,0,0-2.08.78c-1.91.79-3.81,1.6-5.73,2.38a8.32,8.32,0,0,0-2.43,1.39,5.66,5.66,0,0,1-3.27,1.73,1.71,1.71,0,0,0-.79.48,4.07,4.07,0,0,1-2.75,1.18,2.82,2.82,0,0,0-1.74.58,6.67,6.67,0,0,1-3.23,1c-2,.24-3.93.9-5.87,1.07a29.18,29.18,0,0,1-6.4-.12,43.3,43.3,0,0,1-5.16-.57c-1.08-.28-2.22-.54-3.28-.88-2.63-.84-5.29-1.69-7.47-3.53a7.6,7.6,0,0,0-2.62-1.27,21.91,21.91,0,0,1-3.18-1.5,26.62,26.62,0,0,0-6.81-2.62,54.35,54.35,0,0,0-11.15-1.05c-3.29,0-6.38,1-9.47,2.09a87.22,87.22,0,0,0-8.08,3.46,27.53,27.53,0,0,0-3.05,1.78,25.14,25.14,0,0,1-10.47,3.49,55.41,55.41,0,0,1-7.05.73c-1.09,0-2.12-.24-3.19-.3a33.7,33.7,0,0,1-10.49-1.95,24.17,24.17,0,0,1-5.37-2.88,11.78,11.78,0,0,0-2.11-1c-1.66-.79-3.16-1.85-4.82-2.64a6.25,6.25,0,0,0-2.53-.84c-2.09.05-3.9-.87-5.83-1.34a9,9,0,0,0-1.93-.2,19.81,19.81,0,0,1-3.92-.18c-1.45-.29-2.9.2-4.34.42-1.9.3-3.87.28-5.72.76a18.24,18.24,0,0,0-5.92,2.4,40.59,40.59,0,0,1-3.86,1.86,8.83,8.83,0,0,0-2,1.25,4.11,4.11,0,0,1-2.71,1.38,5.28,5.28,0,0,0-2.54.87,16.46,16.46,0,0,1-7.34,1.85c-1.45.07-2.84.64-4.36.48-3.16-.34-6.38.16-9.5-.55-2-.45-4-.7-5.78-1.83-1.34-.84-3-1.09-4.39-1.92-1.74-1-3.6-1.87-5.39-2.82-2.7-1.44-5.38-3.18-8.67-3a.81.81,0,0,1-.35,0c-3.47-1.5-7.17-1.32-10.77-1.08a28.76,28.76,0,0,0-10.91,2.45c-3.77,1.82-7.4,3.89-11.15,5.73a28,28,0,0,1-11.57,2.82c-2.33.09-4.67.18-7,.2a15.11,15.11,0,0,1-2.6-.2c-.61-.1-.69-.32-.7-.83s.34-.58.77-.63a5.9,5.9,0,0,1,2.34.31,6.69,6.69,0,0,0,3.3-.14,2.89,2.89,0,0,1,.91-.15c3.75.52,7.27-.56,10.85-1.44a15.18,15.18,0,0,0,4.32-1.94,19.57,19.57,0,0,1,3.89-1.86c.93-.31,1.46-1,2.23-1.48a21.66,21.66,0,0,1,7.34-3c1.81-.28,3.63-.79,5.41-1,2.36-.25,4.83-.94,7.18-.31a32.06,32.06,0,0,0,5.94.74c3.84.3,7,2.34,10.41,3.52,1.59.54,2.93,1.81,4.45,2.61,2.88,1.51,6.07,2.29,9,3.74a8.63,8.63,0,0,0,3.46.58c3.26.07,6.52,0,9.78,0,1.46,0,2.68-.85,4.09-1,4.19-.55,7.72-2.66,11.32-4.68,3.29-1.85,6.57-3.8,10.37-4.47,1.5-.27,3-.34,4.55-.6a43,43,0,0,1,6-.68,17.87,17.87,0,0,1,4.43.44c3,.67,6.12,1.15,9.1,2.1a26.38,26.38,0,0,1,3.42,1.78c3.61,1.78,7,4,10.79,5.45a19.29,19.29,0,0,0,6.25,1.18,12,12,0,0,1,1.38.26,43.08,43.08,0,0,0,9.36-.15c2.86-.21,5.55-1.06,8.32-1.53a1.49,1.49,0,0,0,.66-.23,54.44,54.44,0,0,1,7.26-3.8,52.14,52.14,0,0,0,4.81-2.71,12.78,12.78,0,0,1,5.82-1.64,27,27,0,0,0,4.71-1,5.26,5.26,0,0,1,3.14-.07,3.24,3.24,0,0,0,1.08,0,35.13,35.13,0,0,1,9.22,1.09c2.79.72,5.64,1.34,8,2.85,2.86,1.82,5.91,3.24,8.9,4.79a16.7,16.7,0,0,0,8.14,1.94c1.79,0,3.66.6,5.48.58a41.74,41.74,0,0,0,13.69-2.19,13.94,13.94,0,0,0,2.93-1.42,88.26,88.26,0,0,1,8.38-4.56c2.83-1.42,5.82-2.65,9.13-2.61a5.1,5.1,0,0,0,1.5-.23c2-.57,3.94.26,5.91,0Z"/><path d="M696.75,341.09c-1.88-.68-3.79-.07-5.64.06-4.4.3-8.38,2.23-12.43,3.81-2.27.88-2.22,1-4.88.9,1.47-.69,2.75-1.24,4-1.89s2.13-1.34,3.27-1.84a32.16,32.16,0,0,1,6-1.74c2.44-.55,5-.48,7.4-1.18.76-.22,1.52.39,2.26,0Z"/><path d="M626.3,157.62a11.52,11.52,0,0,1,8.68,2,37.65,37.65,0,0,0,9,4.46,43,43,0,0,0,5.89,1.09,39.47,39.47,0,0,0,6.7.21A33.68,33.68,0,0,0,671.72,162a45.37,45.37,0,0,0,5.57-3.25,7,7,0,0,1,5.39-1.25c-1.43,1.54-3.63,1.9-5.3,3.1s-3.47,1.46-4.79,2.87a.94.94,0,0,1-.41.21l-9.59,3.05a1.91,1.91,0,0,1-.59.08c-3,0-6,0-9,.21a20.11,20.11,0,0,1-7.28-1.28c-1.76-.56-3.59-.89-5.34-1.59a26.49,26.49,0,0,1-5.1-2.64c-1.51-1-3.4-1.29-4.82-2.41A8.18,8.18,0,0,0,626.3,157.62Z"/><path d="M546.12,157.47c1.07,0,2.16.07,3.23,0a3,3,0,0,1,3,1.23c.36.54,1,.53,1.54.77,1.46.65,3,1,4.21,2.27s3.06,1.27,4.58,1.95c2.93,1.3,6.13,1.31,9.24,1.79a22.74,22.74,0,0,0,5.53,0,6.92,6.92,0,0,0,2.31-.39,2.45,2.45,0,0,1,2-.16,3.24,3.24,0,0,0,2.54-.3,21.08,21.08,0,0,1,4-1.47c1.92-.47,3.42-1.71,5.15-2.51a33.81,33.81,0,0,0,5-2.65c1.48-1,3.19-.24,4.8-.44-4.53,1.42-8.23,4.5-12.58,6.19a34.4,34.4,0,0,1-8.84,2.64,46.41,46.41,0,0,1-5.62.71c-2.9-.05-5.83.24-8.68-.48a43.82,43.82,0,0,1-8.47-2.55c-2.11-1-3.86-2.49-5.94-3.45C550.85,159.5,548.68,158.05,546.12,157.47Z"/><path d="M522.23,157.6a30.14,30.14,0,0,0-4.31,2,24.68,24.68,0,0,0-4.26,2.42,12.53,12.53,0,0,1-3.84,2c-5,1.72-10,3.31-15.48,3.11a60.68,60.68,0,0,1-11.66-1.56,13.93,13.93,0,0,1-4.62-2c-1.62-1.12-3.59-1.46-5.25-2.54a37,37,0,0,0-6.89-3.38,8.61,8.61,0,0,1,4.89.63c2.73,1.36,5.58,2.57,8.16,4.08a32,32,0,0,0,16.88,3.29,65,65,0,0,0,8-1.17,34.68,34.68,0,0,0,7.09-2.68c2.2-1.08,4.37-2.3,6.5-3.55C519,157.3,520.58,157.51,522.23,157.6Z"/><path d="M513.4,345.85a34.81,34.81,0,0,1,8.15-4.49,20.94,20.94,0,0,1,6.87-1.5,11.71,11.71,0,0,0,4-.55c1.21-.44,2.41.19,3.64.21.52,0,1.09.15,1.64.14a27,27,0,0,1,6.71.78,40.61,40.61,0,0,1,4.92,1.91,59.24,59.24,0,0,1,6.41,3.36,5.59,5.59,0,0,1-4.23-.54c-3.27-1.66-6.47-3.43-10.28-3.67-1.53-.1-3-.22-4.57-.25-1.82,0-3.66-.28-5.48-.16-3.2.22-6.46.4-9.44,1.73-1.64.74-3.23,1.6-4.84,2.42A5.63,5.63,0,0,1,513.4,345.85Z"/><path d="M432.58,345.7c14.2-8.16,28.4-8.59,42.64.09-2.13.56-4-.29-5.74-1.17a40.74,40.74,0,0,0-8.83-3.07,16.61,16.61,0,0,0-5.56-.51,29.57,29.57,0,0,1-4.21,0c-1.88-.07-3.63.64-5.45.82-3.75.37-6.83,2.38-10.15,3.8A5.05,5.05,0,0,1,432.58,345.7Z"/><path d="M594,345.88c11.36-8.33,30-8.77,42-.08-1.92.68-3.5-.5-4.91-1.33a29.46,29.46,0,0,0-4.77-1.87c-5.41-2.09-11.08-1.8-16.68-1.21a30,30,0,0,0-8.74,2.15c-1.21.52-2.24,1.4-3.49,1.92A8.1,8.1,0,0,1,594,345.88Z"/><path d="M441.83,157.61c-1.86.6-3.33,2-5.33,2.3a5.73,5.73,0,0,0-2.21,1,32.92,32.92,0,0,1-9,4.55,29.44,29.44,0,0,1-6.65,1.37,31.27,31.27,0,0,1-3.19.22c-2.61-.1-5.21-.32-7.82-.45-.59,0-.64-.32-.61-.76s.26-.49.7-.46a43.7,43.7,0,0,0,5.83.29c3.29-.22,6.64-.29,9.8-1.27a37.74,37.74,0,0,0,7.95-3.43c1.78-1.05,3.6-2.05,5.42-3C438.36,157.07,440.11,157.62,441.83,157.61Z"/><path d="M669.57,157.66c-9.31,3.13-18.63,3.53-28,0a22.26,22.26,0,0,1,5.8.3,23.83,23.83,0,0,0,5.76.64,32.84,32.84,0,0,1,5.06-.11c1.65.25,3.26-.32,4.87-.59A24.11,24.11,0,0,1,669.57,157.66Z"/><path d="M480.73,157.5a27.75,27.75,0,0,1,8.07.89c3,.71,6,.42,9,.22,3.25-.22,6.36-1.66,9.7-1.14a8.53,8.53,0,0,0,1,0,19.94,19.94,0,0,1-9,2.38c-2.95.2-5.91.34-8.87.35a14.2,14.2,0,0,1-5.29-.84c-1.13-.45-2.5-.19-3.57-1A3,3,0,0,1,480.73,157.5Z"/><path d="M560.73,157.62a17.59,17.59,0,0,1,5.17.2,36.36,36.36,0,0,0,6.6,1c3,0,6,.2,9-.55a18.18,18.18,0,0,1,8-.64C579.69,160.92,570.21,161.28,560.73,157.62Z"/><path d="M428.23,157.52c-3.48,1.6-7.15,2-10.72,2.5a48.52,48.52,0,0,1-8.44,0,5.85,5.85,0,0,1-1.49-.29c-.54-.17-.53-.58-.53-1s.38-.47.74-.51a16.12,16.12,0,0,1,4,.57c.83.12,1.6.38,2.36-.22.18-.15.54-.1.81-.1a32,32,0,0,0,8.32-.88C424.77,157.2,426.49,157.52,428.23,157.52Z"/><path class="cls-8" d="M696.78,345.69H554.69s1.43-8.09,10.95-8.33,20.23,0,20.23,0,10,1.43,17.37-12.61,23.5-10.8,31.18-8.33c9.79,3.15,20.47,8.34,37.13-17.72s25.23-26.55,25.23-26.55Z"/><polygon class="cls-5" points="583.35 403.62 339.27 402.47 531.05 325.35 583.35 403.62"/><polygon class="cls-2" points="531.05 325.35 339.27 402.47 460.73 220.13 531.05 325.35"/><rect class="cls-2" x="342.88" y="526.22" width="29.35" height="11.74"/><rect class="cls-2" x="414.63" y="515.78" width="29.35" height="11.74"/><rect class="cls-2" x="358.71" y="567.63" width="29.35" height="11.74"/><rect class="cls-2" x="392.14" y="550.03" width="29.35" height="11.74"/></g></g></svg>