<svg xmlns="http://www.w3.org/2000/svg" viewBox="0 0 434.86 325.17"><defs><style>.cls-1{fill:#222221;}.cls-2{fill:#eabd7c;}.cls-3{fill:none;stroke:#222221;stroke-linecap:round;stroke-linejoin:round;stroke-width:2px;}.cls-4{fill:#b7d9e4;}</style></defs><title>illu_icon_4</title><g id="Ebene_2" data-name="Ebene 2"><g id="Ebene_1-2" data-name="Ebene 1"><path class="cls-1" d="M179.5,44.4a11.88,11.88,0,1,1,11.86-11.89A11.9,11.9,0,0,1,179.5,44.4Zm0-21.75a9.88,9.88,0,1,0,9.86,9.86A9.89,9.89,0,0,0,179.5,22.65Z"/><path class="cls-1" d="M433.85,211.88H144.69a1,1,0,0,1-1-1V64.06a1,1,0,0,1,1-1h68.58V1a1,1,0,0,1,2,0V63.06H433.85a1,1,0,0,1,1,1V210.88A1,1,0,0,1,433.85,211.88Zm-288.16-2H432.85V65.06H145.69Z"/><rect class="cls-2" x="214.28" y="1" width="219.57" height="63.06"/><path class="cls-1" d="M433.85,65.06H214.28a1,1,0,0,1-1-1V1a1,1,0,0,1,1-1H433.85a1,1,0,0,1,1,1V64.06A1,1,0,0,1,433.85,65.06Zm-218.57-2H432.85V2H215.28Z"/><path class="cls-1" d="M433.86,65.06a1,1,0,0,1-1-1V1a1,1,0,0,1,2,0V64.06A1,1,0,0,1,433.86,65.06Z"/><path class="cls-1" d="M144.69,1V64.06h69.59V1ZM179.5,43.4a10.88,10.88,0,1,1,10.86-10.89A10.88,10.88,0,0,1,179.5,43.4Z"/><path class="cls-1" d="M214.28,65.06H144.69a1,1,0,0,1-1-1V1a1,1,0,0,1,1-1h69.59a1,1,0,0,1,1,1V64.06A1,1,0,0,1,214.28,65.06Zm-68.59-2h67.59V2H145.69ZM179.5,44.4a11.88,11.88,0,1,1,11.86-11.89A11.9,11.9,0,0,1,179.5,44.4Zm0-21.75a9.88,9.88,0,1,0,9.86,9.86A9.89,9.89,0,0,0,179.5,22.65Z"/><path class="cls-1" d="M179.5,44.4a11.88,11.88,0,1,1,11.86-11.89A11.9,11.9,0,0,1,179.5,44.4Zm0-21.75a9.88,9.88,0,1,0,9.86,9.86A9.89,9.89,0,0,0,179.5,22.65Z"/><path class="cls-1" d="M335.45,182H177.26a1,1,0,0,1-1-1V97.56a1,1,0,0,1,1-1H335.45a1,1,0,0,1,1,1V181A1,1,0,0,1,335.45,182Zm-157.19-2H334.45V98.56H178.26Z"/><path class="cls-1" d="M179.5,44.4a11.88,11.88,0,1,1,11.86-11.89A11.9,11.9,0,0,1,179.5,44.4Zm0-21.75a9.88,9.88,0,1,0,9.86,9.86A9.89,9.89,0,0,0,179.5,22.65Z"/><circle class="cls-1" cx="386.53" cy="165.48" r="13.61"/><path class="cls-1" d="M386.53,180.09a14.61,14.61,0,1,1,14.61-14.61A14.62,14.62,0,0,1,386.53,180.09Zm0-27.22a12.61,12.61,0,1,0,12.61,12.61A12.62,12.62,0,0,0,386.53,152.87Z"/><path class="cls-3" d="M177.27,97.55v83.39H335.46V97.55Zm79.09,41.71h26.37v13.9H256.36Zm52.73-13.9H282.73V111.45h26.36Zm-105.46,27.8H230v13.91H203.63Zm0-27.8H230v13.9H203.63Z"/><path class="cls-1" d="M203.63,168.07H177.27a1,1,0,0,1,0-2h26.36a1,1,0,0,1,0,2Z"/><path class="cls-1" d="M335.46,168.07H230a1,1,0,0,1,0-2H335.46a1,1,0,0,1,0,2Z"/><path class="cls-1" d="M256.36,154.16H230a1,1,0,0,1,0-2h26.36a1,1,0,0,1,0,2Z"/><path class="cls-1" d="M203.63,154.16H177.27a1,1,0,0,1,0-2h26.36a1,1,0,0,1,0,2Z"/><path class="cls-1" d="M335.46,154.16H282.73a1,1,0,0,1,0-2h52.73a1,1,0,0,1,0,2Z"/><path class="cls-1" d="M203.63,140.26H177.27a1,1,0,1,1,0-2h26.36a1,1,0,0,1,0,2Z"/><path class="cls-1" d="M335.46,140.26H282.73a1,1,0,0,1,0-2h52.73a1,1,0,0,1,0,2Z"/><path class="cls-1" d="M256.36,140.26H230a1,1,0,0,1,0-2h26.36a1,1,0,0,1,0,2Z"/><path class="cls-1" d="M282.73,126.35H230a1,1,0,0,1,0-2h52.73a1,1,0,0,1,0,2Z"/><path class="cls-1" d="M203.63,126.35H177.27a1,1,0,0,1,0-2h26.36a1,1,0,0,1,0,2Z"/><path class="cls-1" d="M335.46,126.35H309.09a1,1,0,0,1,0-2h26.37a1,1,0,0,1,0,2Z"/><rect class="cls-1" x="282.73" y="111.45" width="26.36" height="13.9"/><path class="cls-1" d="M309.09,126.35H282.73a1,1,0,0,1-1-1v-13.9a1,1,0,0,1,1-1h26.36a1,1,0,0,1,1,1v13.9A1,1,0,0,1,309.09,126.35Zm-25.36-2h24.36v-11.9H283.73Z"/><path class="cls-1" d="M282.73,112.45H177.27a1,1,0,0,1,0-2H282.73a1,1,0,0,1,0,2Z"/><path class="cls-1" d="M335.46,112.45H309.09a1,1,0,0,1,0-2h26.37a1,1,0,0,1,0,2Z"/><rect class="cls-1" x="203.63" y="125.36" width="26.36" height="13.9"/><path class="cls-1" d="M230,140.26H203.63a1,1,0,0,1-1-1V125.35a1,1,0,0,1,1-1H230a1,1,0,0,1,1,1v13.91A1,1,0,0,1,230,140.26Zm-25.37-2H229V126.35H204.63Z"/><rect class="cls-1" x="203.63" y="153.16" width="26.36" height="13.9"/><path class="cls-1" d="M230,168.07H203.63a1,1,0,0,1-1-1V153.16a1,1,0,0,1,1-1H230a1,1,0,0,1,1,1v13.91A1,1,0,0,1,230,168.07Zm-25.37-2H229V154.16H204.63Z"/><path class="cls-1" d="M203.63,154.16a1,1,0,0,1-1-1v-13.9a1,1,0,0,1,2,0v13.9A1,1,0,0,1,203.63,154.16Z"/><path class="cls-1" d="M203.63,181.94a1,1,0,0,1-1-1V167.07a1,1,0,0,1,2,0v13.87A1,1,0,0,1,203.63,181.94Z"/><path class="cls-1" d="M203.63,126.35a1,1,0,0,1-1-1V97.55a1,1,0,0,1,2,0v27.8A1,1,0,0,1,203.63,126.35Z"/><path class="cls-1" d="M230,154.16a1,1,0,0,1-1-1v-13.9a1,1,0,0,1,2,0v13.9A1,1,0,0,1,230,154.16Z"/><path class="cls-1" d="M230,181.94a1,1,0,0,1-1-1V167.07a1,1,0,0,1,2,0v13.87A1,1,0,0,1,230,181.94Z"/><path class="cls-1" d="M230,126.35a1,1,0,0,1-1-1V97.55a1,1,0,0,1,2,0v27.8A1,1,0,0,1,230,126.35Z"/><path class="cls-1" d="M256.36,181.94a1,1,0,0,1-1-1V153.16a1,1,0,1,1,2,0v27.78A1,1,0,0,1,256.36,181.94Z"/><path class="cls-1" d="M256.36,140.26a1,1,0,0,1-1-1V97.55a1,1,0,0,1,2,0v41.71A1,1,0,0,1,256.36,140.26Z"/><path class="cls-1" d="M282.73,140.26a1,1,0,0,1-1-1V125.35a1,1,0,0,1,2,0v13.91A1,1,0,0,1,282.73,140.26Z"/><path class="cls-1" d="M282.73,181.94a1,1,0,0,1-1-1V153.16a1,1,0,1,1,2,0v27.78A1,1,0,0,1,282.73,181.94Z"/><path class="cls-1" d="M282.73,112.45a1,1,0,0,1-1-1V97.55a1,1,0,0,1,2,0v13.9A1,1,0,0,1,282.73,112.45Z"/><rect class="cls-1" x="256.36" y="139.26" width="26.36" height="13.9"/><path class="cls-1" d="M282.73,154.16H256.36a1,1,0,0,1-1-1v-13.9a1,1,0,0,1,1-1h26.37a1,1,0,0,1,1,1v13.9A1,1,0,0,1,282.73,154.16Zm-25.37-2h24.37v-11.9H257.36Z"/><path class="cls-1" d="M309.09,181.94a1,1,0,0,1-1-1V125.35a1,1,0,1,1,2,0v55.59A1,1,0,0,1,309.09,181.94Z"/><path class="cls-1" d="M309.09,112.45a1,1,0,0,1-1-1V97.55a1,1,0,0,1,2,0v13.9A1,1,0,0,1,309.09,112.45Z"/><path class="cls-4" d="M1,324.17H58.43s3.54-33.61,5-44.78c1.31-10.27-1.79-21.86,13.81-22.31s23.12-.54,35.6-15.93,17.34-15.39,24.67-15.84c9.75-.65,30.95,1,39-1.24s5.35-13.15-10.71-16-39.44-.68-42.93-.9S106,203.56,105.36,187s10.47-21.34,17.51-22.73c11.69-2.32,41.83-2.45,47.63-2.9S185,157,185,152s-3.35-5.12-3.35-5.12-23.27,1-42,1.49c-6.51.17-12.46.29-16.74.29-1.54,0-3.06.05-4.53.16h0a71.86,71.86,0,0,0-20.25,4.31s-.08,0-.09.05c-1.58.65-2.67,1.14-3.19,1.35l-.34.13S85.8,160,74.37,168.21c-10.94,7.86-24.48,18.33-35.33,29.2C16.85,219.6,19.71,229.87,16.85,244,12.77,264,1,324.17,1,324.17Z"/><path class="cls-1" d="M58.43,325.17H1A1,1,0,0,1,0,324c.12-.6,11.82-60.38,15.85-80.17.52-2.53.85-5,1.17-7.35,1.49-11,2.9-21.36,21.29-39.76,9-9,20.94-18.87,35.46-29.3,11.32-8.12,20-13.5,20.13-13.56l.17-.08.33-.13.77-.33,2.3-1,.15-.07a72.38,72.38,0,0,1,20.6-4.4c1.51-.11,3.06-.16,4.63-.16,3.86,0,9.32-.1,16.71-.29,18.55-.5,41.8-1.48,42-1.48h.1c1.49.09,4.29,1.49,4.29,6.11,0,5.6-9.13,9.88-15.42,10.37-1.61.12-5.05.22-9.41.35-11.83.34-29.7.87-38.11,2.53-6.5,1.29-17.33,5.82-16.7,21.71.73,17.85,16.42,19.13,16.58,19.14.79.05,2.93,0,5.63-.17,8.8-.4,25.19-1.14,37.41,1.08,10.71,1.93,15.7,7.3,15.91,11.76.13,2.94-1.83,5.32-5.12,6.23-5.22,1.46-15.81,1.32-25.16,1.19-5.39-.08-10.49-.15-14,.09l-.43,0c-7,.42-11.56.7-23.52,15.44-12.69,15.64-20.49,15.86-36,16.29h-.32c-11.72.34-12,7-12.41,15.48-.09,1.95-.18,4-.44,5.95-1.46,11-5,44.43-5,44.77A1,1,0,0,1,58.43,325.17Zm-56.22-2H57.53c.57-5.42,3.6-33.88,4.93-43.92.24-1.89.33-3.87.42-5.79.38-8.35.77-17,14.35-17.38h.33c15.39-.43,22.42-.63,34.53-15.55,12.51-15.43,17.73-15.74,24.95-16.18l.43,0c3.6-.24,8.73-.17,14.17-.09,9.21.12,19.64.26,24.6-1.12,2.41-.66,3.74-2.2,3.65-4.2-.16-3.56-4.7-8.17-14.27-9.89-12-2.18-28.24-1.45-37-1-3,.13-5,.22-5.85.16-4.91-.33-17.78-4.77-18.45-21.05-.68-17.38,11.18-22.34,18.32-23.75,8.57-1.7,26.54-2.22,38.43-2.57,4.33-.13,7.75-.23,9.32-.35C175.77,160,184,156.2,184,152c0-3.61-2-4.06-2.38-4.11-1.47.06-24,1-42,1.48-7.41.19-12.89.29-16.77.29-1.52,0-3,.05-4.46.16a70.86,70.86,0,0,0-19.93,4.21l-.13.07c-1,.41-1.79.75-2.37,1l-.82.35-.27.1C94,156.15,85.65,161.36,75,169c-14.43,10.36-26.28,20.14-35.21,29.09C21.83,216,20.46,226.09,19,236.73c-.33,2.4-.66,4.88-1.19,7.48C14.11,262.44,3.89,314.61,2.21,323.17Zm96.64-169.5Z"/><path class="cls-1" d="M94.78,155.56a1,1,0,0,1-.49-1.87,28.44,28.44,0,0,1,3.32-1.42,1,1,0,0,1,1.29.57,1,1,0,0,1-.55,1.29c-1,.41-1.79.75-2.37,1l-.82.35A1,1,0,0,1,94.78,155.56Z"/><path class="cls-4" d="M98.06,153.16a71.86,71.86,0,0,1,20.25-4.31h0c1.47-.11,3-.16,4.53-.16,4.28,0,10.23-.12,16.74-.29,8.39-4.24,21.26-10.78,26.79-13.76a15.21,15.21,0,0,0,7.22-10.09c1.09-6.61-4.47-3.79-6.85-2.53-7.77,4.07-21.85,10.51-35.54,16.64h0C117.51,144.74,104.22,150.51,98.06,153.16Z"/><path class="cls-1" d="M98.06,154.16a1,1,0,0,1-.4-1.92c7.35-3.16,20.44-8.85,33.15-14.5l.1,0c17.34-7.76,28.91-13.18,35.39-16.57,1.67-.88,5.14-2.71,7.17-1.25,1.16.83,1.53,2.41,1.14,4.83a16.19,16.19,0,0,1-7.73,10.8c-4.23,2.28-13.25,6.91-26.82,13.77a1,1,0,0,1-.42.11c-7.41.19-12.89.29-16.77.29-1.52,0-3,.05-4.46.16a70.43,70.43,0,0,0-20,4.24A.87.87,0,0,1,98.06,154.16Zm33.48-14.55c-7.16,3.18-14.44,6.37-20.74,9.11,2.31-.39,4.8-.69,7.44-.87,1.51-.11,3.06-.16,4.63-.16,3.82,0,9.21-.09,16.49-.29,13.44-6.79,22.37-11.38,26.56-13.64a14.22,14.22,0,0,0,6.71-9.37c.25-1.5.13-2.55-.33-2.88-.68-.49-2.38,0-5.07,1.4-6.52,3.42-18.17,8.87-35.59,16.66Z"/><path class="cls-4" d="M74.37,168.21C85.8,160,94.44,154.69,94.44,154.69l.34-.13A28.93,28.93,0,0,1,98,153.21s0,0,.09-.05c6.16-2.65,19.45-8.42,33.16-14.5-9.29-.1-25.06-.18-33.77.05-12.83.33-14,9.86-17,15.36C78.5,157.77,75.9,164.32,74.37,168.21Z"/><path class="cls-1" d="M74.37,169.21a1,1,0,0,1-.93-1.36,150.17,150.17,0,0,1,6.18-14.26,35.66,35.66,0,0,0,1.51-3.3c2.32-5.48,5.2-12.29,16.29-12.58,8-.21,22.73-.16,33.81-.05a1,1,0,0,1,.4,1.91c-12.7,5.64-25.77,11.32-33.13,14.49l-.18.09a24.28,24.28,0,0,0-3,1.28.38.38,0,0,1-.13.06l-.26.1C94,156.15,85.65,161.36,75,169A1,1,0,0,1,74.37,169.21Zm39.08-29.65c-6.14,0-11.92,0-16,.15-9.8.25-12.3,6.15-14.5,11.36-.52,1.24-1,2.41-1.59,3.48-1.53,2.83-3.48,7.49-4.84,10.89,10-7,17.3-11.55,17.38-11.6l.17-.08.27-.11a30.11,30.11,0,0,1,3.15-1.34l.13-.06c6.55-2.82,17.63-7.63,28.94-12.63C122.34,139.58,117.8,139.56,113.45,139.56Zm-15,14.51h0Zm.39-.4Zm0,0Z"/><path class="cls-1" d="M94.78,155.56a1,1,0,0,1-.49-1.87,28.44,28.44,0,0,1,3.32-1.42,1,1,0,0,1,1.29.57,1,1,0,0,1-.55,1.29c-1,.41-1.79.75-2.37,1l-.82.35A1,1,0,0,1,94.78,155.56Z"/></g></g></svg>