<svg xmlns="http://www.w3.org/2000/svg" viewBox="0 0 585.34 448.34"><defs><style>.cls-1{fill:#222221;}.cls-2{fill:#eabd7c;}.cls-3{fill:#b7d9e4;}.cls-4{fill:#68a8de;}.cls-5{fill:#fff;}</style></defs><title>illu_icon_3</title><g id="Ebene_2" data-name="Ebene 2"><g id="Ebene_1-2" data-name="Ebene 1"><polygon class="cls-1" points="78.82 83.31 78.82 128.24 39.91 150.71 39.91 105.77 78.82 83.31"/><path class="cls-1" d="M39.91,151.7a1,1,0,0,1-.5-.13,1,1,0,0,1-.5-.87V105.76a1,1,0,0,1,.5-.86L78.32,82.44a1,1,0,0,1,1.5.86v44.93a1,1,0,0,1-.5.87L40.41,151.57A1,1,0,0,1,39.91,151.7Zm1-45.36V149l36.91-21.31V85Z"/><polygon class="cls-2" points="39.91 105.77 39.91 150.71 1 128.24 1 83.31 39.91 105.77"/><path class="cls-1" d="M39.91,151.7a1,1,0,0,1-.5-.13L.5,129.1a1,1,0,0,1-.5-.87V83.3a1,1,0,0,1,1.5-.86L40.41,104.9a1,1,0,0,1,.5.86V150.7a1,1,0,0,1-1,1ZM2,127.66,38.91,149V106.34L2,85Z"/><polygon class="cls-2" points="78.82 83.31 39.91 105.77 1 83.31 39.91 60.84 78.82 83.31"/><path class="cls-1" d="M39.91,106.76a1,1,0,0,1-.5-.13L.5,84.17a1,1,0,0,1,0-1.73L39.41,60a1,1,0,0,1,1,0L79.32,82.44a1,1,0,0,1,0,1.73L40.41,106.63A1,1,0,0,1,39.91,106.76ZM3,83.3l36.91,21.31L76.82,83.3,39.91,62Z"/><polygon class="cls-1" points="575.93 146.85 580.13 154.14 584.34 161.42 575.93 161.42 567.51 161.42 571.72 154.14 575.93 146.85"/><path class="cls-1" d="M584.34,162.42H567.51a1,1,0,0,1-.86-1.5l8.41-14.57a1,1,0,0,1,1.73,0l8.42,14.57a1,1,0,0,1,0,1A1,1,0,0,1,584.34,162.42Zm-15.09-2h13.36l-6.68-11.57Z"/><path class="cls-1" d="M575.93,215.09a1,1,0,0,1-1-1V180.52a1,1,0,1,1,2,0v33.57A1,1,0,0,1,575.93,215.09Z"/><path class="cls-1" d="M575.93,238.81a1,1,0,0,1-1-1V224.74a1,1,0,0,1,2,0v13.07A1,1,0,0,1,575.93,238.81Z"/><path class="cls-1" d="M224.3,127.78a7.69,7.69,0,1,1,7.7-7.69A7.7,7.7,0,0,1,224.3,127.78Zm0-13.38a5.69,5.69,0,1,0,5.7,5.69A5.69,5.69,0,0,0,224.3,114.4Z"/><path class="cls-3" d="M404.82,273.29a47.54,47.54,0,1,0,47.53,47.54A47.54,47.54,0,0,0,404.82,273.29ZM399,336.52l-7.28-4.2-7.29-4.21,7.29-4.2L399,319.7Zm19-18.77L410.67,322V305.13l7.29,4.21,7.29,4.2Z"/><path class="cls-1" d="M404.82,369.36a48.54,48.54,0,1,1,48.53-48.53A48.59,48.59,0,0,1,404.82,369.36Zm0-95.07a46.54,46.54,0,1,0,46.53,46.54A46.6,46.6,0,0,0,404.82,274.29ZM399,337.52a1,1,0,0,1-.5-.13L383.89,329a1,1,0,0,1,0-1.73l14.57-8.41a1,1,0,0,1,1.5.86v16.82a1,1,0,0,1-.5.87A1,1,0,0,1,399,337.52Zm-12.57-9.4L398,334.79V321.44ZM410.67,323a1,1,0,0,1-.5-.13,1,1,0,0,1-.5-.87V305.13a1,1,0,0,1,1.5-.86l14.58,8.41a1,1,0,0,1,0,1.73l-7.29,4.21h0l-7.29,4.21A1,1,0,0,1,410.67,323Zm1-16.09v13.36l5.79-3.34h0l5.79-3.34Z"/><path class="cls-1" d="M399,337.52a1,1,0,0,1-.5-.13L383.89,329a1,1,0,0,1,0-1.73l14.57-8.41a1,1,0,0,1,1.5.86v16.82a1,1,0,0,1-.5.87A1,1,0,0,1,399,337.52Zm-12.57-9.4L398,334.79V321.44l-5.78,3.34h0Zm5.29-4.21h0Z"/><polygon class="cls-1" points="398.96 319.7 398.96 336.52 391.68 332.32 384.39 328.12 391.68 323.92 398.96 319.7"/><path class="cls-1" d="M399,337.52a1,1,0,0,1-.5-.13L383.89,329a1,1,0,0,1,0-1.73l14.57-8.41a1,1,0,0,1,1.5.86v16.82a1,1,0,0,1-.5.87A1,1,0,0,1,399,337.52Zm-12.57-9.4L398,334.79V321.44Z"/><path class="cls-1" d="M425.25,329.12H391.68a1,1,0,1,1,0-2h33.57a1,1,0,0,1,0,2Z"/><polygon class="cls-1" points="425.25 313.55 417.96 317.75 410.67 321.96 410.67 305.13 417.96 309.35 425.25 313.55"/><path class="cls-1" d="M410.67,323a1,1,0,0,1-.5-.13,1,1,0,0,1-.5-.87V305.13a1,1,0,0,1,1.5-.86l14.58,8.41a1,1,0,0,1,0,1.73l-14.58,8.42A1,1,0,0,1,410.67,323Zm1-16.09v13.36l11.58-6.68Z"/><path class="cls-1" d="M418,314.55H384.39a1,1,0,0,1,0-2H418a1,1,0,0,1,0,2Z"/><path class="cls-1" d="M410.67,323a1,1,0,0,1-.5-.13,1,1,0,0,1-.5-.87V305.13a1,1,0,0,1,1.5-.86l14.58,8.41a1,1,0,0,1,0,1.73l-14.58,8.42A1,1,0,0,1,410.67,323Zm1-16.09v13.36l11.58-6.68Z"/><path class="cls-1" d="M207.53,105.76v30.71H404.81V105.76Zm16.77,21a6.69,6.69,0,1,1,6.7-6.69A6.69,6.69,0,0,1,224.3,126.78Z"/><path class="cls-1" d="M404.81,137.47H207.53a1,1,0,0,1-1-1V105.76a1,1,0,0,1,1-1H404.81a1,1,0,0,1,1,1v30.71A1,1,0,0,1,404.81,137.47Zm-196.28-2H403.81V106.76H208.53Zm15.77-7.69a7.69,7.69,0,1,1,7.7-7.69A7.7,7.7,0,0,1,224.3,127.78Zm0-13.38a5.69,5.69,0,1,0,5.7,5.69A5.69,5.69,0,0,0,224.3,114.4Z"/><path class="cls-1" d="M503.48,321.83H452.35a1,1,0,0,1,0-2h50.13V105.77a1,1,0,1,1,2,0V320.83A1,1,0,0,1,503.48,321.83Z"/><path class="cls-1" d="M357.28,321.83h-51.1a1,1,0,0,1-1-1V282.17a1,1,0,0,1,2,0v37.66h50.1a1,1,0,0,1,0,2Z"/><path class="cls-1" d="M306.18,45.68a1,1,0,0,1-1-1V1a1,1,0,0,1,1-1H386a1,1,0,0,1,0,2H307.18V44.68A1,1,0,0,1,306.18,45.68Z"/><path class="cls-4" d="M207.53,408.06v39.28H404.81V408.06Zm98.64,32.32a10.32,10.32,0,1,1,10.31-10.32A10.32,10.32,0,0,1,306.17,440.38Z"/><path class="cls-1" d="M404.81,448.34H207.53a1,1,0,0,1-1-1V408.06a1,1,0,0,1,1-1H404.81a1,1,0,0,1,1,1v39.28A1,1,0,0,1,404.81,448.34Zm-196.28-2H403.81V409.06H208.53Zm97.64-5a11.32,11.32,0,1,1,11.31-11.32A11.32,11.32,0,0,1,306.17,441.38Zm0-20.63a9.32,9.32,0,1,0,9.31,9.31A9.32,9.32,0,0,0,306.17,420.75Z"/><path class="cls-1" d="M306.17,441.38a11.32,11.32,0,1,1,11.31-11.32A11.32,11.32,0,0,1,306.17,441.38Zm0-20.63a9.32,9.32,0,1,0,9.31,9.31A9.32,9.32,0,0,0,306.17,420.75Z"/><rect class="cls-1" x="120.44" y="245.59" width="120.36" height="52.27"/><path class="cls-1" d="M240.8,298.86H120.44a1,1,0,0,1-1-1V245.59a1,1,0,0,1,1-1H240.8a1,1,0,0,1,1,1v52.27A1,1,0,0,1,240.8,298.86Zm-119.36-2H239.8V246.59H121.44Z"/><path class="cls-1" d="M240.79,214.3a1,1,0,0,1-1-1V166.57a1,1,0,0,1,1-1H271a1,1,0,0,1,0,2H241.79V213.3A1,1,0,0,1,240.79,214.3Z"/><path class="cls-1" d="M457.34,190.94H394.71a1,1,0,0,1,0-2h62.63a1,1,0,0,1,0,2Z"/><path class="cls-1" d="M421.15,216.38h-115a1,1,0,1,1,0-2h115a1,1,0,0,1,0,2Z"/><path class="cls-1" d="M421.15,246.59h-115a1,1,0,0,1,0-2h115a1,1,0,0,1,0,2Z"/><path class="cls-1" d="M316.48,430.06a10.31,10.31,0,1,1-10.31-10.31A10.32,10.32,0,0,1,316.48,430.06Z"/><path class="cls-1" d="M306.17,441.38a11.32,11.32,0,1,1,11.31-11.32A11.32,11.32,0,0,1,306.17,441.38Zm0-20.63a9.32,9.32,0,1,0,9.31,9.31A9.32,9.32,0,0,0,306.17,420.75Z"/><circle class="cls-1" cx="306.17" cy="279.66" r="6.63"/><path class="cls-1" d="M306.17,287.28a7.63,7.63,0,1,1,7.63-7.62A7.63,7.63,0,0,1,306.17,287.28Zm0-13.25a5.63,5.63,0,1,0,5.63,5.63A5.64,5.64,0,0,0,306.17,274Z"/><path class="cls-1" d="M207.53,246.59a1,1,0,0,1-1-1V136.47a1,1,0,0,1,2,0V245.59A1,1,0,0,1,207.53,246.59Z"/><path class="cls-1" d="M207.53,387.39a1,1,0,0,1-1-1V297.86a1,1,0,0,1,2,0v88.53A1,1,0,0,1,207.53,387.39Z"/><polygon class="cls-1" points="120.44 270.33 38.91 270.33 38.91 166.57 40.91 166.57 40.91 268.33 120.44 268.33 120.44 270.33"/><path class="cls-1" d="M535,93.78H472a1,1,0,0,1-1-1V44.68a1,1,0,0,1,1-1h63a1,1,0,0,1,1,1v48.1A1,1,0,0,1,535,93.78Zm-62-2h61V45.68H473Z"/><path class="cls-1" d="M492.79,81.85a1,1,0,0,1-.68-.27L479.17,69.46a1,1,0,0,1,0-1.48l12.94-11.53a1,1,0,0,1,1.41.08,1,1,0,0,1-.08,1.42L481.33,68.74l12.15,11.38a1,1,0,0,1,0,1.41A1,1,0,0,1,492.79,81.85Z"/><path class="cls-1" d="M511.09,81.85a1,1,0,0,1-.78-.38,1,1,0,0,1,.15-1.4l13.76-11L510.46,58a1,1,0,0,1-.15-1.41,1,1,0,0,1,1.4-.15l14.73,11.82a1,1,0,0,1,.37.78,1,1,0,0,1-.37.78L511.71,81.63A1,1,0,0,1,511.09,81.85Z"/><path class="cls-1" d="M224.3,127.78a7.69,7.69,0,1,1,7.7-7.69A7.7,7.7,0,0,1,224.3,127.78Zm0-13.38a5.69,5.69,0,1,0,5.7,5.69A5.69,5.69,0,0,0,224.3,114.4Z"/><path class="cls-5" d="M149.55,257.34v26.77h-6.12V257.34Z"/><path class="cls-5" d="M167.52,257.34v3.83H161.4v-3.83Zm0,6.51v20.26H161.4V263.85Z"/><path class="cls-5" d="M185.49,257.34v26.77h-6.11V257.34Z"/><path class="cls-5" d="M203.47,257.34v26.77h-6.12V257.34Z"/><path class="cls-5" d="M221.44,257.34v3.83h-6.12v-3.83Zm0,6.51v20.26h-6.12V263.85Z"/></g></g></svg>