<svg xmlns="http://www.w3.org/2000/svg" viewBox="0 0 245.09 503.28"><defs><style>.cls-1{fill:#e5dfd3;}.cls-2{fill:#222221;}.cls-3{fill:#b7d9e4;}.cls-4{fill:#eabd7c;}.cls-5{fill:#fff;}</style></defs><title>illu_dreamer</title><g id="Ebene_2" data-name="Ebene 2"><g id="Ebene_1-2" data-name="Ebene 1"><path class="cls-1" d="M224.11,452.81v0l-8.35,4.56h0v0s-14.69-10.21-30.06-23.17l-4.12-31.63a.66.66,0,0,1,0-.15c.11-.59.21-1.11.28-1.6.06-.32.1-.63.14-.92a30.22,30.22,0,0,0,.26-3.42Z"/><path class="cls-2" d="M215.76,458.39a1,1,0,0,1-.68-.26c-1.23-.86-15.42-10.84-30.05-23.17a1,1,0,0,1-.34-.63l-4.13-31.63a1.22,1.22,0,0,1,0-.38.6.6,0,0,1,0-.12c.11-.56.2-1.06.27-1.52,0-.25.08-.47.11-.68l0-.25a27.55,27.55,0,0,0,.25-3.27,1,1,0,0,1,1.8-.6l41.84,56.34a1,1,0,0,1,.2.59v0a1,1,0,0,1-.52.87l-8.36,4.56A1,1,0,0,1,215.76,458.39Zm-29.14-24.71c13.5,11.36,26.55,20.66,29.21,22.53l6.8-3.71-39.54-53.24c0,.25-.05.5-.09.76l0,.27c0,.23-.06.46-.11.71-.06.46-.17,1-.28,1.6Z"/><path class="cls-2" d="M185.68,435.2A1,1,0,0,1,185,435l-.09-.07c-3.48-2.94-6.84-5.9-10-8.79a1,1,0,0,1-.29-1c1.41-4.88,2.61-9.22,3.56-12.9.15-.55.27-1,.37-1.42.8-3.11,1.43-5.79,1.88-8l.08-.44a1.07,1.07,0,0,1,.07-.19,1,1,0,0,1,1.07-.57,1,1,0,0,1,.84.84l4.12,31.63a1,1,0,0,1-.51,1A1,1,0,0,1,185.68,435.2Zm-8.9-10.14c2.41,2.21,4.95,4.46,7.57,6.7l-3.06-23.47c-.23.95-.47,1.94-.74,3-.1.43-.23.89-.35,1.35C179.26,416.24,178.12,420.4,176.78,425.06Z"/><path class="cls-3" d="M244.09,459.73l-15,10.6-13.29-12.94,8.35-4.56,4.94,7.27S237.84,456.05,244.09,459.73Z"/><path class="cls-2" d="M229.05,471.33a1,1,0,0,1-.69-.28l-13.3-12.95a1,1,0,0,1-.29-.85,1,1,0,0,1,.51-.74l8.35-4.56a1,1,0,0,1,1.31.31l4.48,6.6c2.38-.93,9.6-3.27,15.17,0a1,1,0,0,1,.5.82,1,1,0,0,1-.43.86l-15,10.6A1,1,0,0,1,229.05,471.33Zm-11.63-13.71L229.16,469l13-9.13c-5.57-2.08-12.56,1.07-12.64,1.11a1,1,0,0,1-1.24-.35l-4.44-6.52Z"/><path class="cls-1" d="M182.27,396.48a30.22,30.22,0,0,1-.26,3.42c0,.29-.08.6-.14.92-.07.49-.17,1-.28,1.6a.66.66,0,0,0,0,.15l0,0,0,.11-5.86,22.67c-6.7,23.28-16.14,52.52-16.14,52.52l-7.93-.51s.47-21.51,2.33-41.73h0c.09-.89.17-1.79.26-2.67.17-1.77.35-3.51.55-5.21.12-1,.23-1.95.36-2.9.2-1.52.41-3,.62-4.43.12-.77.24-1.54.36-2.28s.25-1.46.38-2.17c.07-.36.13-.7.2-1.05.17-.86.34-1.69.53-2.49.1-.47.21-.94.32-1.39a37.17,37.17,0,0,1,2-6.05c.17-.4.36-.76.54-1.1.1-.17.19-.33.29-.48a6.08,6.08,0,0,1,1.09-1.32l-52.37.62s-27.49-3.35-26.31-35.66l.18,0,1.52.3,1.25.24.76.14,1.73.35,2,.38,6.08,1.15,2.8.54,4.51.87,1.59.28,3.62.68,2.29.43,1,.2v0l5,.92.17,0,.17,0c11.79,2.12,24.42,4.3,34.1,5.65,4.15.58,7.74,1,10.51,1.22a28,28,0,0,0,4.8.1,16.87,16.87,0,0,1,6.38.38C178.87,382.57,182.57,387.68,182.27,396.48Z"/><path class="cls-2" d="M159.51,478.9h-.07l-7.93-.51a1,1,0,0,1-.93-1c0-.22.49-21.78,2.33-41.8l0-.17.24-2.5c.17-1.79.36-3.53.56-5.24.11-1,.23-2,.36-2.91.2-1.53.41-3,.62-4.45.07-.46.15-.93.22-1.38l.14-.9c.13-.76.26-1.49.39-2.2l.2-1.07c.17-.86.34-1.71.53-2.52.1-.46.22-.94.33-1.4a37.94,37.94,0,0,1,2-6.22c.18-.42.38-.8.57-1.16l.1-.17a1,1,0,0,1,.08-.14l-50.28.6h-.13c-.29,0-28.39-3.85-27.19-36.7a1,1,0,0,1,.39-.75,1,1,0,0,1,.83-.18l.19,0,28.88,5.5a.75.75,0,0,1,.21,0l5.42,1c14.78,2.66,25.92,4.5,34,5.62,4.3.61,7.81,1,10.45,1.22a25.82,25.82,0,0,0,4.6.1,18.17,18.17,0,0,1,6.77.42c6.53,1.8,10.12,7.81,9.83,16.46A29.83,29.83,0,0,1,183,400l0,.27c0,.23-.06.46-.11.71-.06.47-.17,1-.28,1.61v0a1.16,1.16,0,0,1,0,.18.17.17,0,0,1,0,.1v0l-5.87,22.67c-6.62,23.06-16.06,52.29-16.15,52.58A1,1,0,0,1,159.51,478.9Zm-6.91-2.44,6.19.4c1.51-4.71,9.87-30.8,15.89-51.76l5.89-22.74a.25.25,0,0,0,0-.07.15.15,0,0,0,0-.07h0c.11-.56.21-1.07.28-1.54,0-.25.08-.47.11-.68l0-.25a27.55,27.55,0,0,0,.25-3.27v0c.26-7.78-2.71-12.92-8.36-14.49a16.08,16.08,0,0,0-6-.35,26.34,26.34,0,0,1-5-.1c-2.67-.2-6.23-.62-10.57-1.22-8.1-1.13-19.27-3-34.14-5.65l-.33-.07-4.8-.89a1,1,0,0,1-.24,0l-15.8-3L83.67,368.3c-.45,29.44,23.65,33.21,25.4,33.44l52.3-.62a1,1,0,0,1,.95.65,1,1,0,0,1-.29,1.11,5.3,5.3,0,0,0-.91,1.11l-.17.29-.08.15a9.92,9.92,0,0,0-.49,1,37,37,0,0,0-1.91,5.9c-.11.44-.22.9-.32,1.36-.18.8-.35,1.63-.52,2.47l-.2,1.05c-.12.69-.25,1.42-.38,2.15l-.14.89-.21,1.36c-.21,1.43-.42,2.9-.62,4.42-.13.95-.24,1.91-.35,2.88-.2,1.7-.39,3.43-.56,5.2l-.25,2.67,0,.16C153.28,453.43,152.72,472.07,152.6,476.46Zm29-74h0Z"/><path class="cls-2" d="M117.36,374.64a.83.83,0,0,1-.22,0l-.17,0a1,1,0,0,1,.24-2l.19,0a1,1,0,0,1,1,1,1,1,0,0,1-1,1Z"/><path class="cls-2" d="M153.92,436.66a1,1,0,0,1-.74-.32,1,1,0,0,1-.27-.77c.09-.9.17-1.8.27-2.69a1,1,0,0,1,1.1-.88,1,1,0,0,1,.89,1.09l-.25,2.67A1,1,0,0,1,153.92,436.66Z"/><path class="cls-2" d="M154.73,428.78h-.11a1,1,0,0,1-.88-1.1c.29-2.61.62-5.09,1-7.38a1,1,0,0,1,2,.31c-.34,2.26-.67,4.71-1,7.29A1,1,0,0,1,154.73,428.78Z"/><path class="cls-2" d="M175.65,426.38a1.26,1.26,0,0,1-.27,0,1,1,0,0,1-.7-1.21l5.87-22.67a1,1,0,0,1,1.17-.72,1,1,0,0,1,.78,1.14l0,.2s0,.1,0,.12c-.46,2.23-1.1,4.94-1.9,8.06-.1.43-.23.89-.35,1.35-1,3.79-2.18,8.15-3.59,13A1,1,0,0,1,175.65,426.38Z"/><path class="cls-3" d="M165.1,502.28l-14.55-10.5,1-14.39,7.93.51-1.18,9.31S167,495.51,165.1,502.28Z"/><path class="cls-2" d="M165.1,503.28a1,1,0,0,1-.58-.18L150,492.6a1,1,0,0,1-.41-.89l1-14.39a1,1,0,0,1,1.06-.93l7.93.52a1,1,0,0,1,.71.36,1,1,0,0,1,.22.76l-1.12,8.82c1.69,1.73,8.46,9.18,6.69,15.7a1,1,0,0,1-.63.68A1,1,0,0,1,165.1,503.28Zm-13.51-12,12.77,9.22c.2-5.84-6.65-12.52-6.73-12.59a1,1,0,0,1-.3-.85l1-8.25-5.88-.38Z"/><path class="cls-2" d="M112,373.68l-.19,0-1-.2a1,1,0,0,1,.37-2l1,.17a1,1,0,0,1,.83,1v0a1,1,0,0,1-.36.77A1,1,0,0,1,112,373.68Z"/><path class="cls-2" d="M112,373.68l-.19,0-1-.2a1,1,0,0,1,.37-2l1,.17a1,1,0,0,1,.83,1v0a1,1,0,0,1-.36.77A1,1,0,0,1,112,373.68Z"/><path class="cls-2" d="M109.37,364.46a1,1,0,0,1-.8-.39l-2.74-3.54a1,1,0,0,1,1.55-1.26,28.24,28.24,0,0,0,2.38,2.4,1,1,0,0,1,.3.49l.12.46c0,.19.09.37.14.55a1,1,0,0,1-.5,1.18A1,1,0,0,1,109.37,364.46Z"/><path class="cls-4" d="M108.74,372.05l-3.62-.68-1.59-.28L99,370.22l-2.8-.54-6.08-1.15-2-.38-1.73-.35-.76-.14-1.25-.24-1.52-.3-.18,0a341.56,341.56,0,0,1,6-38.86c.51-2.22,1-4.43,1.62-6.55,3.3-12.16,8.17-17.53,11.91-18.84-2.6,3.18-2.6,9.12-2.6,9.12s-.39,10,0,29.37a28.15,28.15,0,0,0,6.7,18.29Z"/><path class="cls-2" d="M108.74,373.05h-.18l-26.09-5A1,1,0,0,1,81.7,367a346.2,346.2,0,0,1,6-39c.49-2.15,1-4.43,1.63-6.59,4.09-15.09,10.13-18.68,12.54-19.52a1,1,0,0,1,1.1,1.57c-2.34,2.87-2.37,8.44-2.37,8.49s-.38,10.24,0,29.35A27.17,27.17,0,0,0,107.11,359a1,1,0,0,1,.23.46l2.38,12.44a1,1,0,0,1-.27.9A1,1,0,0,1,108.74,373.05Zm-25-6.77,23.7,4.52-2.06-10.75a29.17,29.17,0,0,1-6.77-18.71c-.38-19.17,0-29.33,0-29.43a22.11,22.11,0,0,1,1-6.31c-2.45,2.19-5.78,6.77-8.37,16.33-.59,2.13-1.12,4.39-1.61,6.52A338.27,338.27,0,0,0,83.78,366.28Z"/><path class="cls-4" d="M153.5,370.33l-2,9-35.31-12.21a25.75,25.75,0,0,1-7.07-4.66,26.68,26.68,0,0,1-2.48-2.5l-.27-.31a28.15,28.15,0,0,1-6.7-18.29c-.39-19.36,0-29.37,0-29.37s0-5.94,2.6-9.12a5,5,0,0,1,4.53-2,14.21,14.21,0,0,1,2.1.37c5.16,1.39,5.7,6.1,6.11,10.71.43,5.16-3.21,28.5,12.56,39.74S153.5,370.33,153.5,370.33Z"/><path class="cls-2" d="M151.48,380.29a1,1,0,0,1-.33-.06L115.84,368a29.54,29.54,0,0,1-10-7.46l-.27-.31a29.12,29.12,0,0,1-6.95-18.92c-.38-19.17,0-29.33,0-29.43s0-6.29,2.82-9.71a6,6,0,0,1,5.39-2.33,14.94,14.94,0,0,1,2.29.41c5.95,1.6,6.44,7.14,6.84,11.58.07.88,0,2.17,0,3.8-.22,8.46-.7,26.06,12.15,35.22,15.6,11.08,25.85,18.57,26,18.65a1,1,0,0,1,.38,1l-2,8.95a1,1,0,0,1-.49.66A1,1,0,0,1,151.48,380.29Zm-45.19-78.44a4,4,0,0,0-3.27,1.61c-2.35,2.88-2.37,8.44-2.37,8.49s-.38,10.24,0,29.35A27.17,27.17,0,0,0,107.11,359l.27.31a28.24,28.24,0,0,0,2.38,2.4,24.88,24.88,0,0,0,6.78,4.48L150.75,378l1.63-7.23c-2.29-1.66-11.82-8.59-25.41-18.24s-13.22-28.1-13-36.9c0-1.57.08-2.82,0-3.57-.44-5-1.09-8.68-5.37-9.83a12.16,12.16,0,0,0-2-.35Z"/><path class="cls-3" d="M162,380.51c-2.77-.22-6.36-.64-10.51-1.22l2-7.24s4.53,1.69,5.64,3a26.81,26.81,0,0,1,2.71,5.09,1,1,0,0,1,.07.2l0,.15Z"/><path class="cls-2" d="M162,381.51h-.07c-2.68-.2-6.24-.62-10.58-1.22a1,1,0,0,1-.83-1.26l2-7.24a1,1,0,0,1,.51-.62,1,1,0,0,1,.81,0c.79.29,4.83,1.85,6,3.25a26.33,26.33,0,0,1,2.88,5.36,1.7,1.7,0,0,1,.12.33h0a1,1,0,0,1,0,.93A1,1,0,0,1,162,381.51Zm-9.24-3.06c3,.41,5.55.72,7.69.92a22,22,0,0,0-2.07-3.71,16.12,16.12,0,0,0-4.21-2.27Z"/><path class="cls-5" d="M192,344.4,173.17,381a16.87,16.87,0,0,0-6.38-.38,28,28,0,0,1-4.8-.1l0-.05,0-.15a1,1,0,0,0-.07-.2c-.4-1.27-1.65-5.06-2.59-6.18-1.1-1.28-5.76-3.6-5.76-3.6l14.28-25.93Z"/><path class="cls-2" d="M173.17,382a.82.82,0,0,1-.26,0,16.08,16.08,0,0,0-6-.35,26.34,26.34,0,0,1-5-.1,1,1,0,0,1-.75-.44,1.32,1.32,0,0,1-.15-.29,2.56,2.56,0,0,1-.07-.27.36.36,0,0,1,0-.09,24.76,24.76,0,0,0-2.4-5.84c-.7-.81-3.72-2.48-5.45-3.34a1,1,0,0,1-.43-1.38l14.28-25.93a1,1,0,0,1,.88-.52H192a1,1,0,0,1,.85.48,1,1,0,0,1,0,1l-18.81,36.59A1,1,0,0,1,173.17,382Zm-4.08-2.51a17.45,17.45,0,0,1,3.55.35l17.71-34.43h-22l-13.5,24.51c1.48.78,4.23,2.31,5.15,3.36s2.08,4.34,2.7,6.29a22,22,0,0,0,3.95.05A22.46,22.46,0,0,1,169.09,379.48Z"/><path class="cls-5" d="M161.38,402.12a6.08,6.08,0,0,0-1.09,1.32c-.1.15-.19.31-.29.48-.18.34-.37.7-.54,1.1a37.17,37.17,0,0,0-2,6.05c-.11.45-.22.92-.32,1.39-.19.8-.36,1.63-.53,2.49-.07.35-.13.69-.2,1.05-.13.71-.26,1.43-.38,2.17s-.24,1.51-.36,2.28c-.35,2.33-.68,4.78-1,7.33-.2,1.7-.38,3.44-.55,5.21-.09.88-.17,1.78-.26,2.67H1V402.74H109Z"/><path class="cls-2" d="M153.92,436.66H1a1,1,0,0,1-1-1V402.74a1,1,0,0,1,1-1H109l52.36-.62a1,1,0,0,1,.95.65,1,1,0,0,1-.29,1.11,5.3,5.3,0,0,0-.91,1.11l-.17.29-.08.15a9.92,9.92,0,0,0-.49,1,37,37,0,0,0-1.91,5.9c-.11.44-.22.9-.32,1.36-.18.8-.35,1.63-.52,2.47l-.2,1.05c-.12.69-.25,1.42-.38,2.15l-.14.89-.21,1.36c-.34,2.27-.67,4.72-1,7.3-.19,1.7-.38,3.43-.55,5.2l-.25,2.67A1,1,0,0,1,153.92,436.66ZM2,434.66H153l.17-1.76c.17-1.79.36-3.53.56-5.24.3-2.6.64-5.08,1-7.37.07-.45.15-.92.22-1.37l.14-.9c.13-.76.26-1.49.39-2.2l.2-1.07c.17-.86.34-1.71.53-2.52.1-.46.22-.94.33-1.4a37.94,37.94,0,0,1,2-6.22c.18-.42.38-.8.57-1.16l.1-.17a1,1,0,0,1,.08-.14l-50.28.6H2Z"/><path class="cls-2" d="M125.65,280.62h-1.48c-6.68,0-7.09-.79-9.69,4-2.77,5.16-2.93,7,.43,10.73a2.59,2.59,0,0,1,.61,1c1.11,3.14-6.64,4.87-6.64,4.87a14.21,14.21,0,0,0-2.1-.37,5,5,0,0,0-4.53,2c-3.74,1.31-8.61,6.68-11.91,18.84-.58,2.12-1.11,4.33-1.62,6.55,0,0-2.86-.21-9.48-5.67-10.85-9,17.35-16.29-1.23-21.11-16.64-4.33-8.64-20.06,9.22-19.71,13.15.25,21.58.56,21.54-5.45,0-4.29,3.61-13.15,13.82-5.28C128.4,275.47,129.77,279.13,125.65,280.62Z"/><path class="cls-2" d="M88.72,329.22h-.07c-.33,0-3.38-.4-10-5.9a7,7,0,0,1-2.93-4.91c-.18-3.1,2.39-5.8,4.67-8.18,1.7-1.79,3.47-3.64,3.13-4.83-.21-.75-1.37-1.87-5.72-3C71,300.64,67.32,296.75,68,292c.78-5.71,8.2-11.46,19.27-11.27h.91c9.12.18,16.33.32,18.71-2a3.18,3.18,0,0,0,.9-2.44c0-2.58,1.21-7,4.65-8.76,3-1.46,6.57-.55,10.78,2.69s6.14,6,5.79,8.29c-.15.95-.79,2.26-3,3.06a1,1,0,0,1-.34.06h-1.48c-.91,0-1.7,0-2.4,0-4.37-.1-4.45-.1-6.41,3.53-2.67,5-2.63,6.32.29,9.59a3.44,3.44,0,0,1,.82,1.35,2.75,2.75,0,0,1-.21,2.3c-1.39,2.5-6.57,3.72-7.16,3.86a1.11,1.11,0,0,1-.48,0,12.16,12.16,0,0,0-2-.35,4.06,4.06,0,0,0-3.65,1.6,1,1,0,0,1-.44.31c-1.65.58-7.32,3.59-11.27,18.16-.59,2.13-1.12,4.39-1.61,6.52A1,1,0,0,1,88.72,329.22Zm-2.07-46.5c-9.64,0-16,4.8-16.69,9.55-.51,3.65,2.6,6.72,8.31,8.2,4.4,1.14,6.6,2.49,7.14,4.38.65,2.29-1.42,4.46-3.62,6.76-2,2.09-4.25,4.45-4.11,6.68a5.08,5.08,0,0,0,2.2,3.49c4.24,3.5,6.87,4.76,8.1,5.21.43-1.85.89-3.76,1.4-5.58C93.32,306.85,99.09,303,101.65,302a6,6,0,0,1,5.21-2.12,15.78,15.78,0,0,1,2,.34c1.91-.46,4.93-1.57,5.62-2.82a.77.77,0,0,0,.06-.69,1.63,1.63,0,0,0-.38-.64c-3.76-4.2-3.47-6.54-.59-11.89,2.46-4.56,3.44-4.68,8.22-4.58.68,0,1.46,0,2.35,0h1.3c.93-.36,1.45-.85,1.54-1.43s0-2.56-5-6.39c-3.5-2.7-6.5-3.56-8.67-2.49-2.6,1.3-3.55,5-3.54,7a5.15,5.15,0,0,1-1.5,3.87c-3,2.94-9.81,2.81-20.15,2.6H86.65Z"/><path class="cls-3" d="M124.34,289.13c-1.63,4.92-5.53,8.07-8.82,7.24a2.59,2.59,0,0,0-.61-1c-3.36-3.75-3.2-5.57-.43-10.73,2.6-4.81,3-4,9.69-4A11.42,11.42,0,0,1,124.34,289.13Z"/><path class="cls-2" d="M116.59,297.5a5.3,5.3,0,0,1-1.32-.16,1,1,0,0,1-.71-.67,1.59,1.59,0,0,0-.37-.61c-3.76-4.2-3.47-6.54-.59-11.89,2.46-4.56,3.44-4.68,8.22-4.58.68,0,1.46,0,2.35,0a1,1,0,0,1,.9.56,12.5,12.5,0,0,1,.22,9.27h0C123.7,294.23,120.06,297.5,116.59,297.5Zm-.37-2c2.68.29,5.81-2.57,7.17-6.66h0a10.94,10.94,0,0,0,.13-7.2l-1.75,0c-4.37-.1-4.45-.1-6.41,3.53-2.67,5-2.63,6.32.29,9.59A3.27,3.27,0,0,1,116.22,295.48Z"/><path class="cls-2" d="M117.38,373.62l-.17,0-.17,0-5-.92-1-.17-2.29-.43-2.39-12.44.27.31,2.75,3.54Z"/><path class="cls-2" d="M117.38,374.62l-.23,0H117l-.17,0L108.56,373a1,1,0,0,1-.8-.8l-2.39-12.44a1,1,0,0,1,1.74-.85l.27.32,2.78,3.57,8,10.16a1,1,0,0,1,.12,1.05A1,1,0,0,1,117.38,374.62Zm-7.79-3.43,5.38,1-6.86-8.71Z"/><path class="cls-2" d="M117.38,374.64l-.24,0-.17,0a1,1,0,0,1,.24-2l.19,0a1,1,0,0,1,1,1v0a1,1,0,0,1-.39.79A1,1,0,0,1,117.38,374.64Z"/><polygon class="cls-2" points="185.68 434.2 185.59 434.13 175.65 425.38 181.51 402.71 181.54 402.6 181.56 402.57 185.68 434.2"/><path class="cls-2" d="M185.68,435.2A1,1,0,0,1,185,435l-.09-.07-10-8.77a1,1,0,0,1-.31-1l5.89-22.77a1.07,1.07,0,0,1,.07-.19,1,1,0,0,1,1.07-.57,1,1,0,0,1,.84.84l4.12,31.63a1,1,0,0,1-.51,1A1,1,0,0,1,185.68,435.2ZM176.77,425l7.57,6.67-3.11-23.9Z"/><path class="cls-4" d="M147.5,233.51A7.49,7.49,0,1,1,140,226,7.48,7.48,0,0,1,147.5,233.51Z"/><path class="cls-4" d="M94.18,202.92a7.48,7.48,0,1,1-7.49-7.49A7.49,7.49,0,0,1,94.18,202.92Z"/><path class="cls-4" d="M140,150.18a7.48,7.48,0,1,1-7.49-7.47A7.49,7.49,0,0,1,140,150.18Z"/><path class="cls-4" d="M74,111.31A12.85,12.85,0,1,1,61.16,98.46,12.84,12.84,0,0,1,74,111.31Z"/><path class="cls-4" d="M186.1,94.48a13.57,13.57,0,1,1-13.57-13.56A13.56,13.56,0,0,1,186.1,94.48Z"/><path class="cls-4" d="M107,74.22a7.48,7.48,0,1,1-7.48-7.48A7.48,7.48,0,0,1,107,74.22Z"/><path class="cls-4" d="M73,38.66a7.48,7.48,0,1,1-7.47-7.49A7.48,7.48,0,0,1,73,38.66Z"/><path class="cls-4" d="M158.1,7.47A7.48,7.48,0,1,1,150.63,0,7.48,7.48,0,0,1,158.1,7.47Z"/></g></g></svg>